{"glyphs":{"0":{"ha":425,"x_min":0,"x_max":0,"o":"m 200 17 b 258 21 217 13 244 15 b 432 213 308 42 372 111 b 524 396 456 253 504 350 b 586 588 543 442 578 547 b 601 738 604 667 610 731 b 600 743 597 739 597 742 b 600 783 604 744 604 768 b 561 821 596 797 576 817 b 492 818 542 826 508 825 b 257 535 421 789 335 685 b 144 211 203 431 163 313 b 143 82 138 175 138 104 b 200 17 153 44 171 22 z m 314 510 b 524 794 379 649 467 765 b 561 771 543 803 547 801 b 576 743 567 758 575 746 b 576 738 579 740 579 739 b 572 704 574 736 572 729 b 556 583 572 665 565 626 b 357 158 518 432 447 282 b 247 49 328 119 269 60 b 210 46 225 38 217 36 b 197 117 200 60 197 79 b 314 510 197 211 240 356 z "},"1":{"ha":217,"x_min":0,"x_max":0,"o":"m 121 61 b 129 43 119 49 121 47 b 164 42 140 39 156 38 b 174 61 167 44 171 51 b 396 631 189 114 314 432 b 453 800 468 803 465 794 b 418 793 440 807 426 803 b 322 615 399 768 350 681 b 167 219 285 531 211 342 b 121 61 133 126 121 83 z "},"2":{"ha":404,"x_min":0,"x_max":0,"o":"m 374 317 b 539 553 433 388 511 499 b 501 801 613 696 599 786 b 383 751 458 808 426 794 b 343 700 361 729 353 718 b 311 586 322 660 307 604 b 322 576 313 582 317 578 b 343 583 335 572 342 575 b 392 694 349 614 372 667 b 488 774 415 732 460 768 b 515 686 511 781 525 735 b 219 228 494 583 396 431 b 115 90 178 181 125 111 b 104 28 106 72 101 43 b 126 4 108 17 117 6 b 136 3 129 3 133 3 b 142 4 138 4 140 4 b 144 13 143 4 144 8 b 158 22 146 19 149 21 b 239 17 172 24 213 21 b 317 18 261 13 297 13 b 385 53 339 24 371 40 b 411 99 396 65 407 83 b 386 124 414 111 406 121 b 350 99 369 126 363 121 b 296 49 339 78 318 58 l 281 40 l 215 42 b 151 43 181 42 151 43 b 288 218 146 49 211 131 b 374 317 321 256 360 300 z "},"3":{"ha":360,"x_min":0,"x_max":0,"o":"m 399 161 b 435 301 425 214 435 250 b 371 438 435 368 410 418 l 356 443 l 365 450 b 392 464 371 453 382 458 b 518 583 429 486 488 540 b 561 672 535 607 554 647 b 560 760 568 700 568 738 b 481 813 547 794 524 810 b 372 769 435 814 410 804 b 286 622 336 735 303 678 b 289 565 278 589 278 571 b 317 585 303 557 310 561 b 372 699 326 615 351 667 b 478 785 404 746 450 785 b 494 771 488 785 488 783 b 501 729 500 760 501 753 b 492 672 501 704 500 696 b 390 519 472 617 444 574 b 321 463 364 493 347 479 b 286 436 303 450 286 438 b 317 424 285 429 296 425 b 342 415 331 424 336 421 b 363 253 365 393 376 313 b 300 121 353 210 329 158 b 228 47 285 100 244 58 b 179 31 215 40 190 31 b 149 67 171 31 153 50 b 178 157 142 92 150 121 b 224 204 192 175 214 199 b 219 217 231 207 228 217 b 147 161 203 217 175 196 b 114 89 122 131 114 114 b 178 8 114 44 138 15 b 226 8 200 4 203 4 b 299 44 253 14 269 22 b 399 161 344 82 375 118 z "},"4":{"ha":314,"x_min":0,"x_max":0,"o":"m 211 56 b 208 -10 196 4 196 -4 b 224 -12 211 -11 218 -12 b 246 7 235 -12 246 -1 b 306 186 246 15 281 121 b 390 390 328 247 340 278 b 517 675 460 551 482 601 b 556 803 568 788 571 799 b 542 806 550 806 544 806 b 447 650 531 801 486 729 b 401 575 429 613 418 593 b 274 400 381 547 343 497 b 190 317 217 321 203 308 b 186 338 186 321 186 325 b 325 654 186 364 214 431 b 388 788 358 724 388 783 b 354 804 389 796 374 804 b 333 796 343 804 339 803 b 197 526 325 789 224 588 b 140 364 168 461 146 400 b 142 339 139 358 139 347 b 197 296 147 313 168 296 b 275 368 224 296 229 301 b 392 535 294 397 383 525 b 367 471 397 542 397 540 b 211 56 288 292 247 183 z "},"5":{"ha":449,"x_min":0,"x_max":0,"o":"m 367 578 b 408 682 372 593 390 640 b 443 765 426 724 442 761 b 450 771 444 771 446 772 b 540 758 461 767 521 758 b 578 765 558 758 565 760 b 613 794 592 772 613 790 b 585 810 613 801 600 808 b 551 801 569 811 565 810 b 525 790 542 796 531 792 b 443 797 510 786 450 792 b 424 801 439 799 431 801 b 401 790 413 801 410 800 b 294 558 383 769 313 617 b 267 450 281 513 267 460 b 293 429 267 436 274 432 l 304 426 l 339 463 b 425 533 378 503 400 521 b 471 531 449 544 456 543 b 500 389 499 504 510 449 b 407 183 489 332 456 256 b 242 35 344 89 296 44 b 208 39 224 32 221 32 b 174 85 190 49 179 63 b 197 204 167 117 172 153 b 283 319 225 261 260 308 b 281 332 293 324 292 332 b 194 258 261 335 224 301 b 143 156 174 226 149 176 b 144 67 136 128 136 88 b 208 15 154 40 176 22 b 331 29 244 6 296 13 b 510 229 392 60 454 131 b 568 439 551 304 574 386 b 542 515 565 463 554 496 b 460 565 525 542 492 563 b 354 522 425 569 394 557 l 332 504 l 344 526 b 367 578 350 539 360 561 z "},"6":{"ha":342,"x_min":0,"x_max":0,"o":"m 543 776 b 576 788 547 779 563 785 b 601 803 606 793 610 796 b 576 810 599 807 592 808 b 418 735 521 813 476 790 b 192 346 329 647 244 503 b 158 88 160 246 144 132 b 224 18 169 51 192 28 b 346 78 265 4 313 28 b 419 350 394 151 424 257 b 353 475 417 414 406 436 b 321 501 336 488 322 500 b 335 532 319 503 326 517 b 543 776 396 644 481 744 z m 332 454 b 381 329 368 418 381 388 b 317 101 381 249 356 160 b 274 51 301 76 289 64 b 257 42 268 49 261 44 b 238 50 250 39 247 40 b 221 78 232 56 225 68 b 215 143 214 93 214 99 b 290 440 218 232 242 329 b 308 475 299 458 306 475 b 332 454 310 476 319 467 z "},"7":{"ha":376,"x_min":0,"x_max":0,"o":"m 189 31 b 213 76 193 42 204 63 b 263 154 221 90 243 125 b 421 394 300 217 335 269 b 579 651 486 489 557 606 b 604 747 597 688 607 725 b 539 810 600 779 579 797 b 372 808 511 817 421 817 b 297 768 304 794 271 778 b 332 774 303 767 311 768 b 468 792 374 786 415 790 b 543 775 522 792 533 789 b 522 671 554 756 547 718 b 433 535 515 657 475 596 b 182 144 274 297 221 217 b 146 44 163 108 157 93 b 144 -1 139 13 138 3 b 160 -4 147 -3 154 -4 b 189 31 172 -4 175 -1 z "},"8":{"ha":444,"x_min":0,"x_max":0,"o":"m 331 431 b 304 422 321 431 314 428 b 178 263 274 401 203 311 b 138 103 153 214 136 144 b 149 57 139 79 140 74 b 232 1 164 28 192 8 b 318 6 250 -1 296 1 b 394 44 343 13 378 29 b 446 113 413 60 438 94 b 465 210 461 144 465 174 b 453 275 464 239 463 247 l 442 307 l 468 344 b 508 401 483 365 501 390 b 578 536 526 426 565 501 b 599 704 603 603 611 665 b 529 775 589 736 564 763 b 439 775 506 786 463 786 b 324 632 389 757 336 689 b 342 433 313 582 322 486 b 331 431 343 431 340 431 z m 406 724 b 503 751 440 760 478 769 b 539 651 531 732 542 701 b 481 456 536 593 522 551 b 440 372 464 421 446 382 b 400 390 424 338 426 338 b 353 536 371 451 358 486 b 406 724 342 622 357 675 z m 354 399 b 379 351 356 399 367 378 l 403 304 l 394 292 b 404 276 386 279 389 276 b 419 256 414 276 414 275 b 426 199 426 238 426 229 b 418 140 426 168 425 160 b 371 67 410 113 397 93 b 325 36 353 49 347 44 b 278 25 308 29 296 26 b 240 32 258 25 254 25 b 210 140 208 49 200 81 b 281 304 219 196 243 250 b 354 399 306 340 351 399 z "},"9":{"ha":356,"x_min":0,"x_max":0,"o":"m 569 767 b 592 804 582 785 592 801 b 554 808 592 814 569 815 b 467 710 533 797 497 757 l 453 688 l 449 715 b 407 789 444 758 433 775 b 358 797 394 796 390 797 b 301 786 325 797 324 797 b 193 658 261 765 226 726 b 144 440 150 571 129 481 b 182 406 150 425 168 408 b 213 406 188 404 200 404 b 363 522 253 407 283 431 b 371 528 374 536 375 536 b 343 465 368 521 356 494 b 231 186 297 365 254 260 b 226 19 193 72 192 26 b 261 40 253 14 283 29 b 264 100 251 44 251 53 b 569 767 301 247 474 622 z m 294 493 b 235 439 267 464 244 444 b 206 436 215 429 210 428 b 269 651 194 457 225 563 b 365 767 300 717 343 767 b 397 736 375 767 390 751 b 411 661 406 715 411 685 b 399 618 411 640 411 639 b 294 493 376 582 340 539 z "},"A":{"ha":579,"x_min":0,"x_max":0,"o":"m 122 -68 b 263 75 164 -43 208 1 b 303 115 289 110 293 114 b 425 115 317 118 425 118 b 417 71 425 115 422 94 b 410 -26 408 29 408 26 b 414 -99 410 -57 413 -89 b 458 -178 422 -144 436 -169 b 486 -164 486 -187 504 -179 b 476 -132 481 -158 479 -153 b 500 78 471 -79 478 -10 b 528 126 513 128 510 122 b 581 144 546 129 574 139 b 572 163 589 150 585 157 b 543 161 561 167 560 167 b 524 156 533 157 525 156 b 588 339 521 158 544 225 b 699 708 697 625 715 690 b 649 721 688 721 656 729 b 614 671 647 721 632 697 b 511 519 596 644 550 575 b 389 339 472 463 418 382 b 296 204 360 297 318 236 l 254 147 l 232 143 b 96 90 186 138 129 115 b 31 -7 60 64 33 26 b 49 -61 26 -35 31 -42 b 122 -68 72 -87 90 -89 z m 346 190 b 469 374 360 213 417 296 b 568 517 522 453 567 518 b 550 471 568 517 560 496 b 435 150 506 358 453 211 b 376 146 435 147 421 146 b 317 147 343 146 317 147 b 346 190 317 150 329 168 z m 75 7 b 208 101 97 49 144 83 b 201 76 225 107 226 108 b 117 -15 171 38 142 6 b 67 -40 92 -37 69 -47 b 75 7 64 -32 68 -8 z "},"B":{"ha":481,"x_min":0,"x_max":0,"o":"m 79 18 b 200 197 92 28 129 83 b 389 481 271 310 349 426 b 599 675 478 600 550 667 l 610 678 l 610 665 b 579 574 610 649 596 608 b 419 361 550 513 482 422 b 292 261 376 317 356 301 b 246 224 250 235 246 232 b 258 208 246 217 249 214 b 308 200 269 203 276 201 b 367 171 353 199 356 196 b 353 57 381 138 378 107 b 253 -56 328 6 290 -35 b 168 -51 225 -71 183 -68 b 158 35 151 -33 147 11 b 206 86 168 54 188 75 b 218 101 222 94 224 97 b 178 96 211 108 196 106 b 118 33 153 83 131 60 b 108 -7 107 13 106 10 b 158 -79 111 -44 125 -64 b 218 -101 174 -87 204 -99 b 256 -101 222 -101 239 -103 b 303 -94 281 -101 289 -100 b 429 32 353 -74 400 -26 b 426 182 457 89 457 140 b 365 224 411 201 392 214 l 347 229 l 382 250 b 511 350 436 281 461 300 b 628 496 561 400 600 449 b 668 668 669 569 685 636 b 582 706 656 694 617 711 b 501 664 556 701 526 686 b 393 551 475 642 422 586 b 135 167 340 483 235 328 b 81 86 82 81 76 72 b 144 199 90 108 119 161 b 276 410 168 235 221 317 b 324 494 289 431 310 468 b 365 667 363 576 376 628 b 314 722 358 696 344 711 b 213 706 282 733 247 726 b 142 618 181 685 160 658 b 132 536 122 576 119 551 b 174 519 142 525 163 517 b 183 542 179 522 181 525 b 275 683 193 600 233 663 b 303 675 299 694 300 693 b 203 419 308 626 275 540 b 79 206 121 285 106 258 b 43 26 24 90 17 54 b 79 18 53 15 71 11 z "},"C":{"ha":311,"x_min":0,"x_max":0,"o":"m 35 72 b 149 -56 46 11 92 -42 b 203 -56 171 -60 176 -60 b 282 -11 236 -49 257 -37 b 365 89 307 15 335 47 b 375 126 390 121 392 126 b 343 100 368 126 363 121 b 283 36 331 86 303 57 b 221 -14 250 3 242 -3 b 175 -28 201 -24 193 -26 b 143 -19 154 -29 154 -29 b 111 29 131 -8 117 13 b 104 129 104 51 100 96 b 154 315 111 189 128 251 b 358 650 207 442 292 581 b 410 689 376 671 401 689 b 419 676 411 689 415 683 b 379 426 444 632 431 536 l 367 399 l 372 394 b 443 486 393 378 413 403 b 476 654 467 551 481 617 b 450 713 475 674 464 700 b 400 731 439 724 422 729 b 203 590 340 735 274 688 b 39 247 126 486 57 342 b 35 72 26 186 25 124 z "},"D":{"ha":471,"x_min":0,"x_max":0,"o":"m 67 -28 b 76 -19 75 -26 76 -25 b 103 22 76 -14 100 22 b 110 13 104 22 107 18 b 183 -37 121 -8 150 -28 b 328 11 233 -53 282 -36 b 532 310 393 78 476 200 b 638 621 599 447 638 557 b 594 686 638 660 628 676 b 500 644 560 696 547 690 b 289 369 440 583 383 508 b 182 214 257 321 208 251 b 129 136 157 176 132 142 b 121 125 125 131 122 125 b 189 240 118 125 144 169 b 369 574 303 419 340 492 b 382 664 383 614 388 642 b 321 726 372 697 354 717 b 163 611 254 746 183 694 b 192 532 150 561 160 532 l 207 532 l 208 556 b 233 638 211 581 222 617 b 297 694 250 667 278 692 b 308 688 304 697 306 696 b 151 318 325 640 278 529 b 63 164 111 253 72 182 b 29 33 42 122 32 82 b 35 -8 28 3 28 0 b 67 -28 46 -25 54 -29 z m 211 186 b 329 360 239 226 292 304 b 565 656 438 525 517 624 b 582 649 579 664 582 663 b 519 442 582 613 557 528 b 392 194 469 325 440 268 b 221 -6 315 78 263 15 b 175 -11 206 -12 183 -17 b 132 39 150 3 138 17 b 125 53 129 44 126 51 b 211 186 122 56 147 94 z "},"E":{"ha":361,"x_min":0,"x_max":0,"o":"m 308 415 b 68 211 218 410 126 332 b 33 22 32 135 21 74 b 119 -79 46 -24 72 -56 b 189 -100 139 -89 165 -97 b 250 -94 203 -103 233 -100 b 328 -54 272 -89 307 -71 b 442 61 357 -32 442 54 b 429 69 442 65 436 69 b 396 40 426 69 411 56 b 244 -67 332 -19 285 -53 b 172 -71 221 -74 189 -76 b 100 4 144 -64 111 -28 b 103 106 93 28 94 74 b 179 263 115 153 144 213 b 272 353 200 293 247 339 b 350 379 310 375 321 379 b 413 365 376 379 379 378 b 476 356 450 351 469 347 b 460 381 481 361 476 369 b 357 504 429 399 379 460 b 343 554 346 528 344 535 b 364 633 342 582 349 607 b 413 686 375 651 399 676 b 426 688 422 692 424 692 b 425 592 436 674 435 631 b 406 535 422 579 414 554 b 394 494 399 515 394 497 b 419 485 397 488 411 482 b 468 553 431 488 449 514 b 481 706 506 629 510 678 b 361 721 453 732 397 739 b 281 624 328 706 296 665 b 342 439 258 565 276 513 l 364 413 l 349 415 b 308 415 340 417 322 417 z "},"F":{"ha":361,"x_min":0,"x_max":0,"o":"m 63 -99 b 93 -68 86 -106 110 -81 l 86 -64 l 94 -31 b 143 132 113 44 124 81 b 201 251 175 208 196 254 b 278 258 228 242 246 243 l 301 269 l 292 242 b 282 197 285 224 282 208 b 290 175 282 183 283 182 b 332 168 301 165 321 163 b 340 188 343 174 346 181 b 336 196 338 190 336 193 b 361 253 336 197 347 224 b 385 332 392 314 393 322 b 346 343 376 339 356 346 b 326 325 342 342 333 335 b 232 268 304 300 258 272 b 221 276 222 267 221 267 b 226 296 221 283 224 292 b 229 307 229 300 231 306 b 261 375 228 308 242 339 b 350 571 308 465 333 519 b 364 590 356 589 357 590 b 442 610 383 590 419 599 b 500 644 454 617 481 631 b 560 678 521 657 547 672 b 633 697 586 690 622 700 b 654 683 638 696 647 690 b 669 653 667 672 668 669 b 693 626 672 632 676 626 b 721 649 706 626 717 635 b 636 728 728 676 685 717 b 565 728 613 733 593 733 b 440 663 525 719 503 708 b 390 632 426 653 406 639 l 365 618 l 364 642 b 336 703 363 672 356 689 b 228 714 308 724 261 729 b 160 642 204 703 176 672 b 135 524 136 596 125 543 b 168 506 139 515 153 507 b 190 538 186 503 189 506 b 208 611 193 565 194 575 b 272 692 222 646 251 682 b 310 653 297 701 310 689 b 189 374 310 604 281 535 b 100 204 138 281 124 253 b 32 10 65 128 43 64 b 35 -81 26 -18 28 -65 b 63 -99 39 -89 50 -96 z "},"G":{"ha":426,"x_min":0,"x_max":0,"o":"m 83 -42 b 151 -75 103 -61 122 -71 b 276 -32 193 -81 240 -65 l 296 -14 l 296 -32 b 317 -78 296 -54 303 -72 b 350 -69 336 -87 357 -82 b 401 111 340 -50 353 -6 b 419 189 425 167 428 181 b 374 192 410 197 393 199 b 268 179 357 185 306 179 b 226 168 247 179 226 174 b 235 160 226 167 231 163 b 279 156 242 156 249 156 b 333 158 299 156 324 157 b 353 161 344 160 353 161 b 339 122 353 161 346 143 b 319 72 331 101 322 78 b 233 -24 311 47 268 0 b 169 -50 211 -39 192 -47 b 144 -46 158 -53 154 -51 b 110 7 132 -37 118 -17 b 143 257 94 50 107 146 b 306 564 181 369 235 472 b 432 685 356 629 390 663 b 464 692 458 697 458 697 b 456 507 493 667 489 581 b 461 482 446 486 446 482 b 514 589 475 482 494 521 b 506 708 529 649 526 683 b 447 728 493 721 475 728 b 285 639 399 728 338 693 b 43 94 151 497 49 265 b 83 -42 40 28 53 -11 z "},"H":{"ha":508,"x_min":0,"x_max":0,"o":"m 54 258 b 79 274 63 258 67 261 b 113 299 89 283 103 293 b 163 308 129 307 135 308 b 193 308 181 310 193 310 b 168 256 193 308 183 283 b 108 111 139 194 125 160 b 94 13 94 65 92 53 b 113 -43 97 -24 100 -35 b 150 -46 124 -50 143 -51 b 150 -36 154 -43 154 -42 b 165 65 143 -25 150 11 b 239 246 183 126 204 176 b 267 300 254 275 267 300 b 322 293 267 301 293 297 b 436 292 385 282 419 282 b 444 290 446 296 446 296 b 419 218 443 288 432 256 b 371 -71 371 74 356 -21 b 390 -103 376 -86 379 -92 b 429 -122 403 -114 413 -118 b 469 -111 450 -128 472 -121 b 456 -101 468 -110 463 -106 b 432 -53 436 -93 433 -85 b 450 79 431 -19 436 19 b 692 664 494 249 614 540 b 717 707 706 686 717 706 b 697 715 717 713 711 715 b 613 640 676 715 649 690 b 471 358 569 583 522 488 b 449 304 460 329 449 304 b 442 307 449 304 446 306 b 417 306 436 310 431 310 b 300 322 392 299 379 300 b 285 326 292 324 285 326 b 319 401 283 328 300 361 b 371 522 349 460 360 483 b 397 647 392 583 397 613 b 390 690 397 671 397 676 b 324 728 378 717 360 726 b 176 592 263 728 199 668 b 175 556 171 574 171 565 b 235 550 185 538 232 533 b 239 576 236 554 238 565 b 258 646 240 600 250 629 b 333 704 271 668 317 704 b 346 660 342 704 347 686 b 313 540 346 631 339 603 b 210 336 293 497 232 374 b 175 339 210 336 194 336 b 54 315 121 343 82 335 b 28 278 42 306 28 288 b 54 258 28 268 40 258 z "},"I":{"ha":201,"x_min":0,"x_max":0,"o":"m 231 553 b 233 567 232 554 233 561 b 256 631 233 579 243 607 b 357 696 281 678 340 717 b 361 640 365 686 367 661 b 338 585 358 631 347 606 b 200 350 317 547 236 407 b 50 68 140 253 75 131 b 29 -39 36 29 32 8 b 43 -92 28 -82 28 -85 b 72 -92 56 -96 67 -96 b 79 -74 74 -89 76 -81 b 113 49 81 -54 100 18 b 249 313 133 106 193 219 b 361 514 276 358 336 467 b 410 658 400 590 410 624 b 350 726 410 699 394 717 b 264 711 319 732 296 728 b 171 589 215 686 174 632 b 178 564 171 572 171 569 b 231 553 189 551 222 546 z "},"J":{"ha":497,"x_min":0,"x_max":0,"o":"m 246 218 b 275 218 261 222 264 222 b 299 219 288 213 299 214 b 269 240 299 225 285 236 b 240 244 263 243 249 244 b 156 224 224 244 181 233 b 33 78 99 200 50 143 b 63 -42 22 26 31 -12 b 104 -64 76 -54 83 -58 b 300 -11 157 -79 240 -57 b 468 181 347 22 422 108 b 590 489 529 272 572 382 b 586 632 596 532 594 604 b 550 694 575 661 567 678 b 454 733 525 721 494 733 b 285 611 382 733 324 692 b 253 506 265 574 254 536 l 250 483 l 260 475 b 308 463 269 465 296 460 b 318 497 315 465 315 467 b 396 672 328 569 354 629 b 468 707 419 696 440 706 l 490 708 l 501 696 b 536 596 524 674 533 646 b 443 264 540 513 503 382 b 224 -1 394 169 292 44 b 126 -40 194 -22 154 -37 b 99 -32 110 -42 108 -42 b 97 103 68 -6 68 47 b 246 218 124 153 183 199 z "},"K":{"ha":419,"x_min":0,"x_max":0,"o":"m 163 315 b 47 67 99 199 61 117 b 28 -54 38 31 28 -24 b 35 -92 28 -79 29 -85 b 68 -111 44 -104 54 -111 b 81 -97 83 -111 86 -110 b 128 78 75 -78 90 -18 b 194 217 150 131 189 214 b 215 185 199 219 207 206 b 243 50 222 168 231 121 b 336 -110 258 -50 281 -89 b 413 -97 364 -121 394 -115 b 414 -86 419 -90 419 -89 b 385 -90 406 -79 400 -81 b 347 -89 367 -101 360 -100 b 313 31 328 -67 319 -37 b 274 192 304 108 293 160 b 251 218 269 197 260 210 l 236 232 l 258 238 b 356 276 294 247 339 265 b 482 396 378 292 451 361 b 592 540 525 444 550 476 b 682 707 635 601 678 683 b 650 731 685 725 675 732 b 593 658 640 729 628 714 b 471 476 553 593 501 519 b 268 278 407 392 314 301 b 217 258 247 268 214 256 b 301 410 226 276 274 360 b 389 638 371 538 389 586 b 374 694 389 665 386 676 b 246 722 350 731 289 743 b 181 660 225 711 197 685 b 122 519 156 625 125 550 b 126 499 121 507 121 504 b 158 488 133 493 149 488 b 181 514 169 488 175 493 b 226 621 190 546 210 593 b 290 693 243 651 272 683 b 311 667 307 700 310 697 b 290 568 313 638 306 606 b 163 315 276 535 204 393 z "},"L":{"ha":658,"x_min":0,"x_max":0,"o":"m 63 -79 b 176 -53 92 -87 132 -79 b 246 0 207 -35 218 -26 l 269 24 l 307 7 b 544 -31 406 -35 497 -49 b 621 86 626 -1 675 75 b 596 69 614 88 611 85 b 535 19 565 38 558 32 b 414 10 493 -3 469 -4 b 299 51 390 17 313 44 b 315 76 297 53 301 60 b 493 449 396 179 460 313 b 514 589 508 517 514 547 b 442 722 514 667 493 707 b 353 717 413 732 378 729 b 276 646 328 706 294 674 b 244 561 260 618 244 579 b 271 535 244 542 253 533 l 283 535 l 301 572 b 332 626 313 593 325 617 b 411 693 353 658 390 689 b 440 664 425 694 432 689 b 439 526 449 636 449 575 b 278 129 414 388 354 243 b 208 74 235 64 242 69 b 83 47 158 79 113 69 b 63 -79 19 1 10 -62 z m 192 42 l 214 42 l 188 14 b 108 -46 160 -15 138 -31 b 72 -56 90 -56 75 -58 b 76 -22 68 -51 71 -33 b 192 42 96 19 142 44 z "},"M":{"ha":797,"x_min":0,"x_max":0,"o":"m 68 -114 b 108 -118 82 -126 99 -128 b 196 78 113 -112 131 -74 b 381 454 224 142 350 400 b 507 647 424 531 478 614 b 568 697 528 672 549 689 b 588 700 582 704 583 704 b 586 619 594 693 594 647 b 464 331 576 579 538 489 b 385 121 413 221 393 169 b 399 43 376 63 378 51 b 433 46 411 38 421 39 b 461 86 444 50 447 54 b 493 150 471 104 485 133 b 749 579 542 261 683 499 b 881 694 793 635 865 697 b 871 593 893 693 888 644 b 761 328 860 560 804 424 b 656 63 693 175 674 124 b 638 -47 638 3 635 -12 b 660 -107 639 -85 644 -99 b 697 -101 679 -117 711 -111 b 704 -31 690 -96 693 -64 b 824 276 735 71 758 132 b 946 603 890 422 936 544 b 879 718 960 682 938 718 b 818 692 857 718 846 714 b 679 538 775 658 728 604 b 565 358 660 508 594 406 b 549 333 557 344 550 333 b 565 369 549 333 556 350 b 654 600 610 463 646 556 b 656 681 660 626 660 663 b 582 729 646 711 621 728 b 538 717 563 729 558 726 b 432 611 507 703 464 660 b 246 279 369 517 344 474 b 99 -43 175 139 124 26 b 89 -67 94 -56 90 -65 b 89 -33 88 -68 88 -53 b 100 38 90 -7 93 8 b 228 326 125 128 147 178 b 326 558 290 439 314 494 b 306 678 336 606 328 653 b 175 703 279 710 215 722 b 103 608 139 686 108 643 b 114 547 101 590 107 561 b 161 525 121 532 139 524 b 179 529 169 526 178 528 b 178 563 183 532 182 540 b 174 603 176 579 174 597 b 221 678 174 628 196 664 b 239 676 231 683 231 683 b 258 635 250 668 256 657 b 247 543 263 610 260 583 b 165 358 232 489 214 447 b 38 74 92 224 60 154 b 28 14 31 46 28 32 b 68 -114 28 -42 43 -92 z "},"N":{"ha":500,"x_min":0,"x_max":0,"o":"m 40 -100 b 47 -107 42 -100 46 -103 b 60 -115 50 -112 54 -115 b 83 -96 69 -117 71 -115 b 117 -42 92 -85 107 -60 b 172 49 128 -25 153 17 b 239 167 190 81 221 133 b 303 275 257 199 286 247 b 372 388 319 303 351 353 b 542 618 438 494 493 571 b 603 667 572 650 600 671 b 582 582 607 664 594 619 b 471 328 561 524 519 426 b 358 49 401 182 375 118 b 353 -50 346 -1 344 -14 b 386 -115 361 -89 369 -107 b 429 -118 400 -124 424 -125 b 425 -104 435 -112 433 -106 b 424 -18 413 -100 413 -75 b 558 303 439 50 460 100 b 667 618 636 463 667 554 b 650 681 667 654 664 667 b 603 697 639 692 624 697 b 524 640 585 697 569 686 b 339 390 468 585 411 507 b 282 297 321 361 296 321 b 214 182 267 275 238 222 b 160 89 190 142 167 100 b 128 35 154 79 139 54 b 108 3 118 18 110 6 b 217 221 124 49 158 119 b 332 457 281 332 308 388 b 357 589 353 517 357 539 b 324 706 357 653 347 682 b 258 728 307 721 289 728 b 213 718 233 728 229 726 b 136 642 189 707 150 667 b 115 558 122 615 114 583 b 154 511 118 528 128 517 b 185 535 183 507 194 515 b 181 563 182 542 181 553 b 207 642 181 585 193 622 b 265 693 228 672 256 697 b 276 675 267 693 272 685 b 283 618 281 661 282 651 b 271 513 285 575 282 554 b 136 231 249 438 214 363 b 36 32 81 136 56 86 b 28 -36 29 10 28 4 b 33 -90 28 -74 29 -82 b 40 -100 36 -94 39 -100 z "},"O":{"ha":419,"x_min":0,"x_max":0,"o":"m 136 276 l 118 246 b 29 29 72 169 36 81 b 39 -54 26 0 29 -35 b 103 -106 50 -81 72 -97 b 207 -83 143 -115 168 -110 b 419 210 278 -37 335 43 b 510 424 463 296 482 339 b 543 603 538 504 544 547 b 532 658 542 636 542 638 b 407 728 510 704 465 728 b 228 633 347 728 292 699 b 146 515 194 600 168 563 b 115 394 122 464 115 439 b 129 297 115 351 118 326 z m 163 192 l 176 214 l 201 190 b 297 126 239 153 276 128 b 304 143 324 125 326 132 b 214 236 288 150 233 207 l 201 254 l 232 311 b 264 372 250 342 264 369 b 229 388 263 379 246 388 b 204 375 218 388 215 385 b 185 350 199 368 189 357 b 175 342 181 343 176 339 b 174 383 174 343 172 360 b 183 450 175 418 175 425 b 281 610 204 508 240 568 b 403 694 325 656 367 685 b 454 689 428 700 438 700 b 493 581 483 671 493 643 b 451 383 494 521 483 471 b 253 11 403 250 318 92 b 146 -79 221 -29 178 -64 b 107 -81 132 -85 117 -86 b 96 -64 104 -78 99 -69 b 89 -18 90 -53 89 -47 b 113 86 89 19 93 35 b 163 192 126 122 143 153 z "},"P":{"ha":528,"x_min":0,"x_max":0,"o":"m 50 -96 b 83 -99 58 -101 79 -103 b 92 -94 85 -96 89 -94 b 113 -64 99 -93 101 -87 b 217 121 133 -18 204 107 b 242 121 219 125 224 125 b 344 117 271 114 315 113 b 447 151 378 121 419 136 b 540 242 475 169 515 207 b 689 679 639 375 715 600 b 643 724 681 700 664 717 b 551 688 608 733 588 726 b 331 368 486 617 446 560 b 204 165 258 250 206 165 b 186 192 201 165 186 188 b 228 268 186 194 206 229 b 368 556 333 453 351 490 b 358 672 382 604 378 643 b 249 708 340 697 285 715 b 188 675 224 703 208 694 b 142 601 165 653 150 628 b 136 554 136 585 135 578 b 153 508 138 524 140 515 b 211 507 174 499 206 499 b 207 533 213 510 210 521 b 203 576 201 554 200 558 b 238 649 207 603 219 628 b 283 676 254 665 271 676 b 297 604 297 676 304 642 b 190 363 286 547 269 510 b 72 135 99 190 88 169 b 29 15 53 92 33 39 b 36 -83 26 -8 31 -71 b 50 -96 39 -87 46 -93 z m 276 218 b 346 335 300 257 332 310 b 508 586 400 426 469 536 b 617 700 550 642 601 697 b 629 664 628 704 631 697 b 531 376 626 611 579 474 b 424 218 494 304 467 263 b 332 154 392 183 364 165 b 269 146 313 149 301 147 b 232 146 250 144 232 144 b 276 218 232 147 253 179 z m 92 -4 b 133 99 103 31 114 60 b 164 157 149 128 163 154 b 179 151 168 161 169 161 l 189 140 l 160 92 b 103 -11 143 65 117 19 b 75 -58 88 -40 75 -62 b 92 -4 75 -56 82 -31 z "},"Q":{"ha":425,"x_min":0,"x_max":0,"o":"m 118 321 l 133 290 l 124 272 b 32 46 88 211 44 103 b 32 -46 26 18 26 -28 b 111 -93 42 -78 68 -93 b 226 -39 147 -93 182 -78 l 244 -25 l 254 -40 b 301 -94 265 -57 294 -89 b 314 -99 304 -96 310 -97 b 326 -101 319 -100 325 -100 b 339 -92 331 -101 339 -96 b 325 -68 339 -90 332 -79 b 285 11 311 -49 286 -1 b 296 29 283 13 289 21 b 504 371 386 133 456 246 b 504 682 564 526 565 625 b 336 718 464 722 393 736 b 103 382 207 675 99 519 b 118 321 104 351 104 350 z m 171 451 b 351 681 197 550 271 643 b 400 694 374 692 381 694 b 435 689 418 696 424 696 b 496 590 465 675 488 639 b 496 529 499 568 499 558 b 347 161 486 428 425 275 b 268 60 326 129 272 61 b 261 68 267 58 264 63 b 244 85 258 75 253 81 b 203 88 232 90 208 92 b 211 38 196 83 199 67 l 225 10 l 211 -3 b 133 -57 189 -22 153 -47 b 103 -67 124 -61 110 -65 b 88 -60 92 -68 90 -67 b 114 88 78 -36 88 22 b 179 222 128 121 174 215 b 194 214 181 224 188 221 b 228 200 208 203 219 199 b 217 228 236 203 235 210 b 199 250 208 238 200 247 b 233 317 197 253 207 271 b 271 383 254 350 271 381 b 235 400 268 393 254 400 b 204 390 215 401 215 401 b 179 361 199 385 188 371 l 167 340 l 164 350 b 171 451 160 367 164 425 z "},"R":{"ha":606,"x_min":0,"x_max":0,"o":"m 56 -132 b 83 -128 69 -139 81 -136 b 217 129 93 -107 214 131 b 235 90 218 129 226 113 b 376 -122 290 -50 326 -103 b 444 -128 397 -131 426 -132 b 547 -36 479 -119 519 -83 b 599 63 576 13 600 58 b 589 65 597 65 593 67 b 535 -6 581 65 578 63 b 414 -108 488 -78 451 -108 b 385 -96 400 -108 397 -107 b 331 13 368 -82 354 -56 b 278 142 306 79 292 113 b 269 163 272 151 269 161 b 304 168 269 163 285 165 b 468 215 368 175 439 196 b 632 396 518 247 594 332 b 686 614 672 465 694 557 b 613 696 678 663 657 686 b 556 689 589 701 578 699 b 419 554 517 671 475 628 b 254 275 381 501 326 411 b 218 219 229 229 224 219 b 213 222 215 221 213 221 b 246 289 211 222 226 253 b 344 544 299 397 326 469 b 307 710 363 625 350 682 b 204 718 278 731 235 733 b 124 621 174 704 140 663 b 128 483 100 560 103 501 b 189 471 144 472 176 465 b 186 490 197 474 196 485 b 171 538 176 497 171 511 b 222 665 171 585 189 632 b 260 694 239 685 253 694 b 279 653 265 694 276 671 b 219 407 288 608 263 510 b 108 182 204 371 158 276 b 35 13 67 100 43 44 b 31 -97 29 -15 26 -82 b 56 -132 35 -114 44 -128 z m 396 461 b 515 617 428 513 471 571 b 604 671 542 646 592 675 b 613 558 618 665 622 606 b 460 286 593 463 539 367 b 315 200 411 235 382 218 b 250 192 275 190 253 188 b 396 461 247 197 353 393 z m 107 13 b 158 121 117 35 139 85 b 196 185 189 182 193 189 b 200 176 199 182 200 178 b 153 79 200 174 179 131 b 96 -37 128 29 101 -24 b 107 13 74 -83 82 -49 z "},"S":{"ha":403,"x_min":0,"x_max":0,"o":"m 101 -107 b 204 -106 133 -111 181 -111 b 331 -33 251 -96 290 -75 b 369 15 351 -12 360 -1 b 318 218 396 71 390 97 b 257 367 276 289 264 321 b 314 514 254 403 275 460 b 513 688 358 578 453 660 b 539 674 535 697 539 696 b 513 593 539 656 532 635 b 431 479 489 546 465 513 b 406 444 407 454 403 449 b 446 450 411 438 431 440 b 563 600 479 471 517 518 b 596 685 594 657 597 664 b 586 710 594 697 593 701 b 486 728 568 728 524 738 b 290 600 432 715 354 664 b 181 389 224 533 181 451 b 254 213 182 339 199 300 b 319 63 313 121 321 100 b 272 -24 317 33 301 6 b 135 -85 226 -69 192 -85 b 75 -68 99 -85 89 -82 b 94 4 60 -51 67 -26 b 189 74 108 21 151 53 b 197 92 203 82 206 88 b 117 63 186 96 163 88 b 29 -43 69 36 33 -6 b 38 -72 28 -56 29 -58 b 101 -107 49 -89 75 -103 z "},"T":{"ha":282,"x_min":0,"x_max":0,"o":"m 57 -89 b 157 -58 82 -99 113 -89 b 253 117 203 -29 206 -22 b 350 381 290 228 329 331 b 444 568 378 447 421 532 b 524 651 468 603 504 642 b 626 672 543 661 590 669 b 719 697 661 674 693 683 b 775 746 736 704 768 733 b 739 808 792 774 772 808 b 724 793 728 808 724 806 b 722 781 724 789 724 785 b 715 764 719 778 718 771 b 574 701 706 725 642 697 b 426 722 544 704 468 714 b 279 726 393 728 318 731 b 157 669 206 718 172 703 b 156 650 151 658 150 657 b 185 635 160 643 175 635 b 206 651 188 635 196 643 b 238 676 215 663 229 672 b 457 686 276 694 375 699 l 501 679 l 485 672 b 190 128 381 636 283 456 b 128 -31 158 17 150 -7 b 69 -69 111 -47 83 -67 b 54 -64 63 -71 60 -69 b 28 -60 44 -56 28 -53 b 57 -89 28 -68 44 -85 z "},"U":{"ha":457,"x_min":0,"x_max":0,"o":"m 414 -85 b 401 -75 413 -82 408 -78 b 382 -4 383 -67 381 -57 b 390 76 382 39 382 46 b 617 540 417 175 496 338 b 686 699 696 674 701 686 b 647 703 676 706 656 708 b 558 585 636 696 603 651 b 453 407 513 515 488 472 b 314 210 429 361 410 333 b 154 10 261 142 178 36 b 104 -37 133 -14 113 -33 b 93 -31 99 -42 97 -40 b 115 113 83 -1 92 53 b 244 347 142 181 174 238 b 358 561 311 450 338 501 b 331 711 383 638 375 685 b 213 715 297 731 244 732 b 136 618 192 704 150 649 b 118 508 119 575 110 521 b 176 490 128 494 158 485 l 186 493 l 186 522 b 207 614 186 558 190 581 b 261 686 219 640 247 676 b 281 692 265 689 274 692 b 304 657 296 692 303 682 b 283 563 307 633 300 606 b 144 318 260 507 236 464 b 36 90 93 238 53 151 b 31 -1 29 61 26 19 b 99 -67 39 -40 64 -64 b 192 10 128 -68 133 -64 b 344 207 247 81 307 156 b 374 244 360 228 372 244 b 365 221 375 246 371 236 b 343 158 360 207 349 178 b 339 -46 313 68 311 8 b 371 -82 350 -68 356 -75 b 414 -85 390 -92 415 -93 z "},"V":{"ha":303,"x_min":0,"x_max":0,"o":"m 99 -35 b 92 -40 94 -44 94 -44 b 90 0 90 -36 90 -19 b 97 69 90 26 92 40 b 204 357 115 144 144 222 b 292 585 264 488 281 531 b 269 708 300 636 293 685 b 176 728 250 728 207 738 b 97 665 138 717 115 699 b 100 536 67 606 68 553 b 139 532 114 531 129 528 b 139 554 144 533 144 540 b 172 671 128 582 144 640 b 206 692 185 685 201 694 b 215 635 211 689 215 663 b 133 378 215 583 192 511 b 38 124 90 281 56 188 b 33 11 26 82 26 57 b 76 -65 43 -43 53 -61 b 92 -69 85 -67 90 -69 b 121 -68 94 -75 115 -72 b 185 39 128 -60 169 8 b 222 110 190 53 207 85 b 501 549 303 260 433 463 b 688 721 571 633 636 694 b 753 739 706 729 738 739 b 808 711 772 739 793 728 b 829 696 818 699 824 696 b 826 740 850 696 847 721 b 696 765 794 765 744 775 b 517 650 636 753 585 719 b 221 213 421 550 338 428 b 99 -35 181 142 126 31 z "},"W":{"ha":656,"x_min":0,"x_max":0,"o":"m 622 294 b 454 -32 543 113 489 4 b 399 -74 442 -47 413 -68 b 374 -71 389 -78 374 -76 b 368 -64 375 -69 372 -65 b 353 -15 360 -57 357 -47 b 354 101 349 22 349 69 b 456 393 364 161 400 265 b 464 417 460 403 464 414 b 433 431 464 422 449 429 b 413 422 422 431 419 429 b 335 275 394 406 356 332 b 228 90 319 236 285 176 b 93 -75 157 -14 117 -62 l 81 -82 l 78 -74 b 104 54 71 -56 83 4 b 178 192 122 99 133 117 b 321 450 256 321 296 394 b 338 700 375 572 381 660 b 282 726 324 715 307 722 b 201 679 240 733 222 722 b 186 594 186 649 182 628 b 236 533 192 549 203 535 b 256 554 258 533 261 536 b 254 635 249 576 249 614 b 275 675 260 656 272 679 b 281 571 285 667 286 613 b 126 219 268 499 238 429 b 31 -12 61 99 38 40 b 64 -99 24 -60 35 -90 b 183 -15 101 -110 131 -90 b 289 142 214 26 269 110 b 297 147 299 157 299 157 b 294 38 293 119 292 60 b 325 -60 299 11 315 -43 b 358 -90 331 -71 344 -82 b 393 -94 363 -93 375 -94 b 442 -85 419 -94 424 -94 b 515 -29 467 -74 499 -49 b 711 324 561 26 643 175 b 860 601 771 453 821 547 b 936 675 881 629 918 667 b 981 681 950 682 953 682 b 985 707 1007 679 1010 694 b 901 711 969 715 925 718 b 821 658 871 701 853 690 b 622 294 760 599 724 532 z "},"X":{"ha":603,"x_min":0,"x_max":0,"o":"m 292 265 l 289 231 l 233 136 b 103 -78 163 15 111 -68 b 58 -99 90 -90 69 -100 b 28 -99 33 -93 28 -93 b 54 -117 29 -106 42 -114 b 65 -119 58 -118 64 -119 b 117 -104 72 -121 104 -112 b 260 71 154 -86 181 -51 l 292 121 l 296 97 b 383 -50 313 26 343 -26 b 514 -36 424 -74 475 -69 b 594 71 535 -19 575 35 b 599 89 601 83 601 86 b 558 56 589 94 585 90 b 442 -42 515 -4 474 -37 b 414 -29 429 -43 428 -43 b 372 47 397 -14 381 17 b 364 214 363 83 360 151 l 365 240 l 389 276 b 450 374 401 296 429 340 b 706 701 568 564 654 674 b 722 700 715 707 715 707 b 751 703 731 693 743 693 b 751 715 756 707 756 708 b 701 732 744 726 729 732 b 661 724 681 732 675 731 b 549 622 629 708 588 671 b 413 428 506 568 456 499 b 385 389 397 406 385 388 b 393 446 385 392 389 417 b 385 703 421 611 419 668 b 338 728 372 718 358 724 b 283 725 314 732 306 732 b 185 607 238 711 201 668 b 186 528 176 578 178 539 b 229 514 196 518 208 514 b 251 547 256 514 257 518 b 288 682 243 593 258 654 b 329 701 300 694 321 704 b 344 651 338 699 343 682 b 321 478 346 615 343 594 b 292 265 303 375 294 318 z "},"Y":{"ha":458,"x_min":0,"x_max":0,"o":"m 146 94 b 97 100 146 107 114 110 b 71 49 86 92 74 68 b 92 -14 68 31 78 3 b 153 -40 101 -25 121 -33 b 215 -39 169 -43 200 -43 b 413 151 276 -19 336 36 b 582 719 569 388 658 679 b 524 717 563 729 538 728 b 471 622 519 713 497 674 b 257 293 364 411 300 313 b 225 304 240 286 232 289 b 231 389 217 324 218 356 b 301 531 246 432 257 454 b 376 715 364 640 376 669 b 368 758 376 739 375 743 b 314 797 357 781 340 792 b 236 792 289 801 254 799 b 185 732 217 782 197 760 b 163 642 168 699 163 678 b 182 589 163 606 165 597 b 238 589 194 582 231 582 b 236 606 242 594 242 594 b 228 632 233 611 229 624 b 247 725 225 653 236 699 b 299 765 263 754 289 775 b 308 717 307 760 311 738 b 232 535 306 678 290 642 b 164 356 189 457 164 390 b 193 285 164 331 178 296 b 314 304 231 256 276 264 b 463 563 340 332 393 424 b 508 651 488 611 508 650 b 519 668 511 651 515 660 b 549 701 531 689 544 704 b 546 622 554 699 551 653 b 426 310 529 549 481 419 b 319 125 393 243 364 190 b 189 -14 269 49 231 8 b 153 -21 168 -24 168 -24 b 117 7 133 -17 119 -6 b 139 79 114 25 122 56 b 146 94 143 86 146 93 z "},"Z":{"ha":433,"x_min":0,"x_max":0,"o":"m 49 -90 b 147 -71 68 -82 115 -74 b 208 -74 160 -69 183 -71 b 304 -78 276 -81 279 -81 b 375 -50 336 -74 358 -67 b 401 7 396 -32 403 -17 b 372 61 400 35 390 51 b 349 68 364 67 354 68 l 339 67 l 338 44 b 293 -36 333 7 317 -24 b 194 -44 271 -47 249 -49 b 132 -42 168 -43 140 -42 b 46 -65 114 -44 68 -57 b 26 -67 31 -69 26 -71 b 57 -3 26 -58 44 -21 b 100 60 65 7 83 35 b 192 178 133 110 154 138 b 360 326 226 217 265 251 b 526 474 457 404 492 435 b 604 669 604 561 628 619 b 561 711 594 689 585 699 b 471 728 535 724 510 728 b 368 704 431 728 404 722 b 269 610 322 683 290 651 b 250 511 254 579 249 550 b 274 456 251 476 257 464 b 319 454 285 450 313 450 b 321 478 325 458 325 460 b 331 608 311 515 315 578 b 433 693 350 644 389 678 b 524 693 465 703 501 704 b 551 640 543 683 551 668 b 539 594 551 622 550 617 b 444 474 518 554 500 531 b 326 368 408 438 371 404 b 168 232 218 279 204 267 b 28 63 111 178 58 115 b -12 -56 11 35 -12 -33 b 7 -90 -14 -75 -10 -81 b 49 -90 24 -99 28 -99 z "},"a":{"ha":283,"x_min":0,"x_max":0,"o":"m 271 140 b 286 190 279 165 286 188 b 267 206 286 197 276 206 b 260 226 261 206 261 206 b 257 261 260 239 258 254 b 153 285 249 296 199 307 b 72 201 126 272 89 235 b 46 15 25 117 15 47 b 129 18 68 -7 101 -6 b 161 56 138 25 151 42 b 181 83 171 69 179 82 b 182 67 182 85 182 78 b 200 7 179 40 186 19 b 219 -6 207 1 215 -4 b 231 -8 224 -7 229 -7 b 292 11 244 -12 274 -4 b 393 153 317 31 399 146 b 368 138 389 161 381 156 b 269 22 338 90 292 38 b 243 36 249 8 243 11 b 271 140 243 56 253 88 z m 215 175 b 119 42 194 135 144 65 b 99 25 111 35 101 28 b 92 39 93 22 92 22 b 129 150 92 64 106 101 b 193 247 154 197 175 231 l 206 260 l 213 250 b 215 175 229 228 231 201 z "},"b":{"ha":318,"x_min":0,"x_max":0,"o":"m 558 761 b 440 750 526 771 476 765 b 238 533 379 724 303 642 b 28 32 146 385 28 100 b 51 4 28 8 29 6 b 94 47 71 1 71 3 b 188 167 129 114 151 143 b 221 158 211 182 214 182 b 224 83 225 143 226 94 b 203 72 222 81 215 76 b 161 53 194 68 175 60 b 114 17 140 42 131 33 b 82 -25 101 3 88 -15 b 68 -92 69 -47 64 -76 b 100 -125 72 -107 86 -122 b 286 50 167 -140 249 -64 l 296 79 l 333 86 b 421 111 378 96 408 104 b 406 119 439 122 428 126 b 303 100 394 115 313 100 b 297 118 299 100 297 103 b 168 190 294 199 232 232 b 147 175 158 182 147 176 b 154 194 146 175 149 183 b 174 238 158 204 167 224 b 199 290 179 251 190 275 l 213 319 l 240 319 b 364 360 279 321 311 331 b 469 443 399 378 428 401 b 583 594 517 492 561 551 b 606 715 604 638 614 688 b 558 761 600 736 581 756 z m 189 -17 b 132 -97 171 -53 149 -85 b 101 -96 117 -108 108 -107 b 100 -49 94 -85 94 -69 b 188 44 111 -12 146 25 b 215 56 203 51 215 57 b 189 -17 218 54 203 15 z m 553 618 b 499 528 543 594 524 561 b 374 401 479 500 403 422 b 274 349 353 385 301 358 b 240 340 265 346 250 342 l 224 339 l 232 354 b 268 421 236 363 251 393 b 501 728 361 589 444 697 b 553 618 556 754 583 693 z "},"c":{"ha":222,"x_min":0,"x_max":0,"o":"m 174 246 b 189 203 179 247 189 219 b 208 182 189 185 193 181 b 225 194 218 183 219 185 b 231 231 228 201 231 214 b 214 279 232 260 229 269 b 124 278 197 292 147 290 b 69 224 106 269 88 251 b 47 46 24 153 15 83 b 92 18 60 32 74 22 b 228 60 132 10 182 24 b 304 139 253 81 271 97 b 346 196 349 193 349 194 b 279 140 339 200 332 193 b 139 42 215 75 175 47 b 108 51 122 40 114 43 b 128 181 93 75 100 126 b 174 246 140 206 168 244 z "},"d":{"ha":386,"x_min":0,"x_max":0,"o":"m 446 83 b 497 178 508 176 508 178 b 426 90 493 178 454 131 b 310 -29 374 17 333 -25 b 293 -22 303 -31 300 -31 b 285 65 281 -6 276 24 b 313 139 290 92 292 99 b 338 194 319 154 332 179 b 407 343 354 232 390 310 l 419 371 l 447 371 b 571 411 488 372 518 382 b 676 494 607 429 635 453 b 790 646 724 543 768 603 b 814 767 813 689 821 739 b 765 813 807 788 788 807 b 647 801 735 822 683 817 b 444 585 588 775 511 693 b 281 242 392 499 325 360 l 264 200 l 261 211 b 215 258 254 239 240 251 b 76 176 163 275 110 243 b 53 21 40 108 33 54 b 129 3 64 -1 101 -10 b 210 81 144 11 175 40 b 233 104 224 96 235 107 b 231 10 226 78 225 31 b 292 -49 239 -18 264 -43 b 446 83 339 -57 372 -31 z m 482 400 b 447 392 472 397 457 393 l 432 390 l 439 406 b 475 472 443 414 460 444 b 710 779 568 640 651 749 b 760 669 763 806 792 744 b 706 579 750 646 731 613 b 482 400 688 551 510 421 z m 215 122 b 114 24 181 81 129 31 b 100 18 107 21 100 18 b 97 71 93 18 93 47 b 189 231 110 122 160 210 b 207 233 200 238 201 238 b 238 161 222 224 238 186 b 215 122 238 150 236 147 z "},"e":{"ha":258,"x_min":0,"x_max":0,"o":"m 113 110 b 164 111 131 104 150 106 b 219 179 182 119 203 144 b 236 231 235 207 236 211 b 217 278 238 256 232 267 b 161 288 206 285 178 289 b 107 263 146 286 119 275 b 33 143 82 240 43 179 b 35 71 26 121 28 89 b 113 3 44 40 81 11 b 186 7 135 -1 165 0 b 293 89 218 19 243 38 b 368 178 351 149 374 174 b 321 146 360 182 354 179 b 172 36 250 76 215 51 b 119 32 143 25 132 25 b 94 88 106 42 96 63 b 113 110 93 114 94 115 z m 121 156 b 133 193 121 171 122 176 b 189 256 150 222 176 251 b 204 226 196 258 204 244 b 147 135 204 196 174 149 b 121 156 128 124 121 129 z "},"f":{"ha":358,"x_min":0,"x_max":0,"o":"m 411 765 b 219 490 346 706 283 617 b 118 264 176 407 157 363 b -10 -146 64 128 43 63 b -42 -361 -32 -233 -42 -300 b -21 -461 -42 -418 -36 -443 b 0 -476 -14 -468 -4 -475 b 24 -479 6 -478 15 -479 b 51 -467 36 -479 39 -478 b 122 -314 76 -443 99 -394 b 175 -10 151 -214 174 -85 b 165 56 175 32 175 33 b 156 79 160 68 156 78 b 169 75 156 79 163 78 b 250 65 185 67 225 63 b 428 156 303 74 356 99 b 454 179 442 167 454 178 b 431 178 454 185 442 183 b 381 147 424 174 401 160 b 274 93 336 118 306 103 b 179 96 226 81 204 81 b 150 140 165 106 150 128 b 240 354 150 156 201 279 l 253 382 l 281 382 b 404 422 321 383 351 393 b 510 506 439 440 468 464 b 599 617 549 546 569 572 b 639 696 621 651 629 665 b 628 806 657 749 653 782 b 557 828 610 822 593 828 b 411 765 503 828 463 810 z m 126 -118 b 83 -315 118 -187 101 -260 b 28 -433 72 -350 42 -415 b 17 -446 24 -439 18 -446 b 14 -361 13 -446 10 -401 b 63 -121 19 -292 31 -236 b 119 65 96 -1 118 69 b 126 40 121 63 124 53 b 126 -118 133 13 133 -68 z m 593 681 b 539 590 583 657 564 624 b 414 464 521 563 443 485 b 314 411 393 447 343 421 b 281 403 306 408 290 404 l 265 401 l 272 417 b 308 483 276 425 293 456 b 542 790 401 651 485 760 b 593 681 596 817 625 756 z "},"g":{"ha":357,"x_min":0,"x_max":0,"o":"m 67 19 b 85 6 72 14 81 8 b 140 1 99 0 128 -3 b 194 51 154 6 175 24 b 215 76 215 79 218 82 b 176 -40 199 21 179 -37 b 101 -72 175 -43 169 -44 b -7 -122 46 -94 26 -103 b -215 -329 -115 -185 -192 -260 b -215 -422 -224 -356 -224 -399 b -143 -476 -204 -449 -181 -465 b -56 -475 -121 -482 -82 -482 b 122 -339 8 -458 67 -414 b 242 -99 172 -272 192 -233 b 268 -25 257 -58 268 -25 b 294 -8 269 -25 282 -18 b 403 79 335 17 367 42 b 482 174 432 108 482 167 b 478 179 482 175 481 176 b 414 125 474 182 465 174 b 294 21 358 69 322 38 b 282 17 288 15 282 14 b 301 82 282 18 290 47 b 319 167 324 158 324 158 b 293 185 317 175 303 185 b 288 190 290 185 288 186 b 286 197 288 193 288 197 b 282 221 285 199 283 208 b 260 275 281 246 275 261 b 203 294 242 290 232 294 b 136 269 172 294 161 290 b 67 19 60 206 21 63 z m 110 -225 b 40 -343 88 -276 72 -301 b -75 -440 0 -396 -31 -422 b -119 -451 -92 -447 -103 -450 b -165 -437 -143 -453 -151 -450 b -178 -344 -181 -422 -189 -376 b 54 -126 -157 -271 -69 -189 b 163 -81 97 -106 161 -78 b 110 -225 164 -85 126 -189 z m 221 256 b 253 194 232 256 250 224 l 254 179 l 233 150 b 151 49 203 107 168 64 b 118 31 133 33 121 26 b 154 161 111 42 131 110 b 221 256 172 199 213 256 z "},"h":{"ha":429,"x_min":0,"x_max":0,"o":"m 510 135 b 451 63 501 135 499 131 b 336 -82 400 -10 368 -50 b 274 -128 303 -115 282 -131 b 269 -103 271 -126 269 -121 b 299 1 269 -75 279 -43 b 361 183 358 131 364 146 b 356 214 360 196 358 208 b 240 251 340 250 290 267 b 169 208 215 244 193 231 b 153 196 161 201 153 194 b 201 299 153 197 189 276 l 213 322 l 240 322 b 364 363 279 324 311 333 b 469 446 399 381 428 404 b 583 597 517 494 561 554 b 606 718 604 640 614 690 b 558 764 600 739 581 758 b 440 753 526 774 476 768 b 238 536 379 726 303 644 b 28 35 146 388 28 103 b 47 7 28 13 29 10 b 85 31 67 4 71 7 b 199 192 125 103 164 158 b 269 235 224 218 243 228 b 292 231 285 238 285 238 b 297 200 299 225 299 224 b 250 65 296 169 288 144 b 211 -28 235 31 217 -11 b 256 -154 188 -99 204 -144 b 343 -114 286 -160 310 -149 b 456 33 372 -82 396 -51 b 518 129 518 124 518 124 b 510 135 518 133 517 135 z m 232 357 b 268 424 236 365 251 396 b 501 731 361 592 444 700 b 553 621 556 757 583 696 b 499 531 543 597 524 564 b 374 404 479 503 403 425 b 274 351 353 388 301 361 b 240 343 265 349 250 344 l 224 342 z "},"i":{"ha":244,"x_min":0,"x_max":0,"o":"m 190 328 b 207 325 193 326 200 326 b 224 333 218 325 219 326 b 247 368 225 338 236 353 b 272 408 271 399 274 403 b 215 428 268 421 233 432 b 186 390 200 425 196 419 b 190 328 172 353 174 333 z m 368 190 b 350 186 363 196 357 194 b 218 50 304 132 246 71 b 136 25 185 24 147 13 b 125 42 133 28 129 36 b 172 225 110 74 124 129 l 194 272 l 188 278 b 140 289 176 288 153 292 b 43 104 103 278 46 171 b 68 31 42 71 47 54 b 124 -4 86 11 100 1 b 204 4 151 -11 178 -8 b 256 44 222 13 232 21 b 356 165 285 74 329 126 b 368 190 368 182 369 188 z "},"j":{"ha":176,"x_min":0,"x_max":0,"o":"m 151 335 b 185 335 164 331 179 331 b 229 421 193 342 231 415 b 196 442 228 429 213 439 b 157 432 178 444 167 442 b 131 367 147 424 132 385 b 136 344 129 354 131 350 b 151 335 140 340 147 336 z m 311 218 b 247 164 307 221 299 213 b 128 60 192 108 156 76 b 115 54 121 56 115 53 b 160 199 115 61 144 153 b 175 254 168 224 175 249 b 160 285 175 265 167 282 b 99 239 126 299 117 290 b 68 157 93 225 79 189 b 29 51 56 126 38 79 b 10 -1 19 25 11 0 b -65 -33 8 -4 3 -6 b -174 -83 -121 -56 -140 -64 b -382 -290 -282 -146 -358 -221 b -382 -383 -390 -317 -390 -360 b -310 -437 -371 -410 -347 -426 b -222 -436 -287 -443 -249 -443 b -44 -300 -158 -419 -100 -375 b 75 -60 6 -233 25 -194 b 101 14 90 -19 101 14 b 128 31 103 14 115 21 b 236 118 168 56 200 81 b 315 213 265 147 315 206 b 311 218 315 214 314 215 z m -57 -186 b -126 -304 -79 -237 -94 -262 b -242 -401 -167 -357 -197 -383 b -286 -412 -258 -408 -269 -411 b -332 -399 -310 -414 -318 -411 b -344 -306 -347 -383 -356 -337 b -112 -87 -324 -232 -236 -150 b -4 -42 -69 -67 -6 -39 b -57 -186 -3 -46 -40 -150 z "},"k":{"ha":435,"x_min":0,"x_max":0,"o":"m 128 156 b 196 306 143 194 179 272 l 210 333 l 236 333 b 361 372 276 333 308 343 b 465 457 396 392 424 414 b 579 608 513 504 557 565 b 603 728 601 650 610 700 b 554 775 597 749 576 768 b 436 764 524 783 472 779 b 233 546 376 738 300 656 b 117 317 197 488 154 403 b -3 -68 117 317 -1 19 b 11 -92 -4 -78 1 -87 b 46 -85 24 -99 38 -94 b 67 -51 51 -76 58 -65 b 139 63 93 -3 133 63 b 163 31 143 63 156 44 b 172 -32 168 19 171 1 b 178 -86 175 -57 176 -82 b 218 -128 183 -103 200 -119 b 299 -122 250 -142 269 -140 b 342 -86 311 -114 331 -97 b 449 54 360 -65 372 -47 b 494 114 463 74 483 101 b 514 142 506 128 514 140 b 507 146 514 143 511 144 b 435 65 497 150 489 139 b 269 -111 346 -53 311 -90 b 240 -117 251 -122 250 -122 b 222 -39 225 -106 221 -90 b 214 25 224 3 222 10 b 197 50 210 33 201 44 b 193 57 194 53 192 56 b 376 203 326 65 386 161 b 324 246 367 246 324 246 b 324 246 324 246 324 246 b 318 247 322 247 319 247 b 82 36 267 257 154 157 b 72 21 78 31 75 26 b 101 100 86 61 99 96 b 128 156 110 115 121 140 z m 229 368 b 264 435 233 376 249 407 b 499 740 357 601 440 711 b 549 632 551 768 581 706 b 496 540 539 608 519 575 b 371 414 476 514 399 436 b 271 363 349 397 299 371 b 238 354 261 358 246 356 l 221 353 z m 193 57 b 196 60 193 58 193 58 z m 151 82 b 275 206 171 114 233 176 b 313 219 304 226 310 229 b 235 115 319 200 282 149 b 175 85 213 99 203 93 b 151 82 149 76 149 76 z "},"l":{"ha":272,"x_min":0,"x_max":0,"o":"m 139 161 b 160 213 150 189 160 211 b 208 319 160 215 193 290 l 222 347 l 249 347 b 374 388 289 349 321 358 b 478 471 408 406 438 429 b 593 622 525 519 571 579 b 615 743 614 665 624 715 b 568 789 610 764 590 783 b 449 778 536 799 486 793 b 246 561 389 751 314 671 b 138 350 219 518 165 414 b 38 88 99 263 51 138 b 32 -15 29 51 26 10 b 100 -87 40 -49 67 -78 b 133 -92 107 -89 122 -92 b 169 -83 150 -92 156 -90 b 300 51 207 -65 250 -21 b 346 114 313 69 333 97 b 368 146 358 131 368 144 b 353 150 368 149 358 151 b 268 54 347 147 306 100 b 135 -65 217 -10 168 -54 b 114 -61 122 -69 122 -69 b 94 25 96 -44 89 -17 b 139 161 99 58 110 94 z m 242 382 b 278 449 246 390 261 421 b 511 756 369 617 453 725 b 563 646 565 782 593 721 b 508 556 551 622 533 589 b 383 429 489 528 413 450 b 283 376 363 413 311 386 b 250 368 274 374 260 369 l 233 367 z "},"m":{"ha":733,"x_min":0,"x_max":0,"o":"m 529 49 b 535 10 528 25 528 22 b 556 -11 539 3 547 -6 b 594 -18 567 -18 571 -18 b 636 -10 617 -18 622 -18 b 790 113 665 4 701 33 b 822 143 797 119 813 133 b 851 168 835 153 847 164 b 850 181 860 174 860 181 b 749 106 843 181 793 143 b 622 14 688 53 653 28 b 592 11 600 4 594 4 b 614 96 589 18 590 24 b 639 201 639 176 640 182 b 596 246 636 226 622 240 b 539 229 575 249 565 246 b 433 122 515 214 465 164 b 396 81 421 108 404 89 b 354 56 381 65 357 53 b 388 160 351 58 367 103 b 435 328 431 269 439 300 b 388 374 431 358 417 371 b 358 368 374 375 369 374 b 249 219 333 353 322 338 b 140 65 214 165 172 104 b 93 14 119 38 96 14 b 106 82 88 14 93 44 b 160 226 119 126 135 165 b 179 278 171 250 179 274 b 143 294 179 288 164 294 b 113 283 125 294 124 294 b 36 111 93 261 53 169 b 35 4 26 74 26 22 b 67 -19 43 -10 51 -17 b 126 -1 93 -25 106 -21 b 260 196 142 14 211 115 b 332 307 313 281 317 288 b 357 335 340 318 351 331 l 365 340 l 364 333 b 343 279 363 328 353 304 b 289 118 317 215 294 150 l 283 92 l 292 71 b 363 32 306 36 328 24 b 458 107 400 40 414 51 b 550 199 489 144 522 178 b 569 208 564 208 569 211 b 540 106 571 204 565 188 b 529 49 533 83 529 65 z "},"n":{"ha":514,"x_min":0,"x_max":0,"o":"m 144 -11 b 288 217 181 7 203 42 b 347 308 311 264 325 286 b 397 339 363 324 393 343 b 401 326 397 339 400 332 b 379 232 406 308 397 278 b 349 158 369 210 357 178 b 322 31 324 99 315 56 b 397 -15 331 3 358 -14 b 439 -4 415 -15 421 -14 b 565 107 469 11 511 49 b 625 167 590 135 618 163 b 638 178 632 172 638 176 b 622 181 639 181 626 183 b 528 103 594 164 560 135 b 425 22 489 63 458 39 b 389 19 401 10 393 8 b 428 136 385 29 393 54 b 475 301 465 225 476 267 b 400 367 471 343 444 365 b 315 318 367 367 346 356 b 251 214 292 290 276 265 b 124 19 188 89 153 35 b 108 19 113 13 113 13 b 110 83 103 26 103 58 b 189 250 122 132 158 207 b 197 268 193 257 197 265 b 140 286 197 282 164 292 b 86 233 125 282 107 264 b 35 28 39 158 17 74 b 97 -17 44 4 68 -12 b 144 -11 118 -19 131 -18 z "},"o":{"ha":297,"x_min":0,"x_max":0,"o":"m 225 79 l 232 99 l 278 99 b 392 122 331 99 354 104 b 421 146 417 136 424 140 b 381 139 417 150 406 149 b 250 118 333 119 281 111 b 243 128 242 119 242 121 b 249 157 243 132 246 146 b 254 208 251 169 254 192 b 247 254 254 235 253 240 b 171 293 233 282 206 297 b 94 218 131 289 100 258 b 81 189 93 208 89 200 b 36 94 64 167 43 121 b 33 17 28 65 26 31 b 75 -17 43 -1 56 -11 b 108 -19 79 -18 94 -19 b 147 -14 128 -19 138 -18 b 225 79 172 -3 207 39 z m 154 243 b 186 267 165 263 175 271 b 210 232 196 264 206 249 b 210 149 215 218 214 169 b 201 132 207 139 204 133 b 154 160 194 131 158 151 b 163 183 153 164 154 168 b 157 217 176 206 176 210 b 154 243 146 219 146 224 z m 115 6 b 108 13 114 6 111 8 b 124 113 99 25 106 72 b 135 131 129 122 133 131 b 182 114 153 121 168 115 b 183 76 201 110 201 111 b 131 15 171 51 150 26 b 115 6 124 10 117 6 z "},"p":{"ha":376,"x_min":0,"x_max":0,"o":"m 163 63 l 171 54 b 185 40 174 49 181 43 b 283 44 204 31 257 33 b 353 133 310 57 333 86 b 339 292 386 217 382 269 b 283 293 319 301 297 303 b 218 207 272 288 250 257 b 94 -32 181 147 158 106 b -82 -376 6 -221 -49 -325 b -83 -353 -94 -393 -94 -390 b 18 -132 -67 -293 -37 -232 b 113 51 64 -50 85 -10 b 160 226 149 128 160 174 b 114 293 160 278 150 293 b 86 278 99 293 89 288 b 81 232 86 272 83 253 b 57 126 76 194 67 151 b -58 -122 36 74 -6 -18 b -153 -381 -135 -278 -153 -324 b -147 -418 -153 -404 -153 -408 b -132 -433 -143 -424 -136 -431 b -108 -437 -128 -435 -118 -437 b -65 -406 -89 -437 -83 -433 b 139 11 -44 -376 71 -142 z m 185 104 b 283 256 224 175 260 231 b 303 267 299 269 300 271 b 306 238 304 264 306 251 b 293 179 306 218 304 210 b 225 64 274 119 247 75 b 199 65 210 56 207 56 b 181 75 193 69 185 75 l 171 78 z "},"q":{"ha":451,"x_min":0,"x_max":0,"o":"m 261 225 b 201 290 257 267 238 288 b 140 271 175 293 160 288 b 47 76 101 235 64 158 b 93 -29 35 13 49 -21 b 167 21 126 -36 143 -24 b 244 140 179 46 229 124 b 263 165 249 146 257 157 b 282 190 268 174 278 186 l 292 199 l 289 178 b 281 132 289 165 285 144 b 190 -42 269 100 232 25 b 60 -275 147 -114 79 -235 b 14 -428 32 -333 14 -394 b 51 -482 14 -456 28 -476 b 160 -425 90 -492 124 -474 b 246 -215 201 -368 242 -271 b 238 -167 247 -194 247 -192 b 228 -142 232 -153 228 -142 b 239 -143 228 -140 233 -142 b 414 -44 288 -154 347 -119 b 575 194 478 32 581 183 b 565 197 574 196 569 197 b 526 157 554 197 547 188 b 282 -119 429 0 346 -92 b 233 -117 260 -128 246 -128 b 256 -53 222 -107 221 -112 b 335 111 283 -1 325 85 b 338 203 349 156 349 182 b 299 224 328 218 318 224 b 272 215 283 224 281 224 b 264 206 268 210 264 206 b 261 225 263 206 263 214 z m 201 118 b 129 24 154 51 143 39 b 113 8 121 15 114 8 b 149 156 104 8 125 96 b 194 239 163 190 182 224 l 204 250 l 210 243 b 226 182 219 231 225 211 l 229 156 z m 186 -317 b 88 -451 163 -374 122 -429 b 74 -460 81 -456 74 -460 b 78 -408 68 -460 71 -435 b 117 -303 86 -374 99 -340 b 203 -151 132 -269 199 -151 b 211 -211 207 -151 211 -183 b 186 -317 211 -244 206 -269 z "},"r":{"ha":194,"x_min":0,"x_max":0,"o":"m 311 171 b 257 106 301 171 304 174 b 88 -94 146 -54 88 -122 b 150 46 88 -76 113 -18 b 175 100 167 76 175 94 b 146 147 175 111 169 121 b 128 171 136 160 128 169 b 136 186 126 172 132 179 b 192 331 158 218 185 288 b 167 440 201 383 190 428 b 106 439 151 447 124 447 b 36 339 79 426 49 385 b 33 228 26 306 25 258 b 85 139 43 188 54 169 b 114 103 108 117 114 110 b 83 33 114 99 100 68 b 39 -86 56 -24 39 -68 b 56 -117 39 -96 47 -112 b 72 -124 60 -119 67 -122 b 119 -118 88 -126 107 -124 b 269 83 142 -107 178 -58 b 311 171 325 168 326 171 z m 113 201 b 93 268 110 201 96 249 b 114 386 88 303 96 350 b 144 424 122 406 139 426 b 163 383 151 422 160 403 b 126 231 168 347 156 292 b 113 201 119 215 113 201 z "},"s":{"ha":233,"x_min":0,"x_max":0,"o":"m 192 75 l 165 57 l 156 75 b 133 125 143 97 133 118 b 144 143 133 126 139 135 b 207 258 179 189 204 235 b 203 275 208 268 208 271 b 163 288 196 283 181 288 b 68 210 132 288 90 254 b 56 157 56 185 56 183 b 89 54 56 124 63 103 b 108 17 100 35 108 18 b 85 -6 108 15 97 6 b -11 -126 42 -42 -4 -99 b 21 -185 -18 -153 -6 -178 b 92 -178 43 -192 71 -189 b 193 -69 131 -158 181 -106 b 188 15 203 -44 201 -14 b 176 38 182 28 176 38 b 306 129 176 40 254 94 b 357 167 335 147 357 165 b 192 75 358 182 297 150 z m 119 -64 b 49 -154 108 -94 75 -137 b 33 -164 42 -158 35 -164 b 24 -133 29 -164 22 -143 b 57 -74 26 -118 38 -97 b 121 -7 75 -49 118 -4 b 124 -26 122 -8 124 -17 b 119 -64 125 -43 125 -49 z m 129 160 b 142 213 124 160 132 192 b 176 256 156 239 176 264 b 140 172 176 239 160 201 b 129 160 135 165 131 160 z "},"t":{"ha":235,"x_min":0,"x_max":0,"o":"m 328 167 b 296 138 321 172 314 165 b 140 -26 238 44 171 -26 b 118 -6 133 -26 125 -18 b 117 76 113 6 111 47 b 189 297 125 129 154 218 b 274 469 199 317 236 394 b 349 606 335 593 342 606 b 431 610 353 606 389 607 b 615 610 546 617 599 617 b 638 628 639 601 653 613 b 607 640 633 631 621 636 b 471 644 583 646 578 646 b 363 646 385 643 361 643 b 385 697 363 649 372 671 b 407 767 408 750 411 756 b 354 776 401 782 371 788 b 282 671 340 768 313 728 b 263 638 271 653 263 638 b 181 632 263 638 226 635 b -4 613 79 626 21 621 b 11 588 -21 608 -14 594 b 176 593 28 583 111 586 b 231 597 200 594 225 597 l 240 597 l 215 543 b 78 232 133 372 106 313 b 50 6 40 126 32 54 b 122 -51 60 -24 89 -46 b 208 -22 157 -57 185 -47 b 288 89 219 -10 257 42 b 328 167 311 125 331 163 z "},"u":{"ha":329,"x_min":0,"x_max":0,"o":"m 93 0 b 167 56 122 -4 131 3 b 189 88 178 72 189 88 b 190 71 189 88 190 81 b 254 -8 193 28 215 0 b 344 26 288 -15 311 -7 b 453 178 378 60 456 168 b 443 182 451 179 447 182 b 414 153 436 182 432 178 b 318 40 381 108 333 53 b 276 15 303 28 282 15 b 267 57 268 15 264 33 b 326 225 268 85 292 147 b 336 282 347 269 349 274 b 290 283 325 289 303 289 b 239 217 279 276 257 249 b 114 38 207 160 133 54 b 101 35 106 31 104 31 b 115 100 97 40 101 58 b 167 221 131 143 144 178 b 182 261 176 240 182 257 b 121 282 179 276 143 289 b 75 217 108 276 97 263 b 28 63 43 151 28 101 b 93 0 28 29 51 6 z "},"v":{"ha":335,"x_min":0,"x_max":0,"o":"m 263 146 b 282 167 274 165 276 168 b 349 156 303 161 331 156 b 453 175 375 156 440 167 b 457 185 461 179 461 181 b 435 186 453 189 450 189 b 331 175 404 179 340 174 b 292 189 314 179 296 185 b 304 225 289 192 293 201 b 335 335 332 289 339 315 b 322 350 332 343 329 346 b 263 331 300 358 282 353 b 244 189 224 288 215 222 l 251 183 l 238 160 b 175 76 213 118 200 101 b 111 29 150 51 125 32 b 103 39 104 28 103 28 b 164 244 103 67 124 133 l 174 272 l 165 278 b 121 290 156 288 136 292 b 74 233 103 288 94 278 b 29 68 42 160 28 110 b 99 -4 32 22 49 4 b 143 6 110 -6 125 -3 b 263 146 179 22 226 79 z m 279 272 b 304 322 283 289 300 322 b 303 304 307 322 307 324 b 289 260 301 294 296 275 b 276 231 282 244 276 232 b 279 272 274 228 275 257 z "},"w":{"ha":500,"x_min":0,"x_max":0,"o":"m 624 201 b 590 197 618 207 607 206 b 526 189 574 189 572 189 b 469 194 489 189 478 190 l 458 199 l 467 218 b 490 346 493 275 503 329 b 450 357 482 357 464 361 b 393 299 432 351 406 326 b 382 257 383 279 381 274 b 407 200 382 233 390 213 b 418 188 413 194 418 189 b 401 158 418 186 411 174 b 289 33 367 100 324 53 b 261 31 271 24 265 24 b 301 207 249 54 263 115 b 317 254 311 231 318 251 b 267 261 314 264 283 269 b 210 188 253 253 231 225 b 126 72 193 157 149 96 l 106 53 l 104 61 b 164 224 103 83 125 144 b 183 275 185 264 188 271 b 147 289 178 283 164 289 b 119 281 133 289 129 288 b 36 139 93 261 53 192 b 35 56 26 107 25 72 b 100 19 47 32 69 19 b 160 64 126 18 135 25 l 181 94 l 182 75 b 242 -3 185 33 207 6 b 271 -6 247 -4 260 -6 b 353 40 300 -6 315 1 b 435 151 383 71 407 104 b 457 175 447 176 449 176 b 617 189 524 163 589 168 b 624 201 625 196 626 199 z m 451 264 b 438 226 446 247 439 231 l 433 219 l 429 229 b 425 258 426 233 425 247 b 435 299 425 275 426 282 b 463 333 444 317 457 333 b 451 264 467 333 461 294 z "},"x":{"ha":264,"x_min":0,"x_max":0,"o":"m 21 -143 b 47 -128 38 -149 44 -146 b 104 -15 49 -114 75 -62 l 126 21 l 147 15 b 199 7 164 8 174 8 b 247 15 226 7 232 8 b 326 92 268 25 290 46 b 389 182 356 128 389 175 b 382 188 389 183 385 186 b 340 144 375 189 374 188 b 164 50 257 38 200 8 b 154 64 158 56 154 61 b 232 181 154 68 200 138 b 257 217 246 199 257 215 b 232 224 257 221 240 226 b 171 157 221 222 199 199 b 144 121 158 139 146 122 b 151 175 142 117 144 149 b 168 229 154 188 163 211 b 176 268 172 246 176 264 b 124 289 175 282 146 293 b 61 194 103 283 78 246 b 53 138 54 174 53 165 b 63 86 53 106 53 104 b 83 56 67 76 76 61 b 94 42 89 49 94 42 b 78 11 94 40 88 28 b 43 -51 68 -4 53 -32 b 21 -143 15 -108 8 -137 z "},"y":{"ha":386,"x_min":0,"x_max":0,"o":"m 281 6 l 318 29 b 475 161 375 63 451 126 b 499 190 481 167 490 181 b 510 213 506 200 511 211 b 474 194 506 219 493 214 b 357 89 403 128 381 108 b 299 50 326 64 296 44 b 363 244 329 125 354 200 l 369 275 l 361 282 b 338 292 356 289 351 290 b 289 249 313 293 308 290 b 233 164 276 222 261 200 b 143 65 193 108 164 76 b 126 85 125 56 124 58 b 183 235 128 106 154 174 b 197 268 192 250 197 265 b 142 285 197 283 160 294 b 86 211 125 276 106 250 b 53 106 61 158 53 136 b 61 65 53 82 54 78 b 114 32 72 47 89 36 b 224 103 157 25 185 43 b 242 128 233 117 242 128 b 215 57 243 128 231 96 l 189 -15 l 146 -39 b -8 -142 96 -68 25 -115 b -101 -236 -40 -167 -78 -204 b -136 -407 -153 -304 -165 -364 b -85 -436 -125 -422 -108 -432 b 83 -354 -24 -444 29 -418 b 260 -42 144 -279 193 -194 z m 110 -199 b 17 -349 88 -243 39 -322 b -47 -406 -6 -378 -29 -399 b -75 -415 -56 -411 -67 -414 b -99 -406 -86 -417 -87 -417 b -108 -312 -118 -387 -122 -349 b -12 -181 -96 -276 -50 -214 b 142 -72 21 -149 81 -107 b 171 -57 157 -64 169 -57 b 110 -199 172 -60 128 -165 z "},"z":{"ha":333,"x_min":0,"x_max":0,"o":"m 256 -17 l 274 -3 b 458 192 342 44 458 168 b 443 203 458 196 450 203 b 399 151 438 203 419 181 b 275 29 379 124 304 50 b 246 14 253 14 249 11 b 235 32 244 17 239 25 b 183 65 224 46 206 58 l 169 71 l 186 78 b 314 194 236 100 292 151 b 324 236 324 217 325 219 b 265 294 321 265 304 282 b 111 236 207 314 149 292 b 90 181 94 211 88 190 b 117 161 94 171 100 167 b 164 189 138 154 142 157 b 225 250 186 221 203 239 b 254 253 250 261 253 261 b 246 196 258 238 254 213 b 135 88 228 160 200 133 b 96 56 103 67 96 61 b 136 42 96 44 106 40 b 171 35 164 42 165 42 b 188 -12 181 25 188 6 l 188 -26 l 160 -42 b -158 -301 -19 -143 -128 -231 b -167 -337 -162 -310 -165 -325 b -160 -376 -167 -357 -167 -361 b -106 -425 -147 -403 -133 -415 b -28 -424 -87 -431 -54 -429 b 108 -332 18 -411 60 -383 b 256 -39 206 -226 256 -126 z m 161 -136 b 32 -328 131 -203 92 -262 b -67 -399 -6 -368 -29 -385 b -96 -403 -75 -401 -87 -403 b -117 -394 -107 -403 -110 -401 b -132 -346 -131 -379 -133 -367 b -11 -186 -128 -300 -92 -251 b 53 -139 10 -171 39 -149 b 183 -61 83 -119 182 -61 b 161 -136 186 -64 172 -108 z "},"!":{"ha":267,"x_min":0,"x_max":0,"o":"m 171 110 b 129 43 160 103 135 64 b 129 19 125 31 125 28 b 142 6 131 14 138 8 b 178 4 153 0 175 0 b 176 14 179 6 178 10 b 179 33 172 19 172 22 b 203 69 182 39 193 56 b 221 97 214 83 221 96 b 171 110 222 113 188 119 z m 536 792 b 492 797 522 799 504 801 b 383 647 469 790 438 746 b 219 218 213 333 174 232 b 253 231 242 213 253 217 b 260 260 253 236 256 249 b 492 682 279 318 408 553 b 543 776 525 733 540 761 b 536 792 544 785 544 786 z "},"\"":{"ha":308,"x_min":0,"x_max":0,"o":"m 314 642 b 275 647 307 650 281 653 b 269 628 272 646 269 636 b 254 576 265 599 261 585 b 257 560 247 568 247 564 b 288 561 265 554 279 556 b 319 594 301 569 315 586 b 314 642 324 607 319 633 z m 250 619 b 217 656 247 642 239 653 b 189 628 196 657 192 653 b 171 574 188 606 179 581 b 169 563 168 568 167 567 b 188 558 172 560 178 558 b 219 571 199 558 204 561 b 250 619 244 589 251 599 z "},"#":{"ha":615,"x_min":0,"x_max":0,"o":"m 578 118 b 576 129 583 122 583 122 b 460 153 558 144 517 153 l 425 153 l 429 160 b 478 246 446 194 475 244 b 518 250 481 247 499 249 b 554 244 553 251 553 251 b 597 232 558 235 585 226 b 601 243 600 233 601 238 b 521 279 601 265 572 279 b 496 281 508 279 496 279 b 508 301 496 282 501 290 b 531 351 521 324 531 346 b 503 364 531 357 515 364 b 485 358 497 364 489 363 b 435 294 474 353 450 322 b 389 268 421 272 422 272 b 374 272 371 267 371 267 b 397 314 375 275 386 293 b 424 365 410 335 421 357 b 422 385 429 379 429 379 b 403 392 418 389 413 390 b 378 382 390 392 388 390 b 318 293 363 367 342 336 l 297 254 l 250 246 b 158 219 190 233 165 226 b 160 206 153 213 153 213 b 232 203 172 196 192 194 b 271 210 253 207 269 210 b 254 172 272 210 264 193 l 235 135 l 193 126 b 128 94 138 117 118 107 b 183 93 135 86 150 86 b 215 99 200 97 215 99 b 207 74 217 97 213 86 b 194 32 200 57 194 43 b 203 10 193 17 193 17 b 238 6 213 4 229 3 b 242 18 240 7 242 11 b 263 67 242 25 250 42 b 286 108 274 88 285 107 b 339 117 288 111 339 119 b 331 97 339 117 335 107 b 288 -3 315 68 294 19 b 286 -28 282 -22 282 -25 b 300 -35 289 -31 294 -33 b 326 -32 310 -37 322 -36 b 368 46 328 -31 346 4 l 407 124 l 418 125 b 478 128 425 126 451 128 b 539 122 521 128 528 126 b 578 118 557 113 571 111 z m 356 151 b 329 146 354 150 342 147 b 329 190 300 144 300 139 l 347 226 l 369 229 b 396 233 382 232 394 233 b 356 151 400 233 363 158 z "},"$":{"ha":469,"x_min":0,"x_max":0,"o":"m 328 24 b 433 119 369 40 413 79 b 447 169 444 142 446 147 b 444 208 447 182 446 200 b 400 301 439 231 424 265 b 381 335 390 318 381 333 b 519 653 381 338 435 463 l 554 731 l 556 708 b 536 618 556 683 550 657 b 490 540 526 593 503 553 b 496 524 482 531 483 524 b 547 586 508 524 526 546 b 588 696 567 626 582 665 b 579 756 594 726 592 740 l 569 765 l 579 788 b 582 838 599 832 599 838 b 551 800 571 838 567 832 l 538 772 l 526 772 b 408 717 497 772 453 751 b 300 579 368 685 328 635 b 274 465 278 535 272 510 b 283 406 275 436 276 428 b 326 319 293 382 310 346 l 331 310 l 307 258 b 251 129 296 229 269 171 b 215 47 233 89 217 51 b 208 42 214 44 211 42 b 175 75 201 42 182 61 b 169 126 169 86 169 92 b 176 183 169 163 169 167 b 175 208 188 208 186 210 b 146 169 164 208 153 194 b 146 64 138 147 138 82 b 189 21 151 47 171 29 l 201 15 l 196 1 b 182 -33 193 -6 188 -22 b 176 -68 172 -58 171 -65 b 192 -68 182 -71 189 -71 b 214 -28 193 -67 203 -49 l 233 10 l 251 10 b 328 24 274 10 307 17 z m 403 631 b 514 736 431 671 481 719 l 524 740 l 521 732 b 407 479 515 722 485 654 b 361 379 383 426 363 381 b 340 447 356 375 343 418 b 403 631 335 499 357 560 z m 247 39 b 292 138 247 40 267 85 b 344 254 317 193 340 244 b 353 272 349 264 353 272 b 376 225 357 272 369 247 b 369 133 385 193 383 161 b 265 43 351 96 299 50 b 251 40 261 42 254 40 b 247 39 250 39 247 39 z "},"%":{"ha":471,"x_min":0,"x_max":0,"o":"m 365 661 b 408 667 382 657 396 658 b 465 789 444 693 475 758 b 429 815 463 799 442 814 b 376 785 415 817 397 807 b 365 661 333 736 326 672 z m 390 700 b 401 729 392 707 396 721 b 443 789 413 749 442 790 b 408 703 449 783 424 719 b 394 689 404 697 397 692 b 390 700 389 686 389 688 z m 379 147 b 368 143 374 147 368 146 b 357 138 367 142 363 139 b 293 51 338 133 301 88 b 319 -6 286 25 297 3 b 350 -6 333 -10 338 -10 b 419 71 372 3 403 36 b 419 110 428 90 428 93 b 379 147 408 132 392 147 z m 389 68 b 349 19 381 51 363 28 b 333 17 335 10 331 8 b 376 100 336 25 363 76 l 388 119 l 393 108 b 389 68 399 96 397 83 z m 589 785 b 569 792 586 789 579 792 b 546 785 556 793 554 793 b 211 164 521 757 358 456 b 147 -3 135 13 132 4 b 183 0 160 -8 176 -7 b 468 515 201 19 314 224 b 588 758 535 642 578 729 l 596 779 z "},"&":{"ha":638,"x_min":0,"x_max":0,"o":"m 610 236 b 693 332 644 253 693 310 b 654 344 693 340 667 349 b 632 322 650 343 640 333 b 568 260 614 296 588 271 b 489 260 546 249 524 249 b 414 269 463 268 429 272 b 376 238 399 267 379 251 b 378 222 374 229 374 226 b 401 222 385 214 399 214 b 414 238 403 226 408 233 b 432 247 419 246 424 247 b 469 236 447 247 468 242 b 392 71 475 224 421 108 b 288 1 360 29 318 1 b 261 10 274 0 269 1 b 217 111 233 31 221 58 b 233 236 211 154 215 186 b 318 385 257 308 281 350 b 388 425 338 401 376 425 b 417 407 393 425 414 413 b 446 393 419 403 439 393 b 458 413 463 393 465 397 b 454 426 456 417 454 424 b 446 469 454 431 450 450 b 443 635 428 540 428 588 b 519 751 456 679 489 729 b 547 749 535 764 540 763 b 538 624 557 722 554 685 b 531 583 529 593 528 586 b 547 585 535 578 540 578 b 589 729 567 606 588 682 b 538 793 589 769 576 786 b 389 686 485 803 424 758 b 367 596 372 654 368 635 b 383 481 364 557 369 522 l 393 453 l 381 454 b 244 386 343 460 282 429 b 174 254 214 351 194 317 b 163 90 151 192 149 142 b 258 -18 176 35 213 -7 b 296 -19 265 -19 282 -21 b 339 -11 319 -19 326 -18 b 436 96 379 10 408 42 b 485 210 460 142 476 181 b 497 229 492 229 492 231 b 610 236 540 219 579 221 z "},"(":{"ha":233,"x_min":0,"x_max":0,"o":"m 306 389 b 542 651 357 489 429 569 b 581 685 564 668 581 683 b 557 693 581 692 568 696 b 422 613 533 689 468 649 b 182 279 317 525 218 390 b 156 153 171 247 160 194 b 160 3 150 114 154 31 b 203 -107 172 -54 192 -103 b 226 -107 214 -111 221 -111 b 224 -65 231 -106 231 -100 b 218 117 215 -17 213 74 b 306 389 228 201 261 304 z "},"'":{"ha":225,"x_min":0,"x_max":0,"o":"m 189 561 b 235 594 200 560 228 579 b 232 639 240 607 239 629 b 194 653 224 650 206 657 b 185 629 186 650 186 649 b 174 589 183 614 181 603 b 179 563 164 569 164 564 b 189 561 183 561 188 561 z "},")":{"ha":231,"x_min":0,"x_max":0,"o":"m 281 696 b 261 697 274 699 267 699 l 254 694 l 254 603 b 238 422 253 508 253 497 b -36 -96 194 200 85 -6 b -47 -121 -58 -112 -60 -115 b 1 -107 -33 -126 -26 -124 b 74 -43 21 -93 40 -78 b 215 160 136 21 171 69 b 308 446 264 253 293 346 b 308 642 315 494 315 604 b 281 696 301 681 296 692 z "},"*":{"ha":336,"x_min":0,"x_max":0,"o":"m 344 676 b 339 696 353 683 350 692 b 303 694 326 701 317 701 b 292 689 297 690 292 689 b 296 701 292 690 294 694 b 296 715 300 710 300 711 b 271 717 289 721 274 721 b 258 693 269 714 264 704 l 251 675 l 240 685 b 217 696 232 693 226 694 b 217 671 196 699 196 692 b 194 631 236 651 238 656 b 168 611 179 621 167 613 b 189 600 169 606 181 600 b 211 607 193 600 203 604 l 226 614 l 225 607 b 225 567 219 582 219 571 b 244 567 232 563 243 561 b 264 622 251 589 263 621 b 282 610 265 624 274 617 b 315 590 297 594 308 588 b 301 622 324 593 321 600 l 283 642 l 311 657 b 344 676 326 665 342 675 z "},",":{"ha":210,"x_min":0,"x_max":0,"o":"m 154 58 b 142 33 146 57 146 57 b 128 0 138 13 136 8 b 114 -10 124 -4 117 -10 b 117 -18 111 -11 111 -12 b 165 -14 125 -26 142 -26 b 190 8 183 -6 186 -3 b 189 46 197 26 197 38 b 154 58 182 54 165 60 z "},"+":{"ha":400,"x_min":0,"x_max":0,"o":"m 300 146 l 340 147 b 385 153 374 149 383 149 b 381 164 386 156 386 160 b 329 176 375 169 361 174 l 315 178 l 331 204 b 340 256 349 239 350 246 b 314 264 335 261 329 263 l 293 265 l 282 251 b 254 211 274 244 264 228 l 240 182 l 204 181 b 161 154 154 178 143 171 b 213 139 171 146 200 138 b 222 140 218 140 222 140 b 215 122 222 140 219 132 b 213 58 207 97 206 71 b 242 36 219 47 229 39 b 263 36 256 33 256 33 b 268 51 269 38 271 39 b 289 122 267 68 271 85 z "},"-":{"ha":388,"x_min":0,"x_max":0,"o":"m 314 147 b 368 154 342 150 367 153 b 363 171 375 160 374 165 b 293 175 356 175 347 176 b 153 154 207 175 153 167 b 174 138 153 150 165 140 b 236 139 188 133 207 133 b 314 147 251 140 286 144 z "},".":{"ha":206,"x_min":0,"x_max":0,"o":"m 178 57 b 117 47 156 72 129 68 b 132 1 106 28 113 7 b 185 21 156 -4 171 1 b 178 57 194 38 193 47 z "},"/":{"ha":242,"x_min":0,"x_max":0,"o":"m 476 669 b 467 688 478 683 478 683 b 433 686 454 693 442 693 b 122 78 406 665 307 471 b 33 -107 58 -56 39 -96 b 32 -124 28 -118 28 -119 b 47 -132 33 -126 42 -129 b 86 -119 69 -140 78 -137 b 225 143 94 -103 138 -22 b 476 669 383 447 472 635 z "},":":{"ha":268,"x_min":0,"x_max":0,"o":"m 225 253 b 190 183 190 253 168 204 b 206 172 194 178 201 174 b 239 175 218 169 231 171 b 267 225 256 183 267 204 b 225 253 267 244 253 253 z m 231 206 b 221 201 224 194 221 194 b 233 228 221 210 229 228 b 231 206 238 228 236 215 z m 193 140 b 154 124 172 138 164 135 b 139 90 142 111 139 104 b 163 63 139 76 147 67 b 214 90 183 57 203 67 b 211 136 219 101 218 124 b 193 140 208 142 206 142 z m 192 110 b 185 92 190 104 188 97 b 172 85 181 83 172 79 b 189 114 172 90 183 110 b 192 110 193 117 193 117 z "},";":{"ha":272,"x_min":0,"x_max":0,"o":"m 268 250 b 229 269 264 260 244 269 b 208 260 221 269 217 268 b 185 218 194 249 185 229 b 208 192 185 207 194 196 b 258 210 228 185 244 190 b 268 250 268 224 272 240 z m 235 219 b 224 213 228 210 224 207 b 242 246 224 218 239 243 b 235 219 247 249 242 229 z m 185 140 l 172 140 l 164 117 b 143 82 153 89 149 82 b 144 68 136 82 139 71 b 185 69 157 63 175 64 b 218 117 194 76 215 106 b 185 140 221 132 207 143 z "},"<":{"ha":376,"x_min":0,"x_max":0,"o":"m 329 286 b 286 275 311 288 308 286 b 151 185 265 264 174 203 b 142 157 139 174 136 165 b 297 31 144 151 267 53 b 331 26 307 24 326 22 b 260 97 332 31 318 46 b 203 147 233 119 207 143 l 197 154 l 217 164 b 361 267 257 186 358 256 b 329 286 364 276 351 285 z "},"=":{"ha":331,"x_min":0,"x_max":0,"o":"m 163 176 b 222 179 178 174 192 174 b 276 188 239 182 263 186 b 313 199 304 189 313 192 b 214 214 313 213 269 219 b 140 192 154 208 136 204 b 163 176 142 186 151 179 z m 310 140 b 242 146 304 146 300 147 b 140 128 158 144 136 140 b 163 114 142 122 153 115 b 179 111 168 113 175 111 b 310 125 192 111 303 122 b 310 140 318 129 318 133 z "},">":{"ha":379,"x_min":0,"x_max":0,"o":"m 229 278 b 181 265 199 292 164 285 b 236 218 183 261 208 239 b 293 172 264 197 289 176 l 301 165 l 290 157 b 213 93 286 153 250 124 b 140 33 174 61 142 35 b 146 25 139 32 142 28 b 164 21 150 22 157 21 b 261 78 178 21 201 33 b 332 128 282 93 314 115 b 365 157 351 142 365 154 b 229 278 365 167 256 264 z "},"?":{"ha":317,"x_min":0,"x_max":0,"o":"m 557 710 b 442 776 532 746 494 768 b 281 685 388 785 324 749 b 232 507 246 632 219 536 b 271 494 238 494 264 486 b 276 521 272 496 275 508 b 333 657 283 563 307 619 b 408 724 356 688 379 710 b 486 703 451 744 467 740 b 494 660 494 686 494 682 b 472 579 494 633 489 613 b 351 442 453 539 417 499 b 226 294 268 371 257 358 b 210 168 185 207 181 178 b 239 185 228 163 233 165 b 290 275 246 201 265 238 b 424 413 313 308 369 367 b 558 565 499 475 535 515 b 557 710 588 624 588 667 z m 178 92 b 157 82 164 92 163 90 b 139 33 149 71 139 46 b 156 10 139 22 144 14 b 189 13 168 4 186 6 b 208 43 190 15 200 29 b 219 74 221 65 222 69 b 178 92 215 82 196 92 z "},"_":{"ha":558,"x_min":0,"x_max":0,"o":"m 514 43 b 201 35 492 49 393 46 b 146 29 175 33 150 31 b 174 1 129 21 144 6 b 214 0 182 0 200 0 b 342 4 228 0 286 3 b 535 15 454 7 521 11 b 514 43 554 21 542 38 z "},"^":{"ha":321,"x_min":0,"x_max":0,"o":"m 254 654 l 256 607 b 276 543 257 554 257 551 b 313 540 285 539 308 538 b 328 578 321 547 324 554 b 324 703 338 638 336 676 b 288 729 314 721 306 728 b 261 715 271 731 264 729 b 250 694 261 711 256 703 b 167 576 232 675 167 581 b 183 567 167 569 172 567 b 207 588 190 567 194 571 b 239 632 217 600 231 618 z "},"]":{"ha":247,"x_min":0,"x_max":0,"o":"m 431 581 b 469 674 453 629 469 671 b 443 692 468 681 457 689 b 410 690 438 692 422 692 b 353 683 396 688 371 685 b 301 671 317 681 301 676 b 313 661 301 668 307 664 b 361 660 321 658 331 657 l 399 661 l 394 651 b 364 583 393 647 379 615 b 153 126 319 493 218 274 b 28 -132 29 -143 36 -129 b -25 -133 24 -132 0 -133 b -83 -146 -71 -135 -83 -137 b -8 -160 -83 -153 -68 -156 b 53 -165 24 -161 51 -164 b 82 -161 57 -169 75 -167 b 147 -28 85 -157 114 -96 b 224 135 181 43 214 115 b 431 581 253 196 390 493 z "},"\\":{"ha":276,"x_min":0,"x_max":0,"o":"m 154 -110 b 192 -110 165 -114 188 -114 b 244 119 197 -103 211 -46 b 346 665 321 483 346 624 b 339 688 346 681 346 683 b 296 690 329 694 301 697 b 190 200 283 676 249 514 b 140 -74 144 -43 143 -46 b 154 -110 138 -100 139 -103 z "},"[":{"ha":243,"x_min":0,"x_max":0,"o":"m 511 660 b 563 668 556 661 563 663 b 514 682 563 676 554 679 b 453 692 492 685 464 689 b 410 689 435 694 418 694 b 247 358 392 678 306 501 b 199 243 235 328 213 275 b 79 -46 160 157 115 50 b 44 -136 61 -93 46 -133 b 71 -161 39 -144 50 -154 b 132 -158 90 -168 100 -167 b 193 -150 146 -154 169 -151 b 239 -146 215 -149 236 -146 b 232 -131 247 -142 243 -135 b 139 -129 219 -126 174 -126 b 113 -131 125 -131 113 -132 b 128 -94 111 -131 118 -114 b 185 36 136 -75 161 -17 b 257 199 207 89 239 161 b 307 311 275 236 297 286 b 381 475 342 394 351 414 b 429 581 396 510 418 557 b 460 642 440 604 454 632 l 471 660 z "},"{":{"ha":275,"x_min":0,"x_max":0,"o":"m 214 44 b 281 181 242 94 274 158 b 293 254 290 206 296 239 b 265 306 292 271 281 292 l 253 317 l 263 324 b 294 346 268 326 283 336 b 457 550 358 396 407 457 b 563 665 506 639 531 665 b 579 669 575 665 578 667 b 519 693 585 682 549 696 b 390 567 476 688 438 650 b 243 371 342 482 300 426 b 201 324 219 347 201 326 b 214 301 201 321 207 311 b 226 238 229 281 232 268 b 168 97 219 208 207 176 b 110 -36 131 19 126 10 b 106 -118 94 -79 94 -94 b 139 -157 114 -139 125 -151 b 178 -160 153 -164 175 -164 b 168 -149 179 -158 175 -153 b 156 -92 156 -137 150 -115 b 214 44 160 -71 189 -3 z "},"|":{"ha":235,"x_min":0,"x_max":0,"o":"m 139 168 b 144 51 140 156 142 103 b 158 -112 150 -50 154 -101 b 172 -125 160 -117 165 -122 b 215 -126 186 -131 208 -132 b 221 -57 221 -124 221 -118 b 206 467 221 50 213 325 b 188 672 199 604 194 660 b 151 690 182 683 168 690 b 139 168 133 690 142 190 z "},"}":{"ha":297,"x_min":0,"x_max":0,"o":"m 419 653 b 351 697 413 679 383 697 b 324 683 340 697 325 690 b 336 672 321 678 332 669 b 350 675 339 674 346 675 b 368 653 364 678 368 671 b 311 507 368 631 353 592 b 239 338 271 425 250 378 b 239 249 231 308 231 274 b 242 219 246 228 247 219 b 196 194 235 219 208 204 b 115 65 174 175 160 151 b 17 -104 42 -78 40 -79 b -21 -129 -3 -124 -7 -126 b -53 -126 -36 -132 -39 -132 b -83 -126 -72 -119 -83 -118 b -49 -149 -83 -132 -67 -143 b 39 -143 -29 -154 17 -151 b 82 -112 56 -137 61 -133 b 183 58 111 -83 124 -61 b 240 165 208 108 233 157 b 275 192 249 176 256 182 b 294 235 304 204 301 200 b 292 271 292 246 292 260 b 376 493 294 304 326 389 b 419 653 417 579 428 621 z "},"~":{"ha":422,"x_min":0,"x_max":0,"o":"m 390 213 b 358 215 381 217 361 219 b 354 193 357 214 356 204 b 339 150 351 174 347 163 b 319 139 335 146 324 139 b 296 157 318 139 308 147 b 193 204 258 192 224 207 b 167 190 182 203 178 200 b 139 142 154 178 139 153 b 150 132 139 138 143 135 b 175 143 167 125 171 126 b 196 172 181 160 186 169 b 217 161 201 174 206 172 b 299 115 239 139 253 132 b 383 124 322 106 368 111 b 408 175 393 133 408 163 b 390 213 408 190 400 207 z "},"`":{"ha":256,"x_min":0,"x_max":0,"o":"m 238 736 b 175 750 228 749 193 756 b 200 653 160 746 168 714 b 239 608 218 618 222 613 b 268 613 249 606 264 608 b 263 646 269 614 268 625 b 247 704 257 663 251 689 b 238 736 244 719 240 733 z "},"@":{"ha":650,"x_min":0,"x_max":0,"o":"m 626 160 b 625 307 639 211 638 272 b 333 390 588 406 447 447 b 246 324 301 375 278 357 b 144 49 167 240 125 128 b 260 -72 161 -14 201 -57 b 319 -78 281 -76 290 -78 b 393 -58 357 -76 376 -71 b 396 -47 400 -53 400 -53 b 354 -50 389 -40 375 -42 b 315 -57 343 -54 332 -56 b 257 -40 285 -57 274 -54 b 211 69 228 -18 211 22 b 290 276 211 129 242 211 b 469 385 342 346 407 385 b 517 375 493 385 497 383 b 592 292 551 358 578 328 b 597 181 599 269 601 215 b 547 50 590 140 569 83 b 500 -6 532 28 510 1 b 486 14 488 -15 486 -12 b 528 150 486 43 497 81 b 531 194 542 182 543 189 b 493 194 517 201 501 201 b 485 188 489 190 486 188 b 483 206 485 188 483 196 b 464 256 483 226 475 247 b 407 269 451 264 421 271 b 303 169 369 263 332 226 b 276 47 281 122 269 74 b 347 7 285 19 319 -1 b 413 54 363 11 390 32 l 429 72 l 428 49 b 464 -33 426 10 442 -25 b 574 31 504 -51 529 -36 b 626 160 594 61 617 114 z m 438 124 b 361 46 421 99 383 61 b 340 32 351 40 342 33 b 336 43 338 31 336 33 b 396 185 336 68 369 146 b 436 226 414 210 433 229 b 447 172 442 221 446 201 l 450 143 z "},"":{"ha":538,"x_min":0,"x_max":0,"o":"m 529 782 b 400 701 489 782 442 753 b 264 465 354 647 304 560 l 254 443 l 236 439 b 158 418 207 433 164 422 b 174 390 144 408 151 397 b 208 394 183 388 188 388 b 236 403 222 399 235 403 b 232 382 238 404 236 396 l 225 360 l 196 354 b 140 338 154 349 142 344 b 203 319 138 322 175 311 b 213 321 208 321 213 321 b 208 293 214 321 211 308 b 196 115 192 219 188 153 b 286 3 207 61 242 17 b 350 6 310 -7 332 -6 b 472 113 388 28 440 72 b 485 149 494 140 497 146 b 439 113 478 150 472 146 b 378 58 418 92 390 68 b 282 50 318 17 301 15 b 296 283 257 96 261 153 b 314 336 303 311 311 333 b 336 339 315 338 326 339 b 369 349 354 339 369 343 b 339 364 369 354 354 363 b 322 368 329 365 322 367 b 333 397 322 369 328 382 l 343 425 l 371 425 b 401 428 386 425 400 426 b 379 444 404 432 392 442 b 389 524 351 453 350 443 b 511 713 439 622 471 672 b 561 747 529 729 554 747 b 571 740 564 747 568 744 b 597 628 590 722 603 664 b 593 601 596 617 593 604 b 607 588 590 596 599 588 b 628 719 631 588 643 671 b 529 782 615 760 579 783 z "},"":{"ha":626,"x_min":0,"x_max":0,"o":"m 553 621 b 642 753 590 697 618 739 b 678 747 658 765 664 764 b 718 729 690 732 706 726 b 724 740 724 731 724 733 b 629 794 724 771 683 793 b 583 785 604 794 601 793 b 469 635 549 768 517 726 b 371 425 442 579 396 485 l 351 379 l 322 379 b 278 368 290 379 278 376 b 318 351 278 360 294 353 b 339 349 329 350 339 350 b 292 243 339 349 306 272 b 222 108 269 193 247 151 b 175 47 190 53 186 47 b 143 31 163 47 149 40 b 146 14 139 21 139 21 b 175 7 153 7 156 7 b 210 13 192 7 201 8 b 294 -6 224 18 218 19 b 360 -24 318 -12 347 -21 b 419 -29 378 -28 392 -29 b 518 7 467 -28 479 -24 b 585 97 560 38 593 82 b 535 117 578 113 550 122 b 522 92 529 115 528 110 b 500 56 517 74 514 68 b 447 15 474 31 467 24 b 397 7 429 7 426 7 b 308 24 367 7 364 7 b 250 42 276 33 251 40 b 254 49 250 42 251 44 b 413 318 313 122 356 196 l 429 356 l 454 357 b 518 372 514 363 521 364 b 471 382 515 379 503 382 b 443 385 449 382 442 382 b 553 621 458 424 488 486 z "},"":{"ha":528,"x_min":0,"x_max":0,"o":"m 329 297 b 236 172 288 278 250 225 b 239 122 232 149 232 142 b 293 71 247 99 269 78 b 383 86 328 60 365 67 b 386 97 390 93 390 94 b 356 94 378 103 369 103 b 315 86 340 88 324 83 b 297 125 307 89 297 110 b 360 242 297 150 331 213 b 389 257 382 265 386 267 b 381 201 392 244 388 218 b 388 179 372 186 374 179 b 404 193 393 179 397 182 b 426 269 414 208 426 251 b 329 297 426 300 368 318 z m 471 372 b 450 390 464 376 456 383 b 332 410 432 408 372 419 b 143 115 213 381 118 236 b 242 4 154 60 190 19 b 322 4 264 -1 301 -3 b 436 75 358 13 406 43 b 490 160 454 96 479 133 b 471 372 528 240 518 336 z m 482 263 b 464 174 482 229 478 210 b 308 24 436 100 374 40 b 246 24 285 18 260 18 b 201 78 228 33 208 56 b 233 256 185 125 199 196 b 414 375 279 332 353 381 b 438 371 425 374 436 372 b 457 350 440 369 450 360 b 482 263 476 325 483 300 z "},"":{"ha":600,"x_min":0,"x_max":0,"o":"m 539 719 b 614 774 568 750 594 768 b 636 771 626 776 629 776 b 656 722 649 761 656 743 b 544 514 656 672 626 617 b 457 392 483 438 472 422 b 442 288 440 357 433 318 b 468 229 444 281 456 254 b 493 164 489 189 492 182 b 488 121 494 147 493 139 b 417 31 476 82 446 43 b 390 29 406 25 404 25 b 343 57 374 35 351 47 b 331 78 340 60 335 69 b 315 94 325 89 322 93 b 297 85 301 99 296 96 b 392 1 297 54 342 14 b 460 3 414 -6 442 -6 b 560 129 503 18 551 81 b 533 226 564 154 558 176 b 510 281 522 249 513 272 b 518 357 506 300 508 335 b 632 517 531 389 546 410 b 721 671 676 572 710 631 b 715 749 728 697 725 731 b 631 804 701 778 671 799 b 410 638 557 817 485 763 b 274 363 381 590 307 442 b 207 204 258 324 226 251 b 139 17 172 122 139 32 b 178 3 139 6 164 -4 b 192 17 182 4 189 11 b 296 251 201 35 267 179 b 539 719 417 546 471 647 z "},"":{"ha":379,"x_min":0,"x_max":0,"o":"m 358 263 b 290 228 340 265 322 256 b 260 201 276 215 263 204 b 243 215 257 199 254 201 b 200 243 232 233 218 240 b 182 240 192 243 186 243 b 181 225 176 236 176 235 b 203 193 183 221 193 206 b 219 167 213 181 219 168 b 183 129 219 165 204 149 b 153 58 133 79 129 68 b 222 86 176 46 181 49 l 261 118 l 285 96 b 333 67 307 75 318 67 b 343 79 342 67 346 72 b 317 113 342 82 331 96 b 294 144 306 129 294 143 b 336 185 294 147 314 165 b 389 243 379 222 389 233 b 358 263 389 251 374 260 z "},"":{"ha":439,"x_min":0,"x_max":0,"o":"m 410 31 b 146 26 399 35 156 31 b 161 1 133 21 140 10 b 233 -1 169 -1 183 -3 b 422 14 339 1 415 7 b 410 31 428 19 421 26 z m 222 185 b 239 182 239 186 240 186 b 225 115 232 163 225 133 b 251 64 225 89 233 74 b 275 58 260 60 268 57 l 286 58 l 286 79 b 311 168 285 104 290 122 l 325 199 l 356 197 b 400 204 401 196 400 196 b 361 221 399 213 388 217 l 340 225 l 356 250 b 375 288 364 264 374 281 b 368 306 378 297 378 297 b 350 317 364 310 356 315 b 274 256 318 326 306 315 b 258 226 265 240 258 228 b 222 224 258 226 243 225 b 169 199 167 218 156 214 b 222 185 179 188 200 182 z "},"":{"ha":282,"x_min":0,"x_max":0,"o":"m 215 649 b 193 653 206 654 204 656 b 168 625 181 649 171 638 b 183 599 167 613 171 604 b 208 599 194 594 197 594 b 228 632 219 604 228 619 b 215 649 228 638 225 642 z m 253 646 b 240 601 239 638 232 611 b 281 599 244 597 271 596 b 296 631 286 601 296 621 b 253 646 296 646 271 654 z "},"":{"ha":349,"x_min":0,"x_max":0,"o":"m 329 703 b 297 654 317 681 306 663 b 263 640 279 638 272 633 b 229 704 249 651 240 668 b 229 707 229 706 229 706 b 188 656 168 713 149 733 b 261 610 208 622 232 607 b 317 631 279 611 304 621 b 329 703 331 644 403 718 z "},"":{"ha":278,"x_min":0,"x_max":0,"o":"m 247 763 b 176 714 213 763 192 749 b 168 663 167 693 165 681 b 197 621 172 642 182 629 b 243 618 213 614 231 613 b 285 679 260 628 276 651 b 276 751 296 711 293 735 b 247 763 267 763 265 763 z m 261 675 b 246 647 258 667 251 654 b 231 635 239 640 232 635 b 226 644 229 635 228 639 b 264 732 222 667 254 742 b 261 675 268 728 268 692 z "},"":{"ha":304,"x_min":0,"x_max":0,"o":"m 204 604 b 239 603 213 599 232 599 b 267 649 242 606 253 625 b 303 715 278 671 294 701 b 318 744 313 731 318 743 b 300 747 318 750 307 751 b 269 707 297 744 283 726 b 239 703 243 667 246 667 b 228 728 236 713 232 724 b 201 735 222 735 219 735 b 174 726 182 735 181 735 b 168 704 168 719 167 717 b 204 604 172 667 192 614 z "},"":{"ha":269,"x_min":0,"x_max":0,"o":"m 225 746 b 171 636 215 738 178 663 b 179 604 165 615 167 610 b 214 613 192 599 211 603 b 247 672 215 615 231 643 b 282 735 265 703 282 731 b 225 746 288 756 247 764 z "},"":{"ha":336,"x_min":0,"x_max":0,"o":"m 181 610 b 197 625 188 610 190 613 b 222 636 211 649 213 649 b 269 600 236 619 253 607 b 338 611 297 592 322 594 b 347 661 347 621 353 651 b 325 663 342 668 331 669 b 319 646 322 660 319 654 b 308 619 319 632 315 621 b 296 629 304 618 300 622 b 200 668 276 660 225 682 b 171 631 190 664 178 649 b 181 610 164 617 167 610 z "},"":{"ha":297,"x_min":0,"x_max":0,"o":"m 196 600 b 242 643 218 600 222 603 b 257 671 249 658 256 671 b 268 643 257 671 263 658 b 290 590 278 613 286 594 b 303 589 293 589 299 588 b 301 643 314 590 314 592 b 290 703 297 664 292 690 b 265 733 289 729 285 733 b 242 726 253 733 249 732 b 167 611 229 714 167 619 b 196 600 167 603 175 600 z "},"":{"ha":233,"x_min":0,"x_max":0,"o":"m 233 657 b 172 647 211 672 185 668 b 188 601 161 628 168 607 b 240 621 211 596 226 601 b 233 657 250 638 249 647 z "},"":{"ha":357,"x_min":0,"x_max":0,"o":"m 225 753 b 171 643 215 744 178 669 b 179 611 165 622 167 617 b 214 619 192 606 211 610 b 247 679 215 622 231 650 b 282 742 265 710 282 738 b 225 753 288 763 247 771 z m 313 753 b 258 643 303 744 265 669 b 267 611 253 622 254 617 b 301 619 279 606 299 610 b 335 679 303 622 318 650 b 369 742 353 710 369 738 b 313 753 375 763 335 771 z "},"":{"ha":374,"x_min":0,"x_max":0,"o":"m 328 607 b 382 614 356 610 381 613 b 376 631 389 619 388 625 b 307 635 369 635 361 636 b 167 614 221 635 167 626 b 188 597 167 610 179 600 b 250 599 201 593 221 593 b 328 607 265 600 300 604 z "},"":{"ha":953,"x_min":0,"x_max":0,"o":"m 958 235 b 929 219 950 243 944 240 b 844 119 903 182 872 146 b 786 76 821 96 813 90 b 713 53 756 63 729 53 b 639 110 688 53 646 85 b 639 226 635 124 635 194 b 658 293 642 256 651 290 b 682 301 661 294 671 299 b 733 331 706 308 733 324 b 704 329 733 338 718 336 b 676 318 697 325 685 321 l 661 314 l 667 328 b 724 438 679 358 706 410 b 796 508 746 471 774 497 b 831 510 814 517 821 518 b 846 501 835 507 842 503 b 896 507 856 499 892 503 b 875 532 901 513 894 522 b 847 553 861 539 851 546 b 824 586 843 560 832 575 b 793 664 804 611 796 636 b 842 785 790 708 807 749 b 906 793 874 818 888 819 b 900 697 919 772 918 749 b 894 668 896 685 893 671 b 922 661 896 663 914 658 b 967 778 940 668 967 736 b 867 858 967 829 924 863 b 783 817 843 856 808 839 l 767 800 l 768 819 b 747 856 771 844 767 851 b 719 851 736 858 732 857 b 672 799 700 842 697 838 b 540 546 644 753 614 693 b 446 361 504 475 463 392 l 417 306 l 400 306 b 235 258 332 303 278 286 b 168 188 217 246 183 210 b 150 43 138 143 131 83 b 181 18 157 29 164 24 b 275 32 206 8 243 14 b 374 135 294 44 339 90 b 467 269 404 174 453 244 l 474 282 l 511 281 b 549 278 532 279 549 278 b 546 246 549 278 549 263 b 568 107 542 193 549 146 b 681 29 585 76 638 40 b 763 29 704 24 742 24 b 846 75 790 36 826 56 b 954 215 881 107 931 172 b 958 235 964 231 964 231 z m 681 504 b 704 586 683 514 694 551 l 722 647 l 726 636 b 775 561 733 621 765 571 b 778 553 779 556 781 553 b 726 532 756 546 738 539 b 693 504 718 526 703 514 l 675 486 z m 397 271 b 231 44 318 139 267 68 b 204 35 222 40 211 36 b 185 39 192 32 189 33 b 171 92 176 47 171 69 b 232 210 171 133 188 167 b 286 253 257 235 267 243 b 383 281 313 267 350 276 l 406 282 z m 600 519 b 556 319 579 443 563 365 l 551 299 l 540 300 b 508 346 481 301 483 297 b 565 456 519 367 546 417 b 600 519 585 494 600 524 z "},"":{"ha":793,"x_min":0,"x_max":0,"o":"m 793 739 b 744 764 783 753 769 761 b 651 726 708 769 686 761 b 564 575 615 689 585 636 b 554 521 556 550 554 542 b 572 453 554 493 558 475 l 582 438 l 569 435 b 543 426 564 433 551 431 b 528 421 535 422 528 419 b 533 444 528 422 531 432 b 549 619 547 499 554 579 b 472 744 539 681 511 726 b 378 751 447 756 406 760 b 292 697 344 743 326 731 b 224 600 257 664 244 643 b 188 447 197 547 188 506 b 206 354 188 408 192 386 l 214 335 l 201 307 b 143 122 175 251 151 175 b 150 35 138 88 140 53 b 194 -11 160 13 175 -1 b 236 -19 207 -18 213 -19 b 281 -11 261 -19 265 -18 b 396 115 310 4 360 57 l 410 136 l 411 113 b 433 26 414 85 424 47 b 508 -33 446 -1 476 -24 b 551 -37 519 -36 533 -37 b 674 31 597 -35 628 -18 b 757 129 740 99 761 124 b 724 119 750 138 739 135 b 610 18 689 83 629 31 b 539 -10 585 1 556 -10 b 490 60 517 -10 501 14 b 510 260 481 113 486 178 b 574 383 526 315 544 353 b 613 400 592 403 599 406 b 644 400 626 396 638 396 b 646 413 649 404 649 406 b 621 506 635 436 622 482 b 626 553 619 526 619 532 b 678 656 636 583 658 628 b 739 721 696 682 735 724 b 747 703 740 719 744 711 b 742 610 753 679 751 639 b 735 581 738 596 735 583 b 754 568 733 574 744 568 b 799 642 769 568 789 599 b 793 739 811 689 810 717 z m 489 435 b 363 135 467 342 410 207 b 256 19 331 85 286 36 b 236 11 247 14 239 11 b 225 22 233 11 229 15 b 222 108 215 36 214 75 b 264 240 228 138 250 206 l 275 265 l 293 247 b 383 201 326 218 367 196 b 369 224 396 204 392 210 b 293 304 342 240 293 292 b 313 343 293 307 303 324 b 333 383 324 361 332 379 b 301 407 335 393 321 404 b 260 397 282 410 271 407 b 250 396 251 390 251 390 b 247 436 249 399 247 417 b 353 683 247 528 286 617 b 444 724 390 721 424 735 b 501 631 467 713 493 671 b 489 435 511 586 507 503 z "},"":{"ha":454,"x_min":0,"x_max":0,"o":"m 558 183 b 546 186 554 186 549 188 b 492 133 543 186 518 161 b 376 26 438 76 394 38 b 347 17 369 22 356 18 l 331 14 l 322 22 b 315 94 308 39 306 57 b 329 108 318 108 318 108 b 433 211 357 108 394 146 b 463 279 450 239 463 269 b 408 310 463 296 443 307 b 306 260 375 313 339 296 l 293 247 l 293 272 b 268 318 293 300 289 308 b 158 304 238 335 192 329 b 33 100 99 260 50 181 b 51 22 24 60 31 39 b 107 7 67 11 82 7 b 140 18 124 7 126 8 b 193 68 149 24 172 46 l 229 108 l 232 82 b 251 25 233 54 238 44 b 306 -10 264 11 288 -4 b 349 -14 317 -12 331 -14 b 421 17 381 -12 393 -7 b 546 156 436 28 499 99 l 565 179 z m 363 204 b 418 260 378 226 417 264 b 363 156 426 247 397 194 b 325 131 349 140 325 125 b 363 204 325 138 350 188 z m 147 72 b 118 50 136 63 122 53 l 108 44 l 111 54 b 179 207 118 93 151 165 b 243 276 193 229 238 276 b 250 219 249 276 253 247 b 253 190 250 200 250 190 b 147 72 260 188 186 106 z "},"":{"ha":439,"x_min":0,"x_max":0,"o":"m 547 176 b 504 156 540 186 531 182 b 371 50 456 108 393 60 b 325 44 351 40 333 39 b 306 93 313 53 306 71 b 314 144 306 110 311 142 b 331 142 315 146 322 144 b 356 142 342 139 349 139 b 444 281 389 151 444 238 b 403 328 444 307 433 319 b 342 324 381 333 360 332 b 281 268 326 317 299 292 l 269 253 l 268 274 b 238 339 265 303 253 329 b 189 350 225 347 201 353 b 114 271 158 344 124 308 b 96 238 111 261 106 250 b 29 72 53 185 26 119 b 79 6 31 33 46 14 b 129 10 96 0 115 1 b 217 100 158 24 192 58 l 226 118 l 232 97 b 319 17 243 53 271 28 b 414 36 353 8 386 15 b 532 149 435 53 513 128 b 547 176 547 168 551 174 z m 353 225 b 399 286 368 256 393 290 b 397 235 404 281 403 250 b 354 171 390 215 371 186 b 335 165 342 160 338 158 b 353 225 332 175 338 194 z m 201 146 b 118 43 176 96 149 61 b 100 35 110 39 103 35 b 110 100 92 35 94 63 b 139 161 119 126 136 161 b 151 153 140 161 146 157 b 183 143 165 143 179 139 b 172 160 186 146 183 150 b 163 206 150 181 149 185 b 185 233 169 214 179 228 b 194 250 189 239 194 247 b 168 269 194 258 183 265 b 154 274 160 271 154 274 b 182 315 154 279 172 307 b 211 326 193 328 204 332 b 222 311 214 325 219 318 b 229 261 229 297 229 293 b 201 146 229 218 222 192 z "},"":{"ha":457,"x_min":0,"x_max":0,"o":"m 440 218 b 389 232 431 233 406 240 b 332 189 383 229 358 210 b 281 147 307 168 283 149 b 278 103 271 142 269 136 b 322 10 289 47 304 17 b 349 11 333 4 349 6 b 342 38 347 13 344 25 b 333 90 338 51 335 74 b 390 165 331 125 324 117 b 440 206 415 183 438 201 b 440 218 444 210 443 211 z m 247 182 b 339 250 313 225 338 244 b 314 272 342 257 331 268 b 286 271 300 276 299 276 b 239 240 279 268 258 254 b 182 200 219 225 194 208 b 140 168 153 182 142 174 b 160 88 139 163 150 114 b 197 26 169 65 188 33 b 211 17 200 22 207 18 b 235 18 219 14 232 15 b 229 36 236 18 233 28 b 208 108 218 60 214 75 b 247 182 201 156 199 149 z "},"":{"ha":606,"x_min":0,"x_max":0,"o":"m 579 154 l 454 154 b 164 143 340 154 196 149 b 139 129 150 140 139 135 b 169 108 139 122 156 111 b 301 111 183 104 222 106 b 436 117 326 113 386 115 b 592 133 578 121 592 122 b 586 147 592 136 589 143 z "},"":{"ha":476,"x_min":0,"x_max":0,"o":"m 504 321 b 479 336 504 326 493 333 b 431 307 467 338 460 333 l 417 293 l 403 300 b 325 317 381 313 360 317 l 294 318 l 293 326 b 290 344 292 331 290 339 b 265 369 290 358 282 367 b 251 321 240 374 235 356 l 263 301 l 254 296 b 206 242 240 285 215 257 b 190 106 179 194 172 143 l 196 94 l 176 75 b 146 14 142 42 132 19 b 178 19 160 8 171 10 b 206 47 181 25 193 36 b 233 61 225 64 226 64 b 290 49 246 54 275 49 b 321 53 297 49 313 50 b 339 54 332 56 339 56 b 350 35 339 53 344 44 b 386 11 361 18 372 11 b 388 32 394 11 394 15 b 376 60 383 39 378 53 l 372 75 l 386 86 b 446 185 414 111 439 153 b 444 258 449 199 447 235 b 474 290 444 263 451 271 b 504 321 492 306 504 318 z m 385 200 b 294 83 371 153 335 104 b 258 76 278 75 265 74 b 243 122 249 82 243 103 b 344 276 242 179 288 246 l 367 288 l 374 282 b 385 200 388 267 392 231 z "},"":{"ha":440,"x_min":0,"x_max":0,"o":"m 417 153 b 397 200 411 163 401 183 b 363 253 383 240 381 244 b 328 254 346 261 333 261 b 349 188 325 249 332 221 b 357 157 353 175 357 163 b 281 82 357 149 350 142 b 219 22 221 32 217 28 b 232 13 219 19 226 15 b 250 6 240 8 247 6 b 357 72 256 6 308 39 b 426 129 411 110 426 122 b 417 153 426 132 422 143 z m 286 138 b 283 154 289 144 289 146 b 265 193 281 160 272 176 b 208 257 243 240 235 250 b 183 249 194 261 183 257 b 219 178 183 243 208 196 b 224 164 224 171 225 167 b 179 110 222 161 203 138 b 140 58 154 81 139 61 b 153 49 142 56 147 51 b 190 54 169 42 171 42 b 286 138 218 74 279 126 z "},"":{"ha":461,"x_min":0,"x_max":0,"o":"m 528 503 b 500 508 521 511 508 514 b 431 394 490 503 476 478 b 389 328 407 351 392 328 b 368 333 388 329 378 332 b 253 275 332 339 297 322 b 197 193 224 244 213 228 b 189 71 176 144 174 103 b 228 28 196 57 215 35 b 204 -33 232 25 231 19 b 140 -185 168 -108 138 -179 b 147 -190 140 -186 144 -189 b 161 -193 151 -192 157 -193 b 221 -92 169 -193 172 -189 l 272 11 l 288 11 b 347 32 307 13 329 19 b 390 76 365 43 392 72 b 379 83 390 79 385 82 b 361 81 371 86 368 86 b 306 43 335 60 319 49 b 288 39 297 40 289 38 b 338 135 288 39 310 82 b 389 225 365 188 389 228 b 386 197 389 224 388 211 b 388 168 382 175 382 174 b 401 164 390 165 396 164 b 431 232 411 165 422 188 b 433 294 439 272 440 279 l 429 306 l 482 401 b 528 503 531 493 533 499 z m 365 274 b 313 175 361 268 338 224 b 261 79 286 128 264 85 l 256 71 l 256 78 b 303 214 254 111 275 171 b 363 278 315 232 349 269 l 371 285 z "},"":{"ha":450,"x_min":0,"x_max":0,"o":"m 424 160 b 319 165 415 164 406 165 b 140 147 203 165 144 160 b 161 126 138 140 149 131 b 250 131 174 124 200 124 b 356 138 269 133 317 136 b 431 142 394 139 428 142 b 424 160 439 146 436 154 z "},"":{"ha":425,"x_min":0,"x_max":0,"o":"m 532 531 b 590 658 572 606 590 646 b 564 682 592 672 582 679 b 539 674 553 683 549 682 b 442 524 517 654 481 599 b 358 417 419 485 401 460 b 218 317 290 350 233 308 b 204 353 211 321 204 340 b 265 518 204 390 225 443 b 326 653 307 590 326 635 b 276 679 326 665 300 679 b 224 619 261 679 249 664 b 140 389 167 519 140 447 b 167 317 140 351 147 338 b 265 297 196 289 236 279 b 351 369 281 306 321 339 b 369 385 361 379 369 386 b 332 306 369 383 353 349 b 279 197 311 264 288 215 l 264 167 l 244 164 b 158 135 156 156 140 150 b 219 125 169 125 192 121 b 243 126 232 126 243 128 b 239 113 244 126 242 119 l 232 97 l 196 93 b 150 85 175 90 154 88 b 147 65 138 81 136 74 b 196 51 158 56 175 50 b 213 53 206 53 213 53 b 203 28 213 53 208 42 b 169 -74 186 -11 172 -51 b 193 -128 163 -107 168 -119 b 222 -128 208 -132 214 -132 b 226 -112 231 -125 232 -118 b 300 67 219 -104 289 65 b 335 65 303 67 318 67 b 367 69 357 65 364 65 b 364 81 369 72 368 75 b 324 93 357 86 344 90 b 310 96 315 94 310 96 b 318 115 310 96 314 106 l 328 135 l 340 135 b 365 132 349 135 360 133 b 392 138 382 128 392 131 b 389 144 392 140 390 143 b 350 158 385 147 364 154 l 342 160 l 375 226 b 532 531 417 313 489 450 z "},"":{"ha":488,"x_min":0,"x_max":0,"o":"m 590 703 b 568 719 588 707 576 714 b 386 653 514 746 433 717 b 346 572 368 631 351 594 b 378 453 338 538 347 499 l 397 425 l 385 424 b 311 349 360 419 319 381 b 306 315 308 342 306 326 b 338 243 307 293 314 274 b 364 199 346 232 358 213 b 376 143 376 174 376 174 l 376 111 l 360 78 b 319 19 344 47 339 40 b 240 -22 292 -8 267 -21 b 199 1 215 -25 210 -21 b 192 35 189 19 189 21 b 231 110 197 54 215 92 b 279 144 244 129 267 144 b 290 158 292 144 297 151 b 210 164 278 174 236 176 b 147 85 188 156 163 122 b 157 -14 135 56 139 15 b 242 -56 171 -35 203 -50 b 332 -39 271 -60 301 -54 b 379 -3 349 -32 360 -22 b 436 175 438 56 457 117 b 389 257 429 196 415 219 b 375 278 382 268 375 278 b 403 282 375 279 388 282 b 485 328 451 286 476 300 b 456 439 494 363 489 383 b 418 544 424 490 417 511 b 429 590 419 565 421 572 b 518 689 451 636 483 672 b 557 685 543 701 551 700 b 551 624 563 671 560 644 b 489 531 543 601 513 556 b 471 506 472 514 468 508 b 496 501 476 500 488 497 b 589 622 515 508 575 586 b 590 703 601 656 601 688 z m 422 386 b 433 340 429 376 436 351 b 407 307 432 328 419 314 b 383 300 401 304 390 301 l 369 297 l 372 314 b 404 376 376 336 388 360 b 422 386 417 390 418 392 z "},"":{"ha":465,"x_min":0,"x_max":0,"o":"m 317 193 b 299 185 289 167 288 167 b 308 207 303 193 308 204 b 271 225 307 214 285 225 b 250 214 263 225 258 224 b 204 106 232 193 208 136 b 208 82 201 92 203 89 b 221 74 211 78 217 74 b 232 74 224 72 229 72 b 269 111 236 75 254 93 l 276 121 l 282 114 b 303 92 285 111 293 100 b 329 72 314 79 321 74 b 336 89 346 69 347 75 b 314 136 325 101 313 128 b 335 146 315 139 322 143 b 363 154 346 149 358 151 b 396 186 372 158 390 176 b 397 218 400 194 400 214 b 372 231 393 225 381 231 b 317 193 360 231 350 225 z m 326 169 b 326 179 311 164 311 165 b 361 204 342 194 358 207 b 326 169 364 201 335 174 z m 442 238 b 315 317 417 288 372 317 b 194 264 271 317 231 299 b 226 17 110 178 125 51 b 258 8 236 14 250 10 b 446 136 335 -6 419 53 b 451 185 450 151 451 163 b 442 238 451 215 451 217 z m 371 74 b 294 31 349 53 318 36 b 265 28 286 29 272 28 b 182 115 228 28 190 67 b 328 294 167 200 243 293 b 369 286 347 296 351 294 b 419 188 403 269 419 236 b 371 74 419 143 404 106 z "},"":{"ha":379,"x_min":0,"x_max":0,"o":"m 224 179 b 143 175 168 182 150 181 b 164 150 135 168 146 154 b 265 149 171 149 217 149 b 361 154 349 149 357 150 b 361 165 367 160 367 160 b 224 179 354 172 347 172 z "},"":{"ha":290,"x_min":0,"x_max":0,"o":"m 269 649 b 304 693 290 664 304 682 b 242 731 304 713 274 731 b 199 686 211 731 182 700 b 233 690 208 679 218 681 b 250 697 244 697 250 700 b 219 654 250 690 233 665 b 206 633 210 644 204 636 b 236 619 207 629 218 624 b 244 608 243 618 244 617 b 238 592 244 601 243 596 b 189 583 228 582 215 581 b 168 579 168 585 167 585 b 181 568 168 576 175 571 b 226 561 190 563 196 561 b 286 579 264 561 274 564 b 289 615 294 589 296 603 b 258 636 285 624 265 636 b 269 649 256 636 260 642 z "},"":{"ha":301,"x_min":0,"x_max":0,"o":"m 267 739 b 204 703 242 743 218 731 b 210 674 196 686 197 676 b 232 682 221 669 225 671 b 244 699 235 688 242 694 l 253 704 l 250 696 b 176 596 244 664 210 617 b 167 586 171 593 167 588 b 197 565 167 579 178 572 b 269 567 226 556 269 556 b 238 578 269 572 256 576 l 217 579 l 242 596 b 301 656 269 615 289 633 b 310 708 315 679 318 692 b 267 739 303 724 288 733 z "},"":{"ha":317,"x_min":0,"x_max":0,"o":"m 267 733 b 215 711 251 733 224 721 b 217 697 210 704 211 704 b 249 697 224 690 232 690 b 264 701 256 700 263 701 b 264 685 265 700 264 693 b 254 669 261 669 261 668 b 233 674 251 671 242 672 b 203 668 219 675 214 674 b 174 590 175 654 158 610 b 210 571 181 582 199 571 b 229 579 214 571 224 575 b 244 582 243 589 243 589 b 263 561 246 574 253 565 b 297 568 279 554 289 556 b 321 618 310 583 315 593 b 328 697 329 647 332 685 b 267 733 321 718 294 733 z m 253 635 b 236 614 250 625 246 621 b 217 600 229 608 219 601 b 211 603 211 597 211 597 b 246 651 211 618 236 651 b 253 635 253 651 256 646 z "},"":{"ha":306,"x_min":0,"x_max":0,"o":"m 294 724 b 258 732 283 731 276 732 b 222 722 240 732 235 731 b 175 599 178 697 154 638 b 211 568 181 588 199 572 b 258 569 225 563 244 564 b 306 624 274 576 293 599 b 314 703 319 650 324 681 b 294 724 310 715 307 718 z m 279 626 b 240 588 274 613 251 592 b 231 594 231 583 231 583 b 272 688 231 621 251 668 b 292 692 286 700 289 700 b 279 626 296 675 290 647 z "},"":{"ha":261,"x_min":0,"x_max":0,"o":"m 265 699 b 224 711 256 707 239 711 b 175 643 203 711 193 697 b 190 568 161 596 164 576 b 224 578 211 560 219 563 b 251 632 225 583 238 608 b 265 699 278 681 281 688 z "},"":{"ha":603,"x_min":0,"x_max":0,"o":"m 157 -103 b 192 -104 168 -108 183 -108 b 197 -89 196 -101 197 -97 b 207 -44 197 -83 201 -62 b 389 406 228 15 306 210 l 422 483 l 442 485 b 511 488 453 486 483 488 b 588 496 564 488 583 489 b 586 503 589 497 589 501 b 503 517 579 513 565 515 b 439 521 467 518 439 519 b 478 606 439 521 457 560 b 519 699 500 653 518 694 b 497 718 522 708 515 715 b 456 696 481 719 468 714 b 386 569 438 674 410 622 l 364 522 l 288 519 b 203 515 246 519 208 517 b 197 496 192 511 189 504 b 293 482 210 483 231 481 l 349 485 l 346 478 b 324 426 344 474 333 451 b 165 29 268 299 193 110 b 139 -74 151 -12 139 -58 b 157 -103 139 -87 146 -97 z "},"":{"ha":296,"x_min":0,"x_max":0,"o":"m 161 83 b 181 75 168 81 176 76 b 272 122 221 65 253 82 b 268 197 286 154 285 189 b 218 211 246 208 238 211 b 167 189 196 211 182 206 b 161 83 133 157 131 103 z "},"":{"ha":261,"x_min":0,"x_max":0,"o":"m 133 -36 b 193 -33 146 -43 175 -42 b 244 49 226 -18 254 24 b 213 67 242 58 225 67 b 210 85 203 67 203 69 b 215 103 213 90 215 99 b 185 110 214 111 199 115 b 169 94 175 107 172 106 b 163 69 168 89 165 78 b 158 53 160 64 158 56 b 186 43 158 47 174 40 b 196 36 196 44 196 44 b 154 -21 196 15 169 -22 b 149 14 142 -19 138 3 b 129 28 158 25 147 33 b 111 -3 118 25 111 13 b 133 -36 111 -18 119 -29 z "},"":{"ha":236,"x_min":0,"x_max":0,"o":"m 249 688 b 217 683 243 693 232 692 b 186 571 167 654 150 590 b 224 572 200 564 213 564 b 246 618 238 582 246 600 b 231 647 246 636 243 642 l 219 653 l 236 669 b 249 688 249 681 251 686 z "},"":{"ha":331,"x_min":0,"x_max":0,"o":"m 249 685 b 217 681 243 690 232 689 b 186 569 167 653 150 588 b 224 571 200 561 213 561 b 246 615 238 579 246 599 b 231 646 246 633 243 639 l 219 651 l 236 667 b 249 685 249 678 251 683 z m 325 646 l 314 651 l 331 667 b 343 685 343 678 346 683 b 311 681 338 690 326 689 b 281 569 261 653 244 588 b 318 571 294 561 307 561 b 340 615 332 579 340 599 b 325 646 340 633 338 639 z "},"":{"ha":331,"x_min":0,"x_max":0,"o":"m 211 682 b 169 629 190 682 169 656 b 186 600 169 611 174 606 l 197 593 l 181 578 b 168 560 168 567 165 561 b 200 564 174 554 185 556 b 246 661 238 586 260 633 b 211 682 240 671 222 682 z m 339 661 b 306 682 335 671 317 682 b 264 629 285 682 264 656 b 281 600 264 611 268 606 l 290 593 l 275 578 b 261 560 263 567 260 561 b 294 564 268 554 279 556 b 339 661 332 586 354 633 z "},"":{"ha":238,"x_min":0,"x_max":0,"o":"m 168 565 b 201 569 175 560 186 561 b 246 667 239 592 261 639 b 213 688 242 676 224 688 b 171 635 192 688 171 661 b 188 606 171 617 175 611 l 199 599 l 182 583 b 168 565 169 572 167 567 z "},"":{"ha":303,"x_min":0,"x_max":0,"o":"m 289 6 b 271 36 289 21 282 33 b 251 22 253 42 242 33 b 246 -12 263 11 258 -11 b 204 44 231 -14 204 24 b 214 51 204 53 204 53 b 242 61 226 49 242 56 b 238 78 242 64 240 72 l 231 103 b 215 118 228 114 225 115 b 185 111 201 124 186 119 b 190 93 185 107 188 99 b 188 75 197 78 197 75 b 156 57 175 75 158 67 b 207 -25 146 32 174 -10 b 267 -28 225 -33 254 -35 b 289 6 281 -21 289 -10 z "},"":{"ha":318,"x_min":0,"x_max":0,"o":"m 553 731 b 433 725 521 747 476 744 b 299 607 396 706 335 653 l 285 588 l 261 596 b 182 628 247 600 213 615 b -187 690 19 696 -97 715 b -303 560 -262 669 -307 619 b -265 519 -301 529 -292 519 b -226 563 -250 519 -250 519 b -81 661 -189 632 -150 657 b 167 603 -15 664 44 650 b 240 576 193 593 226 582 b 267 567 256 572 267 568 b 257 550 267 565 263 558 b 97 260 197 469 135 356 b 68 188 89 236 75 204 b 33 67 44 128 36 99 b 39 36 33 40 33 40 b 75 31 49 29 68 26 b 107 67 79 32 93 50 b 156 125 119 86 142 111 b 207 158 179 149 201 163 b 208 117 208 157 208 139 b 204 63 208 88 208 74 l 199 46 l 171 33 b 54 -67 115 6 72 -29 b 82 -143 33 -104 44 -136 b 181 -111 111 -149 144 -137 b 260 11 210 -89 238 -46 b 271 42 265 28 271 40 b 311 53 271 42 289 47 b 410 90 372 68 410 83 b 365 90 410 99 400 100 b 308 78 347 86 321 81 b 282 72 296 75 285 72 b 281 94 279 71 279 75 b 278 136 282 113 282 124 b 213 188 269 171 251 185 b 172 181 192 189 189 188 b 139 157 163 175 147 164 l 122 142 l 139 183 b 313 503 182 288 243 403 l 343 549 l 388 550 b 569 638 488 554 540 579 b 581 682 578 657 581 664 b 553 731 582 708 576 719 z m 167 -31 b 131 -86 151 -61 146 -71 b 86 -115 113 -104 90 -119 b 85 -101 86 -115 85 -108 b 122 -36 85 -82 96 -62 b 185 7 143 -15 181 10 b 167 -31 185 6 176 -11 z m 538 638 b 486 589 529 619 506 599 b 439 576 478 586 456 579 b 361 572 408 571 361 568 b 419 639 361 575 396 617 b 524 710 458 678 506 710 b 546 689 531 710 544 697 b 538 638 549 676 546 651 z "},"":{"ha":386,"x_min":0,"x_max":0,"o":"m 742 806 b 639 792 708 813 671 808 b 507 678 599 771 543 722 l 489 656 l 467 663 b 396 692 456 667 422 681 b 172 761 301 732 242 749 b -61 715 74 779 -11 761 b -97 639 -85 693 -96 669 b -81 590 -99 611 -94 597 b -44 589 -69 583 -51 583 b -22 626 -42 592 -32 608 b 7 671 -12 643 0 664 b 61 715 21 689 44 707 b 342 681 119 740 215 729 b 428 650 364 672 403 658 b 471 632 453 642 471 633 b 446 594 471 631 460 614 b 344 421 410 542 378 486 b 263 242 308 344 269 260 b 253 232 257 225 256 222 b 239 253 251 236 244 246 b 213 271 231 263 224 267 b 122 253 181 279 150 274 b 72 182 106 242 86 214 b 86 7 28 85 33 24 b 158 28 117 -1 139 4 b 221 93 178 53 222 99 b 217 63 221 90 218 76 b 225 -11 213 32 215 6 b 275 -49 233 -28 254 -43 b 339 -47 290 -51 326 -51 b 363 -35 344 -44 356 -39 b 431 51 375 -26 407 15 b 463 103 438 65 453 89 b 507 186 483 136 507 181 b 494 190 507 193 499 196 b 449 124 492 186 471 157 b 342 -10 390 33 371 11 b 286 61 292 -44 275 -21 b 389 347 294 124 339 246 b 521 574 436 440 471 501 l 550 617 l 588 617 b 671 626 625 617 631 617 b 785 725 728 639 767 672 b 742 806 799 764 781 797 z m 238 161 b 188 97 232 143 232 142 b 129 43 163 72 136 49 b 115 64 108 31 108 29 b 174 210 124 107 153 179 b 213 243 183 224 207 243 b 238 200 219 243 233 221 b 238 161 242 181 242 179 z m 751 736 b 724 679 750 713 740 694 b 640 643 703 660 681 650 b 569 640 601 636 565 635 b 635 714 575 653 611 692 b 718 772 665 742 696 765 b 747 763 733 779 736 778 b 751 736 753 754 753 750 z "},"":{"ha":360,"x_min":0,"x_max":0,"o":"m 549 725 b 429 719 517 742 472 739 b 294 601 392 700 331 647 l 281 582 l 257 590 b 178 622 243 594 208 610 b -192 685 15 690 -101 710 b -307 554 -267 664 -311 614 b -269 514 -306 524 -296 514 b -231 557 -254 514 -254 514 b -85 656 -193 626 -154 651 b 163 597 -19 658 40 644 b 236 571 189 588 222 576 b 263 561 251 567 263 563 b 253 544 263 560 258 553 b 93 254 193 464 131 350 b 64 182 85 231 71 199 b 29 61 40 122 32 93 b 35 31 29 35 29 35 b 54 24 39 28 47 25 b 111 75 74 21 81 26 b 217 203 153 139 185 178 b 233 213 225 210 233 214 b 204 121 236 210 224 174 b 160 -47 163 19 153 -22 b 193 -79 164 -58 179 -74 b 239 -81 207 -83 229 -85 b 268 -60 243 -79 257 -69 b 358 33 289 -44 299 -33 b 403 85 371 49 392 72 b 410 114 424 110 425 114 b 351 57 401 114 392 104 b 243 -49 311 10 267 -33 b 211 -53 218 -67 211 -67 b 235 15 211 -40 218 -24 b 294 165 267 85 290 143 b 251 243 307 215 294 239 b 226 243 242 246 232 246 b 150 175 213 240 182 213 b 121 144 135 157 121 143 b 136 182 121 144 128 161 b 308 497 183 292 242 400 l 339 543 l 383 544 b 565 632 483 549 536 574 b 576 676 574 651 576 658 b 549 725 578 703 572 714 z m 533 632 b 482 583 525 614 501 593 b 435 571 474 581 451 574 b 357 567 404 565 357 563 b 415 633 357 569 392 611 b 519 704 454 672 501 704 b 542 683 526 704 540 692 b 533 632 544 671 542 646 z "},"":{"ha":365,"x_min":0,"x_max":0,"o":"m 600 775 b 481 769 568 792 524 789 b 346 651 443 750 382 697 l 332 632 l 308 640 b 229 672 294 644 260 660 b -140 735 67 740 -50 760 b -256 604 -215 714 -260 664 b -218 564 -254 574 -244 564 b -179 607 -203 564 -203 564 b -33 706 -142 676 -103 701 b 214 647 32 708 92 694 b 288 621 240 638 274 626 b 314 611 303 617 314 613 b 304 594 314 610 310 603 b 144 304 244 514 182 400 b 115 232 136 281 122 249 b 81 111 92 172 83 143 b 86 79 81 85 81 85 b 107 74 90 78 100 75 b 164 128 125 71 129 76 b 194 171 179 153 193 172 b 203 79 201 168 204 132 b 206 10 200 28 200 24 b 239 -24 214 -7 224 -18 b 294 -22 256 -29 279 -28 b 326 0 301 -18 315 -8 b 446 124 353 22 417 88 b 464 157 467 151 469 154 b 419 122 457 163 451 158 b 261 -8 339 31 285 -15 b 249 68 250 -7 249 6 b 236 171 250 126 247 149 b 246 185 231 181 232 182 b 340 250 272 189 314 218 b 319 347 382 300 371 347 b 204 244 288 347 250 314 b 175 201 188 221 175 201 b 190 238 175 203 182 219 b 360 547 238 347 294 453 l 390 593 l 435 594 b 617 682 535 599 588 624 b 628 726 625 701 628 708 b 600 775 629 753 624 764 z m 279 292 b 324 326 294 308 318 326 b 321 297 328 326 326 310 b 243 208 308 264 272 224 b 211 200 226 200 211 196 b 279 292 211 204 263 275 z m 585 682 b 533 633 576 664 553 643 b 486 621 525 631 503 624 b 408 617 456 615 408 613 b 467 683 408 619 443 661 b 571 754 506 722 553 754 b 593 733 578 754 592 742 b 585 682 596 721 593 696 z "},"":{"ha":272,"x_min":0,"x_max":0,"o":"m 371 150 b 307 78 363 150 350 133 b 153 -57 253 7 194 -46 b 128 -57 140 -61 138 -61 b 97 -14 114 -53 101 -33 b 103 90 93 7 94 50 b 319 542 124 199 215 389 l 350 588 l 394 589 b 576 676 494 593 547 618 b 588 721 585 696 588 703 b 560 769 589 747 583 758 b 440 764 528 786 483 783 b 306 646 403 744 342 692 l 292 626 l 268 635 b 189 667 254 639 219 654 b -181 729 26 735 -90 754 b -296 599 -256 708 -300 658 b -258 558 -294 568 -285 558 b -219 601 -243 558 -243 558 b -74 700 -182 671 -143 696 b 174 642 -8 703 51 689 b 247 615 200 632 233 621 b 274 606 263 611 274 607 b 264 589 274 604 269 597 b 106 303 206 511 149 406 b 82 250 96 279 86 256 b 38 103 71 226 46 143 b 29 26 29 65 28 56 b 38 -22 31 -1 32 -8 b 106 -78 50 -50 74 -68 b 144 -81 114 -81 129 -81 b 192 -69 168 -81 174 -79 b 276 1 218 -57 250 -29 b 376 138 297 26 371 126 b 371 150 381 146 379 150 z m 426 678 b 531 749 465 717 513 749 b 553 728 538 749 551 736 b 544 676 556 715 553 690 b 493 628 536 658 513 638 b 446 615 485 625 463 618 b 368 611 415 610 368 607 b 426 678 368 614 403 656 z "},"":{"ha":329,"x_min":0,"x_max":0,"o":"m 511 -46 b 500 -68 496 -46 494 -50 b 506 -106 503 -76 506 -90 b 496 -146 504 -126 504 -131 b 418 -211 479 -178 456 -197 b 344 -218 397 -218 392 -218 b 246 -210 303 -218 288 -217 b 196 -200 219 -206 197 -201 b 210 -162 194 -199 201 -182 b 311 132 246 -87 300 68 b 319 175 317 153 319 172 b 292 193 319 186 310 192 l 276 194 l 276 213 b 233 288 276 249 260 276 b 156 285 213 296 176 294 b 43 97 104 261 49 168 b 107 18 39 47 63 19 b 197 76 136 18 149 28 b 235 113 219 99 236 115 b 179 -57 218 58 207 25 b 138 -174 160 -111 142 -162 b 122 -190 129 -189 128 -192 b 88 -186 118 -189 103 -187 b -132 -218 4 -176 -76 -189 b -228 -419 -215 -261 -258 -353 b -131 -485 -208 -460 -179 -479 b 60 -394 -65 -492 -14 -468 b 153 -272 97 -357 124 -322 b 176 -235 164 -254 175 -236 b 231 -239 178 -231 185 -232 b 360 -254 306 -253 319 -254 b 542 -179 453 -254 507 -232 b 565 -111 560 -154 565 -137 b 553 -62 565 -86 563 -74 b 511 -46 543 -54 525 -46 z m 232 151 b 136 58 215 132 151 68 b 110 49 121 47 113 44 b 176 217 101 61 143 165 b 218 260 192 240 210 260 b 242 228 224 260 235 244 b 244 190 244 217 246 207 b 232 151 243 167 243 165 z m 54 -319 b -106 -458 7 -387 -60 -444 b -154 -454 -128 -464 -137 -464 b -190 -337 -192 -436 -207 -387 b -101 -237 -176 -294 -144 -260 b 29 -211 -71 -222 -15 -211 b 111 -218 57 -211 99 -215 b 54 -319 117 -221 89 -271 z "},"":{"ha":163,"x_min":0,"x_max":0,"o":"m 376 -74 b 335 -57 368 -65 349 -57 b 324 -79 319 -57 318 -61 b 329 -117 328 -87 329 -101 b 319 -157 329 -137 328 -142 b 242 -222 303 -189 279 -208 b 168 -229 221 -229 215 -229 b 71 -221 126 -229 111 -228 b 19 -211 43 -217 21 -212 b 35 -174 19 -210 25 -193 b 131 96 64 -112 117 35 b 151 179 135 113 143 150 b 165 253 158 207 164 240 b 160 282 167 276 167 276 b 118 290 151 289 131 293 b 106 279 115 289 110 285 b 64 143 97 265 79 204 b 44 61 57 113 49 75 b -47 -200 31 10 -42 -194 b -79 -199 -49 -201 -62 -200 b -308 -229 -167 -187 -250 -199 b -403 -431 -392 -272 -435 -364 b -307 -496 -385 -471 -356 -490 b -117 -406 -242 -503 -190 -479 b -22 -283 -79 -368 -53 -333 b 0 -246 -12 -265 -1 -247 b 56 -250 3 -242 10 -243 b 183 -265 131 -264 143 -265 b 367 -190 276 -265 331 -243 b 389 -122 383 -165 389 -149 b 376 -74 389 -97 386 -85 z m -121 -331 b -282 -469 -169 -399 -235 -456 b -331 -465 -303 -475 -312 -475 b -367 -349 -368 -447 -383 -399 b -278 -249 -351 -306 -321 -271 b -147 -222 -246 -233 -192 -222 b -65 -229 -119 -222 -76 -226 b -121 -331 -60 -232 -87 -282 z m 136 321 b 157 318 142 319 150 318 b 172 333 168 318 168 318 b 199 386 176 353 183 365 b 178 429 217 410 211 422 b 133 404 153 435 146 431 b 122 363 125 388 124 378 b 136 321 121 338 124 326 z "},"":{"ha":401,"x_min":0,"x_max":0,"o":"m 583 -60 b 572 -82 568 -60 567 -64 b 578 -119 575 -90 578 -104 b 568 -160 576 -140 576 -144 b 490 -225 551 -192 528 -211 b 417 -232 469 -232 464 -232 b 318 -224 375 -232 360 -231 b 268 -214 292 -219 269 -215 b 282 -176 267 -212 274 -196 b 386 101 307 -125 368 38 b 414 251 400 147 414 226 b 404 282 414 274 414 274 b 354 286 389 297 364 299 b 338 236 351 282 344 260 b 281 124 325 189 318 175 b 188 25 242 69 210 36 b 150 21 165 15 160 14 b 168 226 126 39 133 113 b 186 292 178 257 186 286 b 158 311 186 307 179 311 b 131 301 142 311 140 311 b 64 139 111 282 75 194 b 68 46 58 108 60 68 b 108 1 75 28 90 10 b 192 1 124 -7 174 -6 b 296 106 224 17 263 56 b 307 122 303 118 308 125 b 296 76 307 119 301 99 b 229 -128 283 25 254 -61 b 193 -204 197 -210 200 -206 b 160 -200 190 -203 175 -201 b -60 -232 76 -190 -4 -203 b -156 -433 -143 -275 -186 -367 b -58 -499 -136 -474 -107 -493 b 132 -408 7 -506 58 -482 b 225 -286 169 -371 196 -336 b 249 -249 236 -268 247 -250 b 303 -253 250 -244 257 -246 b 432 -268 378 -267 392 -268 b 614 -193 525 -268 579 -246 b 638 -125 632 -168 638 -151 b 625 -76 638 -100 635 -87 b 583 -60 615 -68 597 -60 z m 126 -333 b -33 -472 79 -401 13 -458 b -82 -468 -56 -478 -65 -478 b -118 -351 -119 -450 -135 -401 b -29 -251 -104 -308 -72 -274 b 101 -225 1 -236 57 -225 b 183 -232 129 -225 171 -229 b 126 -333 189 -235 161 -285 z "},"":{"ha":658,"x_min":0,"x_max":0,"o":"m 479 243 b 415 236 472 244 464 244 b 493 449 449 303 475 375 b 514 589 508 517 514 547 b 442 722 514 667 493 707 b 353 717 413 732 378 729 b 276 646 328 706 294 674 b 244 561 260 618 244 579 b 271 535 244 542 253 533 l 283 535 l 301 572 b 332 626 313 593 325 617 b 411 693 353 658 390 689 b 440 664 425 694 432 689 b 439 526 449 636 449 575 b 332 221 419 422 382 315 b 203 178 247 203 204 189 b 228 161 201 169 215 163 b 310 181 239 161 265 165 l 278 129 b 208 74 235 64 242 69 b 83 47 158 79 113 69 b 63 -79 19 1 10 -62 b 176 -53 92 -87 132 -79 b 246 0 207 -35 218 -26 l 269 24 l 307 7 b 544 -31 406 -35 497 -49 b 621 86 626 -1 675 75 b 596 69 614 88 611 85 b 535 19 565 38 558 32 b 414 10 493 -3 469 -4 b 299 51 390 17 313 44 b 315 76 297 53 301 60 b 397 204 346 115 372 158 l 417 208 b 489 226 454 217 488 226 b 479 243 497 232 493 240 z m 192 42 l 214 42 l 188 14 b 108 -46 160 -15 138 -31 b 72 -56 90 -56 75 -58 b 76 -22 68 -51 71 -33 b 192 42 96 19 142 44 z "},"":{"ha":272,"x_min":0,"x_max":0,"o":"m 226 278 b 174 246 219 276 211 272 b 208 319 185 271 199 303 l 222 347 l 249 347 b 374 388 289 349 321 358 b 478 471 408 406 438 429 b 593 622 525 519 571 579 b 615 743 614 665 624 715 b 568 789 610 764 590 783 b 449 778 536 799 486 793 b 246 561 389 751 314 671 b 138 350 219 518 165 414 b 63 164 113 293 83 222 b 4 103 21 131 1 111 b 33 97 6 94 21 93 l 42 101 l 38 88 b 32 -15 29 51 26 10 b 100 -87 40 -49 67 -78 b 133 -92 107 -89 122 -92 b 169 -83 150 -92 156 -90 b 300 51 207 -65 250 -21 l 346 114 b 368 146 358 131 368 144 b 353 150 368 149 358 151 b 268 54 347 147 306 100 b 135 -65 217 -10 168 -54 b 114 -61 122 -69 122 -69 b 94 25 96 -44 89 -17 b 139 161 99 58 110 94 l 153 194 l 185 219 b 243 267 215 243 240 265 b 226 278 247 275 240 281 z m 242 382 b 278 449 246 390 261 421 b 511 756 369 617 453 725 b 563 646 565 782 593 721 b 508 556 551 622 533 589 b 383 429 489 528 413 450 b 283 376 363 413 311 386 b 250 368 274 374 260 369 l 233 367 z "},"":{"ha":297,"x_min":0,"x_max":0,"o":"m 264 314 b 260 322 265 321 265 321 b 243 322 253 325 247 325 b 218 285 238 318 229 307 b 171 293 204 292 189 294 b 94 218 131 289 100 258 b 81 189 93 208 89 200 b 36 94 64 167 43 121 b 33 17 28 65 26 31 b 72 -15 42 0 54 -10 l 47 -68 b 46 -76 44 -74 44 -74 l 54 -81 b 72 -74 65 -85 68 -83 l 101 -19 l 108 -19 b 147 -14 128 -19 138 -18 b 225 79 172 -3 207 39 l 232 99 l 278 99 b 392 122 331 99 354 104 b 421 146 417 136 424 140 b 381 139 417 150 406 149 b 250 118 333 119 281 111 b 243 128 242 119 242 121 b 249 157 243 132 246 146 b 254 208 251 169 254 192 b 247 254 254 235 253 240 l 243 261 b 264 314 257 289 263 307 z m 115 6 l 114 6 b 140 56 122 19 131 36 l 171 115 b 182 114 175 114 178 114 b 183 76 201 110 201 111 b 131 15 171 51 150 26 b 115 6 124 10 117 6 z m 154 243 b 186 267 165 263 175 271 b 201 253 192 265 197 260 b 154 158 188 228 172 197 l 154 160 b 163 183 153 164 154 168 b 157 217 176 206 176 210 b 154 243 146 219 146 224 z m 210 149 b 201 132 207 139 204 133 b 183 138 199 131 192 133 l 213 197 b 210 149 213 179 211 160 z m 124 113 b 135 131 129 122 133 131 b 139 128 136 129 138 128 l 106 58 b 124 113 110 75 115 94 z "},"":{"ha":419,"x_min":0,"x_max":0,"o":"m 542 738 b 531 758 543 753 543 753 b 494 756 517 764 503 764 b 465 718 488 751 478 739 b 407 728 447 724 428 728 b 228 633 347 728 292 699 b 146 515 194 600 168 563 b 115 394 122 464 115 439 b 129 297 115 351 118 326 l 136 276 l 118 246 b 29 29 72 169 36 81 b 39 -54 26 0 29 -35 b 67 -89 44 -68 54 -81 b 47 -131 56 -112 49 -125 b 46 -150 40 -143 40 -144 b 63 -158 47 -153 57 -156 b 106 -144 88 -168 97 -165 l 124 -110 b 207 -83 153 -112 175 -104 b 419 210 278 -37 335 43 b 510 424 463 296 482 339 b 543 603 538 504 544 547 b 532 658 542 636 542 638 l 521 676 b 542 738 533 707 540 728 z m 214 236 l 201 254 l 232 311 b 264 372 250 342 264 369 b 229 388 263 379 246 388 b 204 375 218 388 215 385 b 185 350 199 368 189 357 b 175 342 181 343 176 339 b 174 383 174 343 172 360 b 183 450 175 418 175 425 b 281 610 204 508 240 568 b 403 694 325 656 367 685 b 450 692 425 699 436 700 b 218 229 404 613 328 460 z m 297 126 b 304 143 324 125 326 132 b 272 168 297 146 285 156 b 492 611 372 363 447 514 b 493 581 493 603 493 592 b 451 383 494 521 483 471 b 253 11 403 250 318 92 b 146 -79 221 -29 178 -64 b 139 -82 143 -79 142 -81 l 258 143 b 297 126 274 133 288 126 z m 163 192 l 176 214 l 200 192 b 146 76 182 154 164 117 l 89 -42 l 89 -18 b 113 86 89 19 93 35 b 163 192 126 122 143 153 z "},"":{"ha":579,"x_min":0,"x_max":0,"o":"m 122 -68 b 263 75 164 -43 208 1 b 303 115 289 110 293 114 b 425 115 317 118 425 118 b 417 71 425 115 422 94 b 410 -26 408 29 408 26 b 414 -99 410 -57 413 -89 b 458 -178 422 -144 436 -169 b 486 -164 486 -187 504 -179 b 476 -132 481 -158 479 -153 b 500 78 471 -79 478 -10 b 528 126 513 128 510 122 b 581 144 546 129 574 139 b 572 163 589 150 585 157 b 543 161 561 167 560 167 b 524 156 533 157 525 156 b 588 339 521 158 544 225 b 699 708 697 625 715 690 b 649 721 688 721 656 729 b 614 671 647 721 632 697 b 511 519 596 644 550 575 b 389 339 472 463 418 382 b 296 204 360 297 318 236 l 254 147 l 232 143 b 96 90 186 138 129 115 b 31 -7 60 64 33 26 b 49 -61 26 -35 31 -42 b 122 -68 72 -87 90 -89 z m 346 190 b 469 374 360 213 417 296 b 568 517 522 453 567 518 b 550 471 568 517 560 496 b 435 150 506 358 453 211 b 376 146 435 147 421 146 b 317 147 343 146 317 147 b 346 190 317 150 329 168 z m 75 7 b 208 101 97 49 144 83 b 201 76 225 107 226 108 b 117 -15 171 38 142 6 b 67 -40 92 -37 69 -47 b 75 7 64 -32 68 -8 z m 732 935 b 678 825 722 926 685 851 b 686 793 672 804 674 799 b 721 801 699 788 718 792 b 754 861 722 804 738 832 b 789 924 772 892 789 919 b 732 935 794 944 754 953 z "},"":{"ha":579,"x_min":0,"x_max":0,"o":"m 122 -68 b 263 75 164 -43 208 1 b 303 115 289 110 293 114 b 425 115 317 118 425 118 b 417 71 425 115 422 94 b 410 -26 408 29 408 26 b 414 -99 410 -57 413 -89 b 458 -178 422 -144 436 -169 b 486 -164 486 -187 504 -179 b 476 -132 481 -158 479 -153 b 500 78 471 -79 478 -10 b 528 126 513 128 510 122 b 581 144 546 129 574 139 b 572 163 589 150 585 157 b 543 161 561 167 560 167 b 524 156 533 157 525 156 b 588 339 521 158 544 225 b 699 708 697 625 715 690 b 649 721 688 721 656 729 b 614 671 647 721 632 697 b 511 519 596 644 550 575 b 389 339 472 463 418 382 b 296 204 360 297 318 236 l 254 147 l 232 143 b 96 90 186 138 129 115 b 31 -7 60 64 33 26 b 49 -61 26 -35 31 -42 b 122 -68 72 -87 90 -89 z m 346 190 b 469 374 360 213 417 296 b 568 517 522 453 567 518 b 550 471 568 517 560 496 b 435 150 506 358 453 211 b 376 146 435 147 421 146 b 317 147 343 146 317 147 b 346 190 317 150 329 168 z m 75 7 b 208 101 97 49 144 83 b 201 76 225 107 226 108 b 117 -15 171 38 142 6 b 67 -40 92 -37 69 -47 b 75 7 64 -32 68 -8 z m 778 892 b 746 843 765 869 754 851 b 711 829 728 826 721 822 b 678 893 697 840 689 857 b 678 896 678 894 678 894 b 636 844 617 901 597 922 b 710 799 657 811 681 796 b 765 819 728 800 753 810 b 778 892 779 833 851 907 z "},"":{"ha":579,"x_min":0,"x_max":0,"o":"m 122 -68 b 263 75 164 -43 208 1 b 303 115 289 110 293 114 b 425 115 317 118 425 118 b 417 71 425 115 422 94 b 410 -26 408 29 408 26 b 414 -99 410 -57 413 -89 b 458 -178 422 -144 436 -169 b 486 -164 486 -187 504 -179 b 476 -132 481 -158 479 -153 b 500 78 471 -79 478 -10 b 528 126 513 128 510 122 b 581 144 546 129 574 139 b 572 163 589 150 585 157 b 543 161 561 167 560 167 b 524 156 533 157 525 156 b 588 339 521 158 544 225 b 699 708 697 625 715 690 b 649 721 688 721 656 729 b 614 671 647 721 632 697 b 511 519 596 644 550 575 b 389 339 472 463 418 382 b 296 204 360 297 318 236 l 254 147 l 232 143 b 96 90 186 138 129 115 b 31 -7 60 64 33 26 b 49 -61 26 -35 31 -42 b 122 -68 72 -87 90 -89 z m 346 190 b 469 374 360 213 417 296 b 568 517 522 453 567 518 b 550 471 568 517 560 496 b 435 150 506 358 453 211 b 376 146 435 147 421 146 b 317 147 343 146 317 147 b 346 190 317 150 329 168 z m 75 7 b 208 101 97 49 144 83 b 201 76 225 107 226 108 b 117 -15 171 38 142 6 b 67 -40 92 -37 69 -47 b 75 7 64 -32 68 -8 z m 650 789 b 696 832 672 789 676 792 b 711 860 703 847 710 860 b 722 832 711 860 717 847 b 744 779 732 801 740 783 b 757 778 747 778 753 776 b 756 832 768 779 768 781 b 744 892 751 853 746 879 b 719 922 743 918 739 922 b 696 915 707 922 703 921 b 621 800 683 903 621 808 b 650 789 621 792 629 789 z "},"":{"ha":579,"x_min":0,"x_max":0,"o":"m 122 -68 b 263 75 164 -43 208 1 b 303 115 289 110 293 114 b 425 115 317 118 425 118 b 417 71 425 115 422 94 b 410 -26 408 29 408 26 b 414 -99 410 -57 413 -89 b 458 -178 422 -144 436 -169 b 486 -164 486 -187 504 -179 b 476 -132 481 -158 479 -153 b 500 78 471 -79 478 -10 b 528 126 513 128 510 122 b 581 144 546 129 574 139 b 572 163 589 150 585 157 b 543 161 561 167 560 167 b 524 156 533 157 525 156 b 588 339 521 158 544 225 b 699 708 697 625 715 690 b 649 721 688 721 656 729 b 614 671 647 721 632 697 b 511 519 596 644 550 575 b 389 339 472 463 418 382 b 296 204 360 297 318 236 l 254 147 l 232 143 b 96 90 186 138 129 115 b 31 -7 60 64 33 26 b 49 -61 26 -35 31 -42 b 122 -68 72 -87 90 -89 z m 346 190 b 469 374 360 213 417 296 b 568 517 522 453 567 518 b 550 471 568 517 560 496 b 435 150 506 358 453 211 b 376 146 435 147 421 146 b 317 147 343 146 317 147 b 346 190 317 150 329 168 z m 75 7 b 208 101 97 49 144 83 b 201 76 225 107 226 108 b 117 -15 171 38 142 6 b 67 -40 92 -37 69 -47 b 75 7 64 -32 68 -8 z m 714 925 b 651 939 704 938 669 944 b 676 842 636 935 644 903 b 715 797 694 807 699 801 b 744 801 725 794 740 797 b 739 835 746 803 744 814 b 724 893 733 851 728 878 b 714 925 721 908 717 922 z "},"":{"ha":579,"x_min":0,"x_max":0,"o":"m 122 -68 b 263 75 164 -43 208 1 b 303 115 289 110 293 114 b 425 115 317 118 425 118 b 417 71 425 115 422 94 b 410 -26 408 29 408 26 b 414 -99 410 -57 413 -89 b 458 -178 422 -144 436 -169 b 486 -164 486 -187 504 -179 b 476 -132 481 -158 479 -153 b 500 78 471 -79 478 -10 b 528 126 513 128 510 122 b 581 144 546 129 574 139 b 572 163 589 150 585 157 b 543 161 561 167 560 167 b 524 156 533 157 525 156 b 588 339 521 158 544 225 b 699 708 697 625 715 690 b 649 721 688 721 656 729 b 614 671 647 721 632 697 b 511 519 596 644 550 575 b 389 339 472 463 418 382 b 296 204 360 297 318 236 l 254 147 l 232 143 b 96 90 186 138 129 115 b 31 -7 60 64 33 26 b 49 -61 26 -35 31 -42 b 122 -68 72 -87 90 -89 z m 346 190 b 469 374 360 213 417 296 b 568 517 522 453 567 518 b 550 471 568 517 560 496 b 435 150 506 358 453 211 b 376 146 435 147 421 146 b 317 147 343 146 317 147 b 346 190 317 150 329 168 z m 75 7 b 208 101 97 49 144 83 b 201 76 225 107 226 108 b 117 -15 171 38 142 6 b 67 -40 92 -37 69 -47 b 75 7 64 -32 68 -8 z m 688 838 b 665 842 678 843 676 844 b 640 814 653 838 643 826 b 656 788 639 801 643 793 b 681 788 667 783 669 783 b 700 821 692 793 700 808 b 688 838 700 826 697 831 z m 725 835 b 713 790 711 826 704 800 b 753 788 717 786 743 785 b 768 819 758 790 768 810 b 725 835 768 835 743 843 z "},"":{"ha":579,"x_min":0,"x_max":0,"o":"m 122 -68 b 263 75 164 -43 208 1 b 303 115 289 110 293 114 b 425 115 317 118 425 118 b 417 71 425 115 422 94 b 410 -26 408 29 408 26 b 414 -99 410 -57 413 -89 b 458 -178 422 -144 436 -169 b 486 -164 486 -187 504 -179 b 476 -132 481 -158 479 -153 b 500 78 471 -79 478 -10 b 528 126 513 128 510 122 b 581 144 546 129 574 139 b 572 163 589 150 585 157 b 543 161 561 167 560 167 b 524 156 533 157 525 156 b 588 339 521 158 544 225 b 699 708 697 625 715 690 b 649 721 688 721 656 729 b 614 671 647 721 632 697 b 511 519 596 644 550 575 b 389 339 472 463 418 382 b 296 204 360 297 318 236 l 254 147 l 232 143 b 96 90 186 138 129 115 b 31 -7 60 64 33 26 b 49 -61 26 -35 31 -42 b 122 -68 72 -87 90 -89 z m 346 190 b 469 374 360 213 417 296 b 568 517 522 453 567 518 b 550 471 568 517 560 496 b 435 150 506 358 453 211 b 376 146 435 147 421 146 b 317 147 343 146 317 147 b 346 190 317 150 329 168 z m 75 7 b 208 101 97 49 144 83 b 201 76 225 107 226 108 b 117 -15 171 38 142 6 b 67 -40 92 -37 69 -47 b 75 7 64 -32 68 -8 z m 775 796 b 829 803 803 799 828 801 b 824 819 836 808 835 814 b 754 824 817 824 808 825 b 614 803 668 824 614 815 b 635 786 614 799 626 789 b 697 788 649 782 668 782 b 775 796 713 789 747 793 z "},"":{"ha":579,"x_min":0,"x_max":0,"o":"m 485 -283 b 485 -247 493 -269 493 -256 b 461 -250 472 -233 458 -235 b 439 -276 465 -265 450 -282 b 431 -207 425 -271 421 -225 b 443 -206 435 -200 435 -200 b 472 -211 453 -214 469 -215 b 476 -194 474 -208 476 -201 l 479 -182 b 486 -164 493 -182 499 -174 l 485 -162 b 479 -150 485 -157 483 -154 b 476 -132 478 -146 478 -139 b 500 78 471 -79 478 -10 b 528 126 513 128 510 122 b 581 144 546 129 574 139 b 572 163 589 150 585 157 b 543 161 561 167 560 167 b 524 156 533 157 525 156 b 588 339 521 158 544 225 b 699 708 697 625 715 690 b 649 721 688 721 656 729 b 614 671 647 721 632 697 b 511 519 596 644 550 575 l 389 339 l 296 204 l 254 147 l 232 143 b 96 90 186 138 129 115 b 31 -7 60 64 33 26 b 49 -61 26 -35 31 -42 b 122 -68 72 -87 90 -89 b 263 75 164 -43 208 1 b 303 115 289 110 293 114 b 425 115 317 118 425 118 b 417 71 425 115 422 94 b 410 -26 408 29 408 26 b 414 -99 410 -57 413 -89 b 442 -167 419 -132 429 -154 b 432 -172 440 -175 438 -175 b 396 -171 421 -165 403 -164 b 399 -268 375 -187 378 -237 b 449 -300 410 -285 435 -300 b 485 -283 464 -301 478 -296 z m 346 190 b 469 374 360 213 417 296 b 568 517 522 453 567 518 b 550 471 568 517 560 496 b 435 150 506 358 453 211 b 376 146 435 147 421 146 b 317 147 343 146 317 147 b 346 190 317 150 329 168 z m 75 7 b 208 101 97 49 144 83 b 201 76 225 107 226 108 b 117 -15 171 38 142 6 b 67 -40 92 -37 69 -47 b 75 7 64 -32 68 -8 z "},"":{"ha":579,"x_min":0,"x_max":0,"o":"m 122 -68 b 263 75 164 -43 208 1 b 303 115 289 110 293 114 b 425 115 317 118 425 118 b 417 71 425 115 422 94 b 410 -26 408 29 408 26 b 414 -99 410 -57 413 -89 b 458 -178 422 -144 436 -169 b 486 -164 486 -187 504 -179 b 476 -132 481 -158 479 -153 b 500 78 471 -79 478 -10 b 528 126 513 128 510 122 b 581 144 546 129 574 139 b 572 163 589 150 585 157 b 543 161 561 167 560 167 b 524 156 533 157 525 156 b 588 339 521 158 544 225 b 699 708 697 625 715 690 b 649 721 688 721 656 729 b 614 671 647 721 632 697 b 511 519 596 644 550 575 b 389 339 472 463 418 382 b 296 204 360 297 318 236 l 254 147 l 232 143 b 96 90 186 138 129 115 b 31 -7 60 64 33 26 b 49 -61 26 -35 31 -42 b 122 -68 72 -87 90 -89 z m 346 190 b 469 374 360 213 417 296 b 568 517 522 453 567 518 b 550 471 568 517 560 496 b 435 150 506 358 453 211 b 376 146 435 147 421 146 b 317 147 343 146 317 147 b 346 190 317 150 329 168 z m 75 7 b 208 101 97 49 144 83 b 201 76 225 107 226 108 b 117 -15 171 38 142 6 b 67 -40 92 -37 69 -47 b 75 7 64 -32 68 -8 z m 731 951 b 660 903 696 951 675 938 b 651 851 650 882 649 869 b 681 810 656 831 665 818 b 726 807 696 803 714 801 b 768 868 743 817 760 840 b 760 940 779 900 776 924 b 731 951 750 951 749 951 z m 744 864 b 729 836 742 856 735 843 b 714 824 722 829 715 824 b 710 833 713 824 711 828 b 747 921 706 856 738 931 b 744 864 751 917 751 881 z "},"":{"ha":579,"x_min":0,"x_max":0,"o":"m 122 -68 b 263 75 164 -43 208 1 b 303 115 289 110 293 114 b 425 115 317 118 425 118 b 417 71 425 115 422 94 b 410 -26 408 29 408 26 b 414 -99 410 -57 413 -89 b 458 -178 422 -144 436 -169 b 486 -164 486 -187 504 -179 b 476 -132 481 -158 479 -153 b 500 78 471 -79 478 -10 b 528 126 513 128 510 122 b 581 144 546 129 574 139 b 572 163 589 150 585 157 b 543 161 561 167 560 167 b 524 156 533 157 525 156 b 588 339 521 158 544 225 b 699 708 697 625 715 690 b 649 721 688 721 656 729 b 614 671 647 721 632 697 b 511 519 596 644 550 575 b 389 339 472 463 418 382 b 296 204 360 297 318 236 l 254 147 l 232 143 b 96 90 186 138 129 115 b 31 -7 60 64 33 26 b 49 -61 26 -35 31 -42 b 122 -68 72 -87 90 -89 z m 346 190 b 469 374 360 213 417 296 b 568 517 522 453 567 518 b 550 471 568 517 560 496 b 435 150 506 358 453 211 b 376 146 435 147 421 146 b 317 147 343 146 317 147 b 346 190 317 150 329 168 z m 75 7 b 208 101 97 49 144 83 b 201 76 225 107 226 108 b 117 -15 171 38 142 6 b 67 -40 92 -37 69 -47 b 75 7 64 -32 68 -8 z m 642 799 b 658 814 649 799 651 801 b 683 825 672 838 674 838 b 731 789 697 808 714 796 b 799 800 758 781 783 783 b 808 850 808 810 814 840 b 786 851 803 857 792 858 b 781 835 783 849 781 843 b 769 808 781 821 776 810 b 757 818 765 807 761 811 b 661 857 738 849 686 871 b 632 819 651 853 639 838 b 642 799 625 806 628 799 z "},"":{"ha":953,"x_min":0,"x_max":0,"o":"m 958 235 b 929 219 950 243 944 240 b 844 119 903 182 872 146 b 786 76 821 96 813 90 b 713 53 756 63 729 53 b 639 110 688 53 646 85 b 639 226 635 124 635 194 b 658 293 642 256 651 290 b 682 301 661 294 671 299 b 733 331 706 308 733 324 b 704 329 733 338 718 336 b 676 318 697 325 685 321 l 661 314 l 667 328 b 724 438 679 358 706 410 b 796 508 746 471 774 497 b 831 510 814 517 821 518 b 846 501 835 507 842 503 b 896 507 856 499 892 503 b 875 532 901 513 894 522 b 847 553 861 539 851 546 b 824 586 843 560 832 575 b 793 664 804 611 796 636 b 842 785 790 708 807 749 b 906 793 874 818 888 819 b 900 697 919 772 918 749 b 894 668 896 685 893 671 b 922 661 896 663 914 658 b 967 778 940 668 967 736 b 867 858 967 829 924 863 b 783 817 843 856 808 839 l 767 800 l 768 819 b 747 856 771 844 767 851 b 719 851 736 858 732 857 b 672 799 700 842 697 838 b 540 546 644 753 614 693 b 446 361 504 475 463 392 l 417 306 l 400 306 b 235 258 332 303 278 286 b 168 188 217 246 183 210 b 150 43 138 143 131 83 b 181 18 157 29 164 24 b 275 32 206 8 243 14 b 374 135 294 44 339 90 b 467 269 404 174 453 244 l 474 282 l 511 281 b 549 278 532 279 549 278 b 546 246 549 278 549 263 b 568 107 542 193 549 146 b 681 29 585 76 638 40 b 763 29 704 24 742 24 b 846 75 790 36 826 56 b 954 215 881 107 931 172 b 958 235 964 231 964 231 z m 681 504 b 704 586 683 514 694 551 l 722 647 l 726 636 b 775 561 733 621 765 571 b 778 553 779 556 781 553 b 726 532 756 546 738 539 b 693 504 718 526 703 514 l 675 486 z m 397 271 b 231 44 318 139 267 68 b 204 35 222 40 211 36 b 185 39 192 32 189 33 b 171 92 176 47 171 69 b 232 210 171 133 188 167 b 286 253 257 235 267 243 b 383 281 313 267 350 276 l 406 282 z m 600 519 b 556 319 579 443 563 365 l 551 299 l 540 300 b 508 346 481 301 483 297 b 565 456 519 367 546 417 b 600 519 585 494 600 524 z m 840 1035 b 786 925 831 1026 793 951 b 794 893 781 904 782 899 b 829 901 807 888 826 892 b 863 961 831 904 846 932 b 897 1024 881 992 897 1019 b 840 1035 903 1044 863 1053 z "},"":{"ha":311,"x_min":0,"x_max":0,"o":"m 35 72 b 149 -56 46 11 92 -42 b 203 -56 171 -60 176 -60 b 282 -11 236 -49 257 -37 b 365 89 307 15 335 47 b 375 126 390 121 392 126 b 343 100 368 126 363 121 b 283 36 331 86 303 57 b 221 -14 250 3 242 -3 b 175 -28 201 -24 193 -26 b 143 -19 154 -29 154 -29 b 111 29 131 -8 117 13 b 104 129 104 51 100 96 b 154 315 111 189 128 251 b 358 650 207 442 292 581 b 410 689 376 671 401 689 b 419 676 411 689 415 683 b 379 426 444 632 431 536 l 367 399 l 372 394 b 443 486 393 378 413 403 b 476 654 467 551 481 617 b 450 713 475 674 464 700 b 400 731 439 724 422 729 b 203 590 340 735 274 688 b 39 247 126 486 57 342 b 35 72 26 186 25 124 z m 463 944 b 408 835 453 936 415 861 b 417 803 403 814 404 808 b 451 811 429 797 449 801 b 485 871 453 814 468 842 b 519 933 503 901 519 929 b 463 944 525 954 485 963 z "},"":{"ha":311,"x_min":0,"x_max":0,"o":"m 35 72 b 149 -56 46 11 92 -42 b 203 -56 171 -60 176 -60 b 282 -11 236 -49 257 -37 b 365 89 307 15 335 47 b 375 126 390 121 392 126 b 343 100 368 126 363 121 b 283 36 331 86 303 57 b 221 -14 250 3 242 -3 b 175 -28 201 -24 193 -26 b 143 -19 154 -29 154 -29 b 111 29 131 -8 117 13 b 104 129 104 51 100 96 b 154 315 111 189 128 251 b 358 650 207 442 292 581 b 410 689 376 671 401 689 b 419 676 411 689 415 683 b 379 426 444 632 431 536 l 367 399 l 372 394 b 443 486 393 378 413 403 b 476 654 467 551 481 617 b 450 713 475 674 464 700 b 400 731 439 724 422 729 b 203 590 340 735 274 688 b 39 247 126 486 57 342 b 35 72 26 186 25 124 z m 417 803 b 451 801 425 797 444 797 b 479 847 454 804 465 824 b 515 914 490 869 507 900 b 531 943 525 929 531 942 b 513 946 531 949 519 950 b 482 906 510 943 496 925 b 451 901 456 865 458 865 b 440 926 449 911 444 922 b 414 933 435 933 432 933 b 386 925 394 933 393 933 b 381 903 381 918 379 915 b 417 803 385 865 404 813 z "},"":{"ha":311,"x_min":0,"x_max":0,"o":"m 93 -167 b 153 -164 106 -174 135 -172 b 204 -82 186 -149 214 -107 b 172 -64 201 -72 185 -64 b 164 -58 165 -64 164 -62 b 203 -56 175 -60 183 -58 b 282 -11 236 -49 257 -37 b 365 89 307 15 335 47 b 375 126 390 121 392 126 b 343 100 368 126 363 121 l 283 36 b 221 -14 250 3 242 -3 b 175 -28 201 -24 193 -26 b 144 -21 174 -19 158 -15 l 143 -19 b 111 29 131 -8 117 13 b 104 129 104 51 100 96 b 154 315 111 189 128 251 b 358 650 207 442 292 581 b 410 689 376 671 401 689 b 419 676 411 689 415 683 b 379 426 444 632 431 536 l 367 399 l 372 394 b 443 486 393 378 413 403 b 476 654 467 551 481 617 b 450 713 475 674 464 700 b 400 731 439 724 422 729 b 203 590 340 735 274 688 b 39 247 126 486 57 342 b 35 72 26 186 25 124 b 126 -47 44 19 79 -26 l 122 -61 b 118 -78 119 -67 118 -75 b 146 -87 118 -83 133 -90 b 156 -94 156 -86 156 -86 b 114 -151 156 -115 129 -153 b 108 -117 101 -150 97 -128 b 89 -103 118 -106 107 -97 b 71 -133 78 -106 71 -118 b 93 -167 71 -149 79 -160 z "},"":{"ha":311,"x_min":0,"x_max":0,"o":"m 35 72 b 149 -56 46 11 92 -42 b 203 -56 171 -60 176 -60 b 282 -11 236 -49 257 -37 b 365 89 307 15 335 47 b 375 126 390 121 392 126 b 343 100 368 126 363 121 b 283 36 331 86 303 57 b 221 -14 250 3 242 -3 b 175 -28 201 -24 193 -26 b 143 -19 154 -29 154 -29 b 111 29 131 -8 117 13 b 104 129 104 51 100 96 b 154 315 111 189 128 251 b 358 650 207 442 292 581 b 410 689 376 671 401 689 b 419 676 411 689 415 683 b 379 426 444 632 431 536 l 367 399 l 372 394 b 443 486 393 378 413 403 b 476 654 467 551 481 617 b 450 713 475 674 464 700 b 400 731 439 724 422 729 b 203 590 340 735 274 688 b 39 247 126 486 57 342 b 35 72 26 186 25 124 z m 381 799 b 426 842 403 799 407 801 b 442 869 433 857 440 869 b 453 842 442 869 447 857 b 475 789 463 811 471 793 b 488 788 478 788 483 786 b 486 842 499 789 499 790 b 475 901 482 863 476 889 b 450 932 474 928 469 932 b 426 925 438 932 433 931 b 351 810 414 913 351 818 b 381 799 351 801 360 799 z "},"":{"ha":311,"x_min":0,"x_max":0,"o":"m 35 72 b 149 -56 46 11 92 -42 b 203 -56 171 -60 176 -60 b 282 -11 236 -49 257 -37 b 365 89 307 15 335 47 b 375 126 390 121 392 126 b 343 100 368 126 363 121 b 283 36 331 86 303 57 b 221 -14 250 3 242 -3 b 175 -28 201 -24 193 -26 b 143 -19 154 -29 154 -29 b 111 29 131 -8 117 13 b 104 129 104 51 100 96 b 154 315 111 189 128 251 b 358 650 207 442 292 581 b 410 689 376 671 401 689 b 419 676 411 689 415 683 b 379 426 444 632 431 536 l 367 399 l 372 394 b 443 486 393 378 413 403 b 476 654 467 551 481 617 b 450 713 475 674 464 700 b 400 731 439 724 422 729 b 203 590 340 735 274 688 b 39 247 126 486 57 342 b 35 72 26 186 25 124 z m 464 856 b 403 846 442 871 415 867 b 418 800 392 826 399 806 b 471 819 442 794 457 800 b 464 856 481 836 479 846 z "},"":{"ha":471,"x_min":0,"x_max":0,"o":"m 67 -28 b 76 -19 75 -26 76 -25 b 103 22 76 -14 100 22 b 110 13 104 22 107 18 b 183 -37 121 -8 150 -28 b 328 11 233 -53 282 -36 b 532 310 393 78 476 200 b 638 621 599 447 638 557 b 594 686 638 660 628 676 b 500 644 560 696 547 690 b 289 369 440 583 383 508 b 182 214 257 321 208 251 b 129 136 157 176 132 142 b 121 125 125 131 122 125 b 189 240 118 125 144 169 b 369 574 303 419 340 492 b 382 664 383 614 388 642 b 321 726 372 697 354 717 b 163 611 254 746 183 694 b 192 532 150 561 160 532 l 207 532 l 208 556 b 233 638 211 581 222 617 b 297 694 250 667 278 692 b 308 688 304 697 306 696 b 151 318 325 640 278 529 b 63 164 111 253 72 182 b 29 33 42 122 32 82 b 35 -8 28 3 28 0 b 67 -28 46 -25 54 -29 z m 211 186 b 329 360 239 226 292 304 b 565 656 438 525 517 624 b 582 649 579 664 582 663 b 519 442 582 613 557 528 b 392 194 469 325 440 268 b 221 -6 315 78 263 15 b 175 -11 206 -12 183 -17 b 132 39 150 3 138 17 b 125 53 129 44 126 51 b 211 186 122 56 147 94 z m 539 781 b 574 779 547 775 567 775 b 601 825 576 782 588 801 b 638 892 613 847 629 878 b 653 921 647 907 653 919 b 635 924 653 926 642 928 b 604 883 632 921 618 903 b 574 879 578 843 581 843 b 563 904 571 889 567 900 b 536 911 557 911 554 911 b 508 903 517 911 515 911 b 503 881 503 896 501 893 b 539 781 507 843 526 790 z "},"":{"ha":361,"x_min":0,"x_max":0,"o":"m 308 415 b 68 211 218 410 126 332 b 33 22 32 135 21 74 b 119 -79 46 -24 72 -56 b 189 -100 139 -89 165 -97 b 250 -94 203 -103 233 -100 b 328 -54 272 -89 307 -71 b 442 61 357 -32 442 54 b 429 69 442 65 436 69 b 396 40 426 69 411 56 b 244 -67 332 -19 285 -53 b 172 -71 221 -74 189 -76 b 100 4 144 -64 111 -28 b 103 106 93 28 94 74 b 179 263 115 153 144 213 b 272 353 200 293 247 339 b 350 379 310 375 321 379 b 413 365 376 379 379 378 b 476 356 450 351 469 347 b 460 381 481 361 476 369 b 357 504 429 399 379 460 b 343 554 346 528 344 535 b 364 633 342 582 349 607 b 413 686 375 651 399 676 b 426 688 422 692 424 692 b 425 592 436 674 435 631 b 406 535 422 579 414 554 b 394 494 399 515 394 497 b 419 485 397 488 411 482 b 468 553 431 488 449 514 b 481 706 506 629 510 678 b 361 721 453 732 397 739 b 281 624 328 706 296 665 b 342 439 258 565 276 513 l 364 413 l 349 415 b 308 415 340 417 322 417 z m 475 950 b 421 840 465 942 428 867 b 429 808 415 819 417 814 b 464 817 442 803 461 807 b 497 876 465 819 481 847 b 532 939 515 907 532 935 b 475 950 538 960 497 968 z "},"":{"ha":361,"x_min":0,"x_max":0,"o":"m 308 415 b 68 211 218 410 126 332 b 33 22 32 135 21 74 b 119 -79 46 -24 72 -56 b 189 -100 139 -89 165 -97 b 250 -94 203 -103 233 -100 b 328 -54 272 -89 307 -71 b 442 61 357 -32 442 54 b 429 69 442 65 436 69 b 396 40 426 69 411 56 b 244 -67 332 -19 285 -53 b 172 -71 221 -74 189 -76 b 100 4 144 -64 111 -28 b 103 106 93 28 94 74 b 179 263 115 153 144 213 b 272 353 200 293 247 339 b 350 379 310 375 321 379 b 413 365 376 379 379 378 b 476 356 450 351 469 347 b 460 381 481 361 476 369 b 357 504 429 399 379 460 b 343 554 346 528 344 535 b 364 633 342 582 349 607 b 413 686 375 651 399 676 b 426 688 422 692 424 692 b 425 592 436 674 435 631 b 406 535 422 579 414 554 b 394 494 399 515 394 497 b 419 485 397 488 411 482 b 468 553 431 488 449 514 b 481 706 506 629 510 678 b 361 721 453 732 397 739 b 281 624 328 706 296 665 b 342 439 258 565 276 513 l 364 413 l 349 415 b 308 415 340 417 322 417 z m 521 907 b 489 858 508 885 497 867 b 454 844 471 842 464 838 b 421 908 440 856 432 872 b 421 911 421 910 421 910 b 379 860 360 917 340 938 b 453 814 400 826 424 811 b 508 835 471 815 496 825 b 521 907 522 849 594 922 z "},"":{"ha":361,"x_min":0,"x_max":0,"o":"m 308 415 b 68 211 218 410 126 332 b 33 22 32 135 21 74 b 119 -79 46 -24 72 -56 b 189 -100 139 -89 165 -97 b 250 -94 203 -103 233 -100 b 328 -54 272 -89 307 -71 b 442 61 357 -32 442 54 b 429 69 442 65 436 69 b 396 40 426 69 411 56 b 244 -67 332 -19 285 -53 b 172 -71 221 -74 189 -76 b 100 4 144 -64 111 -28 b 103 106 93 28 94 74 b 179 263 115 153 144 213 b 272 353 200 293 247 339 b 350 379 310 375 321 379 b 413 365 376 379 379 378 b 476 356 450 351 469 347 b 460 381 481 361 476 369 b 357 504 429 399 379 460 b 343 554 346 528 344 535 b 364 633 342 582 349 607 b 413 686 375 651 399 676 b 426 688 422 692 424 692 b 425 592 436 674 435 631 b 406 535 422 579 414 554 b 394 494 399 515 394 497 b 419 485 397 488 411 482 b 468 553 431 488 449 514 b 481 706 506 629 510 678 b 361 721 453 732 397 739 b 281 624 328 706 296 665 b 342 439 258 565 276 513 l 364 413 l 349 415 b 308 415 340 417 322 417 z m 429 808 b 464 807 438 803 457 803 b 492 853 467 810 478 829 b 528 919 503 875 519 906 b 543 949 538 935 543 947 b 525 951 543 954 532 956 b 494 911 522 949 508 931 b 464 907 468 871 471 871 b 453 932 461 917 457 928 b 426 939 447 939 444 939 b 399 931 407 939 406 939 b 393 908 393 924 392 921 b 429 808 397 871 417 818 z "},"":{"ha":361,"x_min":0,"x_max":0,"o":"m 308 415 b 68 211 218 410 126 332 b 33 22 32 135 21 74 b 119 -79 46 -24 72 -56 b 189 -100 139 -89 165 -97 b 250 -94 203 -103 233 -100 b 328 -54 272 -89 307 -71 b 442 61 357 -32 442 54 b 429 69 442 65 436 69 b 396 40 426 69 411 56 b 244 -67 332 -19 285 -53 b 172 -71 221 -74 189 -76 b 100 4 144 -64 111 -28 b 103 106 93 28 94 74 b 179 263 115 153 144 213 b 272 353 200 293 247 339 b 350 379 310 375 321 379 b 413 365 376 379 379 378 b 476 356 450 351 469 347 b 460 381 481 361 476 369 b 357 504 429 399 379 460 b 343 554 346 528 344 535 b 364 633 342 582 349 607 b 413 686 375 651 399 676 b 426 688 422 692 424 692 b 425 592 436 674 435 631 b 406 535 422 579 414 554 b 394 494 399 515 394 497 b 419 485 397 488 411 482 b 468 553 431 488 449 514 b 481 706 506 629 510 678 b 361 721 453 732 397 739 b 281 624 328 706 296 665 b 342 439 258 565 276 513 l 364 413 l 349 415 b 308 415 340 417 322 417 z m 393 804 b 439 847 415 804 419 807 b 454 875 446 863 453 875 b 465 847 454 875 460 863 b 488 794 475 817 483 799 b 500 793 490 793 496 792 b 499 847 511 794 511 796 b 488 907 494 868 489 894 b 463 938 486 933 482 938 b 439 931 450 938 446 936 b 364 815 426 918 364 824 b 393 804 364 807 372 804 z "},"":{"ha":361,"x_min":0,"x_max":0,"o":"m 308 415 b 68 211 218 410 126 332 b 33 22 32 135 21 74 b 119 -79 46 -24 72 -56 b 189 -100 139 -89 165 -97 b 250 -94 203 -103 233 -100 b 328 -54 272 -89 307 -71 b 442 61 357 -32 442 54 b 429 69 442 65 436 69 b 396 40 426 69 411 56 b 244 -67 332 -19 285 -53 b 172 -71 221 -74 189 -76 b 100 4 144 -64 111 -28 b 103 106 93 28 94 74 b 179 263 115 153 144 213 b 272 353 200 293 247 339 b 350 379 310 375 321 379 b 413 365 376 379 379 378 b 476 356 450 351 469 347 b 460 381 481 361 476 369 b 357 504 429 399 379 460 b 343 554 346 528 344 535 b 364 633 342 582 349 607 b 413 686 375 651 399 676 b 426 688 422 692 424 692 b 425 592 436 674 435 631 b 406 535 422 579 414 554 b 394 494 399 515 394 497 b 419 485 397 488 411 482 b 468 553 431 488 449 514 b 481 706 506 629 510 678 b 361 721 453 732 397 739 b 281 624 328 706 296 665 b 342 439 258 565 276 513 l 364 413 l 349 415 b 308 415 340 417 322 417 z m 431 853 b 408 857 421 858 419 860 b 383 829 396 853 386 842 b 399 803 382 817 386 808 b 424 803 410 799 413 799 b 443 836 435 808 443 824 b 431 853 443 842 440 846 z m 468 850 b 456 806 454 842 447 815 b 496 803 460 801 486 800 b 511 835 501 806 511 825 b 468 850 511 850 486 858 z "},"":{"ha":361,"x_min":0,"x_max":0,"o":"m 308 415 b 68 211 218 410 126 332 b 33 22 32 135 21 74 b 119 -79 46 -24 72 -56 b 189 -100 139 -89 165 -97 b 250 -94 203 -103 233 -100 b 328 -54 272 -89 307 -71 b 442 61 357 -32 442 54 b 429 69 442 65 436 69 b 396 40 426 69 411 56 b 244 -67 332 -19 285 -53 b 172 -71 221 -74 189 -76 b 100 4 144 -64 111 -28 b 103 106 93 28 94 74 b 179 263 115 153 144 213 b 272 353 200 293 247 339 b 350 379 310 375 321 379 b 413 365 376 379 379 378 b 476 356 450 351 469 347 b 460 381 481 361 476 369 b 357 504 429 399 379 460 b 343 554 346 528 344 535 b 364 633 342 582 349 607 b 413 686 375 651 399 676 b 426 688 422 692 424 692 b 425 592 436 674 435 631 b 406 535 422 579 414 554 b 394 494 399 515 394 497 b 419 485 397 488 411 482 b 468 553 431 488 449 514 b 481 706 506 629 510 678 b 361 721 453 732 397 739 b 281 624 328 706 296 665 b 342 439 258 565 276 513 l 364 413 l 349 415 b 308 415 340 417 322 417 z m 476 861 b 415 851 454 876 428 872 b 431 806 404 832 411 811 b 483 825 454 800 469 806 b 476 861 493 842 492 851 z "},"":{"ha":361,"x_min":0,"x_max":0,"o":"m 308 415 b 68 211 218 410 126 332 b 33 22 32 135 21 74 b 119 -79 46 -24 72 -56 b 189 -100 139 -89 165 -97 b 250 -94 203 -103 233 -100 b 328 -54 272 -89 307 -71 b 442 61 357 -32 442 54 b 429 69 442 65 436 69 b 396 40 426 69 411 56 b 244 -67 332 -19 285 -53 b 172 -71 221 -74 189 -76 b 100 4 144 -64 111 -28 b 103 106 93 28 94 74 b 179 263 115 153 144 213 b 272 353 200 293 247 339 b 350 379 310 375 321 379 b 413 365 376 379 379 378 b 476 356 450 351 469 347 b 460 381 481 361 476 369 b 357 504 429 399 379 460 b 343 554 346 528 344 535 b 364 633 342 582 349 607 b 413 686 375 651 399 676 b 426 688 422 692 424 692 b 425 592 436 674 435 631 b 406 535 422 579 414 554 b 394 494 399 515 394 497 b 419 485 397 488 411 482 b 468 553 431 488 449 514 b 481 706 506 629 510 678 b 361 721 453 732 397 739 b 281 624 328 706 296 665 b 342 439 258 565 276 513 l 364 413 l 349 415 b 308 415 340 417 322 417 z m 457 940 b 394 954 447 953 413 960 b 419 857 379 950 388 918 b 458 813 438 822 442 817 b 488 817 468 810 483 813 b 482 850 489 818 488 829 b 467 908 476 867 471 893 b 457 940 464 924 460 938 z "},"":{"ha":361,"x_min":0,"x_max":0,"o":"m 308 415 b 68 211 218 410 126 332 b 33 22 32 135 21 74 b 119 -79 46 -24 72 -56 b 189 -100 139 -89 165 -97 b 250 -94 203 -103 233 -100 b 328 -54 272 -89 307 -71 b 442 61 357 -32 442 54 b 429 69 442 65 436 69 b 396 40 426 69 411 56 b 244 -67 332 -19 285 -53 b 172 -71 221 -74 189 -76 b 100 4 144 -64 111 -28 b 103 106 93 28 94 74 b 179 263 115 153 144 213 b 272 353 200 293 247 339 b 350 379 310 375 321 379 b 413 365 376 379 379 378 b 476 356 450 351 469 347 b 460 381 481 361 476 369 b 357 504 429 399 379 460 b 343 554 346 528 344 535 b 364 633 342 582 349 607 b 413 686 375 651 399 676 b 426 688 422 692 424 692 b 425 592 436 674 435 631 b 406 535 422 579 414 554 b 394 494 399 515 394 497 b 419 485 397 488 411 482 b 468 553 431 488 449 514 b 481 706 506 629 510 678 b 361 721 453 732 397 739 b 281 624 328 706 296 665 b 342 439 258 565 276 513 l 364 413 l 349 415 b 308 415 340 417 322 417 z m 518 811 b 572 818 546 814 571 817 b 567 835 579 824 578 829 b 497 839 560 839 551 840 b 357 818 411 839 357 831 b 378 801 357 814 369 804 b 440 803 392 797 411 797 b 518 811 456 804 490 808 z "},"":{"ha":361,"x_min":0,"x_max":0,"o":"m 200 -222 b 203 -187 210 -210 210 -196 b 179 -186 192 -172 179 -172 b 154 -211 182 -201 165 -218 b 156 -140 142 -203 142 -158 b 167 -142 160 -133 160 -133 b 194 -149 176 -150 192 -154 b 201 -133 197 -146 200 -140 l 211 -108 b 213 -100 213 -104 213 -103 b 250 -94 226 -100 240 -97 b 328 -54 272 -89 307 -71 b 442 61 357 -32 442 54 b 429 69 442 65 436 69 b 396 40 426 69 411 56 b 244 -67 332 -19 285 -53 b 190 -74 228 -71 207 -74 b 182 -72 188 -72 185 -72 b 172 -71 178 -72 175 -71 b 100 4 144 -64 111 -28 b 103 106 93 28 94 74 b 179 263 115 153 144 213 b 272 353 200 293 247 339 b 350 379 310 375 321 379 b 413 365 376 379 379 378 b 476 356 450 351 469 347 b 460 381 481 361 476 369 b 357 504 429 399 379 460 b 343 554 346 528 344 535 b 364 633 342 582 349 607 b 413 686 375 651 399 676 b 426 688 422 692 424 692 b 425 592 436 674 435 631 b 406 535 422 579 414 554 b 394 494 399 515 394 497 b 419 485 397 488 411 482 b 468 553 431 488 449 514 b 481 706 506 629 510 678 b 361 721 453 732 397 739 b 281 624 328 706 296 665 b 342 439 258 565 276 513 l 364 413 l 349 415 b 308 415 340 417 322 417 b 68 211 218 410 126 332 b 33 22 32 135 21 74 b 119 -79 46 -24 72 -56 b 171 -97 133 -86 153 -93 b 160 -106 169 -108 167 -110 b 124 -101 150 -99 132 -94 b 115 -199 100 -117 99 -165 b 163 -236 125 -215 149 -233 b 200 -222 176 -239 190 -235 z "},"":{"ha":426,"x_min":0,"x_max":0,"o":"m 83 -42 b 151 -75 103 -61 122 -71 b 276 -32 193 -81 240 -65 l 296 -14 l 296 -32 b 317 -78 296 -54 303 -72 b 350 -69 336 -87 357 -82 b 401 111 340 -50 353 -6 b 419 189 425 167 428 181 b 374 192 410 197 393 199 b 268 179 357 185 306 179 b 226 168 247 179 226 174 b 235 160 226 167 231 163 b 279 156 242 156 249 156 b 333 158 299 156 324 157 b 353 161 344 160 353 161 b 339 122 353 161 346 143 b 319 72 331 101 322 78 b 233 -24 311 47 268 0 b 169 -50 211 -39 192 -47 b 144 -46 158 -53 154 -51 b 110 7 132 -37 118 -17 b 143 257 94 50 107 146 b 306 564 181 369 235 472 b 432 685 356 629 390 663 b 464 692 458 697 458 697 b 456 507 493 667 489 581 b 461 482 446 486 446 482 b 514 589 475 482 494 521 b 506 708 529 649 526 683 b 447 728 493 721 475 728 b 285 639 399 728 338 693 b 43 94 151 497 49 265 b 83 -42 40 28 53 -11 z m 556 913 b 524 864 543 890 532 872 b 489 850 506 847 499 843 b 456 914 475 861 467 878 b 456 917 456 915 456 915 b 414 865 394 922 375 943 b 488 819 435 832 458 817 b 543 840 506 821 531 831 b 556 913 557 854 629 928 z "},"":{"ha":426,"x_min":0,"x_max":0,"o":"m 83 -42 b 151 -75 103 -61 122 -71 b 276 -32 193 -81 240 -65 l 296 -14 l 296 -32 b 317 -78 296 -54 303 -72 b 350 -69 336 -87 357 -82 b 401 111 340 -50 353 -6 b 419 189 425 167 428 181 b 374 192 410 197 393 199 b 268 179 357 185 306 179 b 226 168 247 179 226 174 b 235 160 226 167 231 163 b 279 156 242 156 249 156 b 333 158 299 156 324 157 b 353 161 344 160 353 161 b 339 122 353 161 346 143 b 319 72 331 101 322 78 b 233 -24 311 47 268 0 b 169 -50 211 -39 192 -47 b 144 -46 158 -53 154 -51 b 110 7 132 -37 118 -17 b 143 257 94 50 107 146 b 306 564 181 369 235 472 b 432 685 356 629 390 663 b 464 692 458 697 458 697 b 456 507 493 667 489 581 b 461 482 446 486 446 482 b 514 589 475 482 494 521 b 506 708 529 649 526 683 b 447 728 493 721 475 728 b 285 639 399 728 338 693 b 43 94 151 497 49 265 b 83 -42 40 28 53 -11 z m 428 810 b 474 853 450 810 454 813 b 489 881 481 868 488 881 b 500 853 489 881 494 868 b 522 800 510 822 518 804 b 535 799 525 799 531 797 b 533 853 546 800 546 801 b 522 913 529 874 524 900 b 497 943 521 939 517 943 b 474 936 485 943 481 942 b 399 821 461 924 399 829 b 428 810 399 813 407 810 z "},"":{"ha":426,"x_min":0,"x_max":0,"o":"m 83 -42 b 151 -75 103 -61 122 -71 b 276 -32 193 -81 240 -65 l 296 -14 l 296 -32 b 317 -78 296 -54 303 -72 b 350 -69 336 -87 357 -82 b 401 111 340 -50 353 -6 b 419 189 425 167 428 181 b 374 192 410 197 393 199 b 268 179 357 185 306 179 b 226 168 247 179 226 174 b 235 160 226 167 231 163 b 279 156 242 156 249 156 b 333 158 299 156 324 157 b 353 161 344 160 353 161 b 339 122 353 161 346 143 b 319 72 331 101 322 78 b 233 -24 311 47 268 0 b 169 -50 211 -39 192 -47 b 144 -46 158 -53 154 -51 b 110 7 132 -37 118 -17 b 143 257 94 50 107 146 b 306 564 181 369 235 472 b 432 685 356 629 390 663 b 464 692 458 697 458 697 b 456 507 493 667 489 581 b 461 482 446 486 446 482 b 514 589 475 482 494 521 b 506 708 529 649 526 683 b 447 728 493 721 475 728 b 285 639 399 728 338 693 b 43 94 151 497 49 265 b 83 -42 40 28 53 -11 z m 169 -117 b 157 -142 161 -118 161 -118 b 143 -175 153 -162 151 -167 b 129 -185 139 -179 132 -185 b 132 -193 126 -186 126 -187 b 181 -189 140 -201 157 -201 b 206 -167 199 -181 201 -178 b 204 -129 213 -149 213 -137 b 169 -117 197 -121 181 -115 z "},"":{"ha":426,"x_min":0,"x_max":0,"o":"m 83 -42 b 151 -75 103 -61 122 -71 b 276 -32 193 -81 240 -65 l 296 -14 l 296 -32 b 317 -78 296 -54 303 -72 b 350 -69 336 -87 357 -82 b 401 111 340 -50 353 -6 b 419 189 425 167 428 181 b 374 192 410 197 393 199 b 268 179 357 185 306 179 b 226 168 247 179 226 174 b 235 160 226 167 231 163 b 279 156 242 156 249 156 b 333 158 299 156 324 157 b 353 161 344 160 353 161 b 339 122 353 161 346 143 b 319 72 331 101 322 78 b 233 -24 311 47 268 0 b 169 -50 211 -39 192 -47 b 144 -46 158 -53 154 -51 b 110 7 132 -37 118 -17 b 143 257 94 50 107 146 b 306 564 181 369 235 472 b 432 685 356 629 390 663 b 464 692 458 697 458 697 b 456 507 493 667 489 581 b 461 482 446 486 446 482 b 514 589 475 482 494 521 b 506 708 529 649 526 683 b 447 728 493 721 475 728 b 285 639 399 728 338 693 b 43 94 151 497 49 265 b 83 -42 40 28 53 -11 z m 511 867 b 450 857 489 882 463 878 b 465 811 439 838 446 817 b 518 831 489 806 504 811 b 511 867 528 847 526 857 z "},"":{"ha":508,"x_min":0,"x_max":0,"o":"m 54 258 b 79 274 63 258 67 261 b 113 299 89 283 103 293 b 163 308 129 307 135 308 b 193 308 181 310 193 310 b 168 256 193 308 183 283 b 108 111 139 194 125 160 b 94 13 94 65 92 53 b 113 -43 97 -24 100 -35 b 150 -46 124 -50 143 -51 b 150 -36 154 -43 154 -42 b 165 65 143 -25 150 11 b 239 246 183 126 204 176 b 267 300 254 275 267 300 b 322 293 267 301 293 297 b 436 292 385 282 419 282 b 444 290 446 296 446 296 b 419 218 443 288 432 256 b 371 -71 371 74 356 -21 b 390 -103 376 -86 379 -92 b 429 -122 403 -114 413 -118 b 469 -111 450 -128 472 -121 b 456 -101 468 -110 463 -106 b 432 -53 436 -93 433 -85 b 450 79 431 -19 436 19 b 692 664 494 249 614 540 b 717 707 706 686 717 706 b 697 715 717 713 711 715 b 613 640 676 715 649 690 b 471 358 569 583 522 488 b 449 304 460 329 449 304 b 442 307 449 304 446 306 b 417 306 436 310 431 310 b 300 322 392 299 379 300 b 285 326 292 324 285 326 b 319 401 283 328 300 361 b 371 522 349 460 360 483 b 397 647 392 583 397 613 b 390 690 397 671 397 676 b 324 728 378 717 360 726 b 176 592 263 728 199 668 b 175 556 171 574 171 565 b 235 550 185 538 232 533 b 239 576 236 554 238 565 b 258 646 240 600 250 629 b 333 704 271 668 317 704 b 346 660 342 704 347 686 b 313 540 346 631 339 603 b 210 336 293 497 232 374 b 175 339 210 336 194 336 b 54 315 121 343 82 335 b 28 278 42 306 28 288 b 54 258 28 268 40 258 z m 450 776 b 496 819 472 776 476 779 b 511 847 503 835 510 847 b 522 819 511 847 517 835 b 544 767 532 789 540 771 b 557 765 547 765 553 764 b 556 819 568 767 568 768 b 544 879 551 840 546 867 b 519 910 543 906 539 910 b 496 903 507 910 503 908 b 421 788 483 890 421 796 b 450 776 421 779 429 776 z "},"":{"ha":201,"x_min":0,"x_max":0,"o":"m 231 553 b 233 567 232 554 233 561 b 256 631 233 579 243 607 b 357 696 281 678 340 717 b 361 640 365 686 367 661 b 338 585 358 631 347 606 b 200 350 317 547 236 407 b 50 68 140 253 75 131 b 29 -39 36 29 32 8 b 43 -92 28 -82 28 -85 b 72 -92 56 -96 67 -96 b 79 -74 74 -89 76 -81 b 113 49 81 -54 100 18 b 249 313 133 106 193 219 b 361 514 276 358 336 467 b 410 658 400 590 410 624 b 350 726 410 699 394 717 b 264 711 319 732 296 728 b 171 589 215 686 174 632 b 178 564 171 572 171 569 b 231 553 189 551 222 546 z m 390 944 b 336 835 381 936 343 861 b 344 803 331 814 332 808 b 379 811 357 797 376 801 b 413 871 381 814 396 842 b 447 933 431 901 447 929 b 390 944 453 954 413 963 z "},"":{"ha":201,"x_min":0,"x_max":0,"o":"m 231 553 b 233 567 232 554 233 561 b 256 631 233 579 243 607 b 357 696 281 678 340 717 b 361 640 365 686 367 661 b 338 585 358 631 347 606 b 200 350 317 547 236 407 b 50 68 140 253 75 131 b 29 -39 36 29 32 8 b 43 -92 28 -82 28 -85 b 72 -92 56 -96 67 -96 b 79 -74 74 -89 76 -81 b 113 49 81 -54 100 18 b 249 313 133 106 193 219 b 361 514 276 358 336 467 b 410 658 400 590 410 624 b 350 726 410 699 394 717 b 264 711 319 732 296 728 b 171 589 215 686 174 632 b 178 564 171 572 171 569 b 231 553 189 551 222 546 z m 436 901 b 404 853 424 879 413 861 b 369 839 386 836 379 832 b 336 903 356 850 347 867 b 336 906 336 904 336 904 b 294 854 275 911 256 932 b 368 808 315 821 339 806 b 424 829 386 810 411 819 b 436 901 438 843 510 917 z "},"":{"ha":201,"x_min":0,"x_max":0,"o":"m 231 553 b 233 567 232 554 233 561 b 256 631 233 579 243 607 b 357 696 281 678 340 717 b 361 640 365 686 367 661 b 338 585 358 631 347 606 b 200 350 317 547 236 407 b 50 68 140 253 75 131 b 29 -39 36 29 32 8 b 43 -92 28 -82 28 -85 b 72 -92 56 -96 67 -96 b 79 -74 74 -89 76 -81 b 113 49 81 -54 100 18 b 249 313 133 106 193 219 b 361 514 276 358 336 467 b 410 658 400 590 410 624 b 350 726 410 699 394 717 b 264 711 319 732 296 728 b 171 589 215 686 174 632 b 178 564 171 572 171 569 b 231 553 189 551 222 546 z m 308 799 b 354 842 331 799 335 801 b 369 869 361 857 368 869 b 381 842 369 869 375 857 b 403 789 390 811 399 793 b 415 788 406 788 411 786 b 414 842 426 789 426 790 b 403 901 410 863 404 889 b 378 932 401 928 397 932 b 354 925 365 932 361 931 b 279 810 342 913 279 818 b 308 799 279 801 288 799 z "},"":{"ha":201,"x_min":0,"x_max":0,"o":"m 231 553 b 233 567 232 554 233 561 b 256 631 233 579 243 607 b 357 696 281 678 340 717 b 361 640 365 686 367 661 b 338 585 358 631 347 606 b 200 350 317 547 236 407 b 50 68 140 253 75 131 b 29 -39 36 29 32 8 b 43 -92 28 -82 28 -85 b 72 -92 56 -96 67 -96 b 79 -74 74 -89 76 -81 b 113 49 81 -54 100 18 b 249 313 133 106 193 219 b 361 514 276 358 336 467 b 410 658 400 590 410 624 b 350 726 410 699 394 717 b 264 711 319 732 296 728 b 171 589 215 686 174 632 b 178 564 171 572 171 569 b 231 553 189 551 222 546 z m 346 847 b 324 851 336 853 335 854 b 299 824 311 847 301 836 b 314 797 297 811 301 803 b 339 797 325 793 328 793 b 358 831 350 803 358 818 b 346 847 358 836 356 840 z m 383 844 b 371 800 369 836 363 810 b 411 797 375 796 401 794 b 426 829 417 800 426 819 b 383 844 426 844 401 853 z "},"":{"ha":201,"x_min":0,"x_max":0,"o":"m 231 553 b 233 567 232 554 233 561 b 256 631 233 579 243 607 b 357 696 281 678 340 717 b 361 640 365 686 367 661 b 338 585 358 631 347 606 b 200 350 317 547 236 407 b 50 68 140 253 75 131 b 29 -39 36 29 32 8 b 43 -92 28 -82 28 -85 b 72 -92 56 -96 67 -96 b 79 -74 74 -89 76 -81 b 113 49 81 -54 100 18 b 249 313 133 106 193 219 b 361 514 276 358 336 467 b 410 658 400 590 410 624 b 350 726 410 699 394 717 b 264 711 319 732 296 728 b 171 589 215 686 174 632 b 178 564 171 572 171 569 b 231 553 189 551 222 546 z m 392 856 b 331 846 369 871 343 867 b 346 800 319 826 326 806 b 399 819 369 794 385 800 b 392 856 408 836 407 846 z "},"":{"ha":201,"x_min":0,"x_max":0,"o":"m 231 553 b 233 567 232 554 233 561 b 256 631 233 579 243 607 b 357 696 281 678 340 717 b 361 640 365 686 367 661 b 338 585 358 631 347 606 b 200 350 317 547 236 407 b 50 68 140 253 75 131 b 29 -39 36 29 32 8 b 43 -92 28 -82 28 -85 b 72 -92 56 -96 67 -96 b 79 -74 74 -89 76 -81 b 113 49 81 -54 100 18 b 249 313 133 106 193 219 b 361 514 276 358 336 467 b 410 658 400 590 410 624 b 350 726 410 699 394 717 b 264 711 319 732 296 728 b 171 589 215 686 174 632 b 178 564 171 572 171 569 b 231 553 189 551 222 546 z m 372 935 b 310 949 363 947 328 954 b 335 851 294 944 303 913 b 374 807 353 817 357 811 b 403 811 383 804 399 807 b 397 844 404 813 403 824 b 382 903 392 861 386 888 b 372 935 379 918 375 932 z "},"":{"ha":201,"x_min":0,"x_max":0,"o":"m 231 553 b 233 567 232 554 233 561 b 256 631 233 579 243 607 b 357 696 281 678 340 717 b 361 640 365 686 367 661 b 338 585 358 631 347 606 b 200 350 317 547 236 407 b 50 68 140 253 75 131 b 29 -39 36 29 32 8 b 43 -92 28 -82 28 -85 b 72 -92 56 -96 67 -96 b 79 -74 74 -89 76 -81 b 113 49 81 -54 100 18 b 249 313 133 106 193 219 b 361 514 276 358 336 467 b 410 658 400 590 410 624 b 350 726 410 699 394 717 b 264 711 319 732 296 728 b 171 589 215 686 174 632 b 178 564 171 572 171 569 b 231 553 189 551 222 546 z m 433 806 b 488 813 461 808 486 811 b 482 829 494 818 493 824 b 413 833 475 833 467 835 b 272 813 326 833 272 825 b 293 796 272 808 285 799 b 356 797 307 792 326 792 b 433 806 371 799 406 803 z "},"":{"ha":201,"x_min":0,"x_max":0,"o":"m 51 -215 b 56 -179 60 -203 63 -189 b 31 -179 44 -164 31 -164 b 6 -203 33 -194 17 -210 b 7 -133 -7 -194 -6 -149 b 19 -133 13 -126 13 -126 b 47 -142 28 -143 43 -146 b 54 -126 49 -140 53 -132 l 64 -103 b 65 -94 65 -99 65 -96 b 72 -92 68 -93 71 -93 l 79 -74 b 113 49 81 -54 100 18 b 249 313 133 106 193 219 b 361 514 276 358 336 467 b 410 658 400 590 410 624 b 350 726 410 699 394 717 b 264 711 319 732 296 728 b 171 589 215 686 174 632 b 178 564 171 572 171 569 b 231 553 189 551 222 546 b 233 567 232 554 233 561 b 256 631 233 579 243 607 b 357 696 281 678 340 717 b 361 640 365 686 367 661 b 338 585 358 631 347 606 b 200 350 317 547 236 407 b 50 68 140 253 75 131 b 29 -39 36 29 32 8 b 28 -72 28 -54 28 -65 b 25 -86 26 -76 25 -82 b 13 -99 22 -101 19 -104 b -24 -93 3 -90 -17 -87 b -33 -190 -47 -107 -50 -157 b 13 -228 -24 -207 -1 -226 b 51 -215 28 -231 42 -226 z "},"":{"ha":201,"x_min":0,"x_max":0,"o":"m 231 553 b 233 567 232 554 233 561 b 256 631 233 579 243 607 b 357 696 281 678 340 717 b 361 640 365 686 367 661 b 338 585 358 631 347 606 b 200 350 317 547 236 407 b 50 68 140 253 75 131 b 29 -39 36 29 32 8 b 43 -92 28 -82 28 -85 b 72 -92 56 -96 67 -96 b 79 -74 74 -89 76 -81 b 113 49 81 -54 100 18 b 249 313 133 106 193 219 b 361 514 276 358 336 467 b 410 658 400 590 410 624 b 350 726 410 699 394 717 b 264 711 319 732 296 728 b 171 589 215 686 174 632 b 178 564 171 572 171 569 b 231 553 189 551 222 546 z m 300 808 b 317 824 307 808 310 811 b 342 835 331 847 332 847 b 389 799 356 818 372 806 b 457 810 417 790 442 793 b 467 860 467 819 472 850 b 444 861 461 867 450 868 b 439 844 442 858 439 853 b 428 818 439 831 435 819 b 415 828 424 817 419 821 b 319 867 396 858 344 881 b 290 829 310 863 297 847 b 300 808 283 815 286 808 z "},"":{"ha":497,"x_min":0,"x_max":0,"o":"m 246 218 b 275 218 261 222 264 222 b 299 219 288 213 299 214 b 269 240 299 225 285 236 b 240 244 263 243 249 244 b 156 224 224 244 181 233 b 33 78 99 200 50 143 b 63 -42 22 26 31 -12 b 104 -64 76 -54 83 -58 b 300 -11 157 -79 240 -57 b 468 181 347 22 422 108 b 590 489 529 272 572 382 b 586 632 596 532 594 604 b 550 694 575 661 567 678 b 454 733 525 721 494 733 b 285 611 382 733 324 692 b 253 506 265 574 254 536 l 250 483 l 260 475 b 308 463 269 465 296 460 b 318 497 315 465 315 467 b 396 672 328 569 354 629 b 468 707 419 696 440 706 l 490 708 l 501 696 b 536 596 524 674 533 646 b 443 264 540 513 503 382 b 224 -1 394 169 292 44 b 126 -40 194 -22 154 -37 b 99 -32 110 -42 108 -42 b 97 103 68 -6 68 47 b 246 218 124 153 183 199 z m 419 815 b 465 858 442 815 446 818 b 481 886 472 874 479 886 b 492 858 481 886 486 874 b 514 806 501 828 510 810 b 526 804 517 804 522 803 b 525 858 538 806 538 807 b 514 918 521 879 515 906 b 489 949 513 944 508 949 b 465 942 476 949 472 947 b 390 826 453 929 390 835 b 419 815 390 818 399 815 z "},"":{"ha":658,"x_min":0,"x_max":0,"o":"m 63 -79 b 176 -53 92 -87 132 -79 b 246 0 207 -35 218 -26 l 269 24 l 307 7 b 544 -31 406 -35 497 -49 b 621 86 626 -1 675 75 b 596 69 614 88 611 85 b 535 19 565 38 558 32 b 414 10 493 -3 469 -4 b 299 51 390 17 313 44 b 315 76 297 53 301 60 b 493 449 396 179 460 313 b 514 589 508 517 514 547 b 442 722 514 667 493 707 b 353 717 413 732 378 729 b 276 646 328 706 294 674 b 244 561 260 618 244 579 b 271 535 244 542 253 533 l 283 535 l 301 572 b 332 626 313 593 325 617 b 411 693 353 658 390 689 b 440 664 425 694 432 689 b 439 526 449 636 449 575 b 278 129 414 388 354 243 b 208 74 235 64 242 69 b 83 47 158 79 113 69 b 63 -79 19 1 10 -62 z m 192 42 l 214 42 l 188 14 b 108 -46 160 -15 138 -31 b 72 -56 90 -56 75 -58 b 76 -22 68 -51 71 -33 b 192 42 96 19 142 44 z m 446 950 b 392 840 436 942 399 867 b 400 808 386 819 388 814 b 435 817 413 803 432 807 b 468 876 436 819 451 847 b 503 939 486 907 503 935 b 446 950 508 960 468 968 z "},"":{"ha":658,"x_min":0,"x_max":0,"o":"m 63 -79 b 176 -53 92 -87 132 -79 b 246 0 207 -35 218 -26 l 269 24 l 307 7 b 544 -31 406 -35 497 -49 b 621 86 626 -1 675 75 b 596 69 614 88 611 85 b 535 19 565 38 558 32 b 414 10 493 -3 469 -4 b 299 51 390 17 313 44 b 315 76 297 53 301 60 b 493 449 396 179 460 313 b 514 589 508 517 514 547 b 442 722 514 667 493 707 b 353 717 413 732 378 729 b 276 646 328 706 294 674 b 244 561 260 618 244 579 b 271 535 244 542 253 533 l 283 535 l 301 572 b 332 626 313 593 325 617 b 411 693 353 658 390 689 b 440 664 425 694 432 689 b 439 526 449 636 449 575 b 278 129 414 388 354 243 b 208 74 235 64 242 69 b 83 47 158 79 113 69 b 63 -79 19 1 10 -62 z m 192 42 l 214 42 l 188 14 b 108 -46 160 -15 138 -31 b 72 -56 90 -56 75 -58 b 76 -22 68 -51 71 -33 b 192 42 96 19 142 44 z m 410 775 b 444 774 418 769 438 769 b 472 819 447 776 458 796 b 508 886 483 842 500 872 b 524 915 518 901 524 914 b 506 918 524 921 513 922 b 475 878 503 915 489 897 b 444 874 449 838 451 838 b 433 899 442 883 438 894 b 407 906 428 906 425 906 b 379 897 388 906 386 906 b 374 875 374 890 372 888 b 410 775 378 838 397 785 z "},"":{"ha":658,"x_min":0,"x_max":0,"o":"m 63 -79 b 176 -53 92 -87 132 -79 b 246 0 207 -35 218 -26 l 269 24 l 307 7 b 544 -31 406 -35 497 -49 b 621 86 626 -1 675 75 b 596 69 614 88 611 85 b 535 19 565 38 558 32 b 414 10 493 -3 469 -4 b 299 51 390 17 313 44 b 315 76 297 53 301 60 b 493 449 396 179 460 313 b 514 589 508 517 514 547 b 442 722 514 667 493 707 b 353 717 413 732 378 729 b 276 646 328 706 294 674 b 244 561 260 618 244 579 b 271 535 244 542 253 533 l 283 535 l 301 572 b 332 626 313 593 325 617 b 411 693 353 658 390 689 b 440 664 425 694 432 689 b 439 526 449 636 449 575 b 278 129 414 388 354 243 b 208 74 235 64 242 69 b 83 47 158 79 113 69 b 63 -79 19 1 10 -62 z m 192 42 l 214 42 l 188 14 b 108 -46 160 -15 138 -31 b 72 -56 90 -56 75 -58 b 76 -22 68 -51 71 -33 b 192 42 96 19 142 44 z m 313 -72 b 300 -97 304 -74 304 -74 b 286 -131 296 -118 294 -122 b 272 -140 282 -135 275 -140 b 275 -149 269 -142 269 -143 b 324 -144 283 -157 300 -157 b 349 -122 342 -136 344 -133 b 347 -85 356 -104 356 -93 b 313 -72 340 -76 324 -71 z "},"":{"ha":658,"x_min":0,"x_max":0,"o":"m 63 -79 b 176 -53 92 -87 132 -79 b 246 0 207 -35 218 -26 l 269 24 l 307 7 b 544 -31 406 -35 497 -49 b 621 86 626 -1 675 75 b 596 69 614 88 611 85 b 535 19 565 38 558 32 b 414 10 493 -3 469 -4 b 299 51 390 17 313 44 b 315 76 297 53 301 60 b 493 449 396 179 460 313 b 514 589 508 517 514 547 b 442 722 514 667 493 707 b 353 717 413 732 378 729 b 276 646 328 706 294 674 b 244 561 260 618 244 579 b 271 535 244 542 253 533 l 283 535 l 301 572 b 332 626 313 593 325 617 b 411 693 353 658 390 689 b 440 664 425 694 432 689 b 439 526 449 636 449 575 b 278 129 414 388 354 243 b 208 74 235 64 242 69 b 83 47 158 79 113 69 b 63 -79 19 1 10 -62 z m 192 42 l 214 42 l 188 14 b 108 -46 160 -15 138 -31 b 72 -56 90 -56 75 -58 b 76 -22 68 -51 71 -33 b 192 42 96 19 142 44 z m 556 278 b 494 268 533 293 507 289 b 510 222 483 249 490 228 b 563 242 533 217 549 222 b 556 278 572 258 571 268 z "},"":{"ha":500,"x_min":0,"x_max":0,"o":"m 40 -100 b 47 -107 42 -100 46 -103 b 60 -115 50 -112 54 -115 b 83 -96 69 -117 71 -115 b 117 -42 92 -85 107 -60 b 172 49 128 -25 153 17 b 239 167 190 81 221 133 b 303 275 257 199 286 247 b 372 388 319 303 351 353 b 542 618 438 494 493 571 b 603 667 572 650 600 671 b 582 582 607 664 594 619 b 471 328 561 524 519 426 b 358 49 401 182 375 118 b 353 -50 346 -1 344 -14 b 386 -115 361 -89 369 -107 b 429 -118 400 -124 424 -125 b 425 -104 435 -112 433 -106 b 424 -18 413 -100 413 -75 b 558 303 439 50 460 100 b 667 618 636 463 667 554 b 650 681 667 654 664 667 b 603 697 639 692 624 697 b 524 640 585 697 569 686 b 339 390 468 585 411 507 b 282 297 321 361 296 321 b 214 182 267 275 238 222 b 160 89 190 142 167 100 b 128 35 154 79 139 54 b 108 3 118 18 110 6 b 217 221 124 49 158 119 b 332 457 281 332 308 388 b 357 589 353 517 357 539 b 324 706 357 653 347 682 b 258 728 307 721 289 728 b 213 718 233 728 229 726 b 136 642 189 707 150 667 b 115 558 122 615 114 583 b 154 511 118 528 128 517 b 185 535 183 507 194 515 b 181 563 182 542 181 553 b 207 642 181 585 193 622 b 265 693 228 672 256 697 b 276 675 267 693 272 685 b 283 618 281 661 282 651 b 271 513 285 575 282 554 b 136 231 249 438 214 363 b 36 32 81 136 56 86 b 28 -36 29 10 28 4 b 33 -90 28 -74 29 -82 b 40 -100 36 -94 39 -100 z m 506 922 b 451 813 496 914 458 839 b 460 781 446 792 447 786 b 494 789 472 775 492 779 b 528 849 496 792 511 819 b 563 911 546 879 563 907 b 506 922 568 932 528 940 z "},"":{"ha":500,"x_min":0,"x_max":0,"o":"m 40 -100 b 47 -107 42 -100 46 -103 b 60 -115 50 -112 54 -115 b 83 -96 69 -117 71 -115 b 117 -42 92 -85 107 -60 b 172 49 128 -25 153 17 b 239 167 190 81 221 133 b 303 275 257 199 286 247 b 372 388 319 303 351 353 b 542 618 438 494 493 571 b 603 667 572 650 600 671 b 582 582 607 664 594 619 b 471 328 561 524 519 426 b 358 49 401 182 375 118 b 353 -50 346 -1 344 -14 b 386 -115 361 -89 369 -107 b 429 -118 400 -124 424 -125 b 425 -104 435 -112 433 -106 b 424 -18 413 -100 413 -75 b 558 303 439 50 460 100 b 667 618 636 463 667 554 b 650 681 667 654 664 667 b 603 697 639 692 624 697 b 524 640 585 697 569 686 b 339 390 468 585 411 507 b 282 297 321 361 296 321 b 214 182 267 275 238 222 b 160 89 190 142 167 100 b 128 35 154 79 139 54 b 108 3 118 18 110 6 b 217 221 124 49 158 119 b 332 457 281 332 308 388 b 357 589 353 517 357 539 b 324 706 357 653 347 682 b 258 728 307 721 289 728 b 213 718 233 728 229 726 b 136 642 189 707 150 667 b 115 558 122 615 114 583 b 154 511 118 528 128 517 b 185 535 183 507 194 515 b 181 563 182 542 181 553 b 207 642 181 585 193 622 b 265 693 228 672 256 697 b 276 675 267 693 272 685 b 283 618 281 661 282 651 b 271 513 285 575 282 554 b 136 231 249 438 214 363 b 36 32 81 136 56 86 b 28 -36 29 10 28 4 b 33 -90 28 -74 29 -82 b 40 -100 36 -94 39 -100 z m 460 781 b 494 779 468 775 488 775 b 522 825 497 782 508 801 b 558 892 533 847 550 878 b 574 921 568 907 574 919 b 556 924 574 926 563 928 b 525 883 553 921 539 903 b 494 879 499 843 501 843 b 483 904 492 889 488 900 b 457 911 478 911 475 911 b 429 903 438 911 436 911 b 424 881 424 896 422 893 b 460 781 428 843 447 790 z "},"":{"ha":500,"x_min":0,"x_max":0,"o":"m 40 -100 b 47 -107 42 -100 46 -103 b 60 -115 50 -112 54 -115 b 83 -96 69 -117 71 -115 b 117 -42 92 -85 107 -60 b 172 49 128 -25 153 17 b 239 167 190 81 221 133 b 303 275 257 199 286 247 b 372 388 319 303 351 353 b 542 618 438 494 493 571 b 603 667 572 650 600 671 b 582 582 607 664 594 619 b 471 328 561 524 519 426 b 358 49 401 182 375 118 b 353 -50 346 -1 344 -14 b 386 -115 361 -89 369 -107 b 429 -118 400 -124 424 -125 b 425 -104 435 -112 433 -106 b 424 -18 413 -100 413 -75 b 558 303 439 50 460 100 b 667 618 636 463 667 554 b 650 681 667 654 664 667 b 603 697 639 692 624 697 b 524 640 585 697 569 686 b 339 390 468 585 411 507 b 282 297 321 361 296 321 b 214 182 267 275 238 222 b 160 89 190 142 167 100 b 128 35 154 79 139 54 b 108 3 118 18 110 6 b 217 221 124 49 158 119 b 332 457 281 332 308 388 b 357 589 353 517 357 539 b 324 706 357 653 347 682 b 258 728 307 721 289 728 b 213 718 233 728 229 726 b 136 642 189 707 150 667 b 115 558 122 615 114 583 b 154 511 118 528 128 517 b 185 535 183 507 194 515 b 181 563 182 542 181 553 b 207 642 181 585 193 622 b 265 693 228 672 256 697 b 276 675 267 693 272 685 b 283 618 281 661 282 651 b 271 513 285 575 282 554 b 136 231 249 438 214 363 b 36 32 81 136 56 86 b 28 -36 29 10 28 4 b 33 -90 28 -74 29 -82 b 40 -100 36 -94 39 -100 z m 179 -76 b 167 -101 171 -78 171 -78 b 153 -135 163 -122 161 -126 b 139 -144 149 -139 142 -144 b 142 -153 136 -146 136 -147 b 190 -149 150 -161 167 -161 b 215 -126 208 -140 211 -137 b 214 -89 222 -108 222 -97 b 179 -76 207 -81 190 -75 z "},"":{"ha":500,"x_min":0,"x_max":0,"o":"m 40 -100 b 47 -107 42 -100 46 -103 b 60 -115 50 -112 54 -115 b 83 -96 69 -117 71 -115 b 117 -42 92 -85 107 -60 b 172 49 128 -25 153 17 b 239 167 190 81 221 133 b 303 275 257 199 286 247 b 372 388 319 303 351 353 b 542 618 438 494 493 571 b 603 667 572 650 600 671 b 582 582 607 664 594 619 b 471 328 561 524 519 426 b 358 49 401 182 375 118 b 353 -50 346 -1 344 -14 b 386 -115 361 -89 369 -107 b 429 -118 400 -124 424 -125 b 425 -104 435 -112 433 -106 b 424 -18 413 -100 413 -75 b 558 303 439 50 460 100 b 667 618 636 463 667 554 b 650 681 667 654 664 667 b 603 697 639 692 624 697 b 524 640 585 697 569 686 b 339 390 468 585 411 507 b 282 297 321 361 296 321 b 214 182 267 275 238 222 b 160 89 190 142 167 100 b 128 35 154 79 139 54 b 108 3 118 18 110 6 b 217 221 124 49 158 119 b 332 457 281 332 308 388 b 357 589 353 517 357 539 b 324 706 357 653 347 682 b 258 728 307 721 289 728 b 213 718 233 728 229 726 b 136 642 189 707 150 667 b 115 558 122 615 114 583 b 154 511 118 528 128 517 b 185 535 183 507 194 515 b 181 563 182 542 181 553 b 207 642 181 585 193 622 b 265 693 228 672 256 697 b 276 675 267 693 272 685 b 283 618 281 661 282 651 b 271 513 285 575 282 554 b 136 231 249 438 214 363 b 36 32 81 136 56 86 b 28 -36 29 10 28 4 b 33 -90 28 -74 29 -82 b 40 -100 36 -94 39 -100 z m 415 786 b 432 801 422 786 425 789 b 457 813 446 825 447 825 b 504 776 471 796 488 783 b 572 788 532 768 557 771 b 582 838 582 797 588 828 b 560 839 576 844 565 846 b 554 822 557 836 554 831 b 543 796 554 808 550 797 b 531 806 539 794 535 799 b 435 844 511 836 460 858 b 406 807 425 840 413 825 b 415 786 399 793 401 786 z "},"":{"ha":419,"x_min":0,"x_max":0,"o":"m 136 276 l 118 246 b 29 29 72 169 36 81 b 39 -54 26 0 29 -35 b 103 -106 50 -81 72 -97 b 207 -83 143 -115 168 -110 b 419 210 278 -37 335 43 b 510 424 463 296 482 339 b 543 603 538 504 544 547 b 532 658 542 636 542 638 b 407 728 510 704 465 728 b 228 633 347 728 292 699 b 146 515 194 600 168 563 b 115 394 122 464 115 439 b 129 297 115 351 118 326 z m 163 192 l 176 214 l 201 190 b 297 126 239 153 276 128 b 304 143 324 125 326 132 b 214 236 288 150 233 207 l 201 254 l 232 311 b 264 372 250 342 264 369 b 229 388 263 379 246 388 b 204 375 218 388 215 385 b 185 350 199 368 189 357 b 175 342 181 343 176 339 b 174 383 174 343 172 360 b 183 450 175 418 175 425 b 281 610 204 508 240 568 b 403 694 325 656 367 685 b 454 689 428 700 438 700 b 493 581 483 671 493 643 b 451 383 494 521 483 471 b 253 11 403 250 318 92 b 146 -79 221 -29 178 -64 b 107 -81 132 -85 117 -86 b 96 -64 104 -78 99 -69 b 89 -18 90 -53 89 -47 b 113 86 89 19 93 35 b 163 192 126 122 143 153 z m 481 944 b 426 835 471 936 433 861 b 435 803 421 814 422 808 b 469 811 447 797 467 801 b 503 871 471 814 486 842 b 538 933 521 901 538 929 b 481 944 543 954 503 963 z "},"":{"ha":419,"x_min":0,"x_max":0,"o":"m 136 276 l 118 246 b 29 29 72 169 36 81 b 39 -54 26 0 29 -35 b 103 -106 50 -81 72 -97 b 207 -83 143 -115 168 -110 b 419 210 278 -37 335 43 b 510 424 463 296 482 339 b 543 603 538 504 544 547 b 532 658 542 636 542 638 b 407 728 510 704 465 728 b 228 633 347 728 292 699 b 146 515 194 600 168 563 b 115 394 122 464 115 439 b 129 297 115 351 118 326 z m 163 192 l 176 214 l 201 190 b 297 126 239 153 276 128 b 304 143 324 125 326 132 b 214 236 288 150 233 207 l 201 254 l 232 311 b 264 372 250 342 264 369 b 229 388 263 379 246 388 b 204 375 218 388 215 385 b 185 350 199 368 189 357 b 175 342 181 343 176 339 b 174 383 174 343 172 360 b 183 450 175 418 175 425 b 281 610 204 508 240 568 b 403 694 325 656 367 685 b 454 689 428 700 438 700 b 493 581 483 671 493 643 b 451 383 494 521 483 471 b 253 11 403 250 318 92 b 146 -79 221 -29 178 -64 b 107 -81 132 -85 117 -86 b 96 -64 104 -78 99 -69 b 89 -18 90 -53 89 -47 b 113 86 89 19 93 35 b 163 192 126 122 143 153 z m 526 901 b 494 853 514 879 503 861 b 460 839 476 836 469 832 b 426 903 446 850 438 867 b 426 906 426 904 426 904 b 385 854 365 911 346 932 b 458 808 406 821 429 806 b 514 829 476 810 501 819 b 526 901 528 843 600 917 z "},"":{"ha":419,"x_min":0,"x_max":0,"o":"m 136 276 l 118 246 b 29 29 72 169 36 81 b 39 -54 26 0 29 -35 b 103 -106 50 -81 72 -97 b 207 -83 143 -115 168 -110 b 419 210 278 -37 335 43 b 510 424 463 296 482 339 b 543 603 538 504 544 547 b 532 658 542 636 542 638 b 407 728 510 704 465 728 b 228 633 347 728 292 699 b 146 515 194 600 168 563 b 115 394 122 464 115 439 b 129 297 115 351 118 326 z m 163 192 l 176 214 l 201 190 b 297 126 239 153 276 128 b 304 143 324 125 326 132 b 214 236 288 150 233 207 l 201 254 l 232 311 b 264 372 250 342 264 369 b 229 388 263 379 246 388 b 204 375 218 388 215 385 b 185 350 199 368 189 357 b 175 342 181 343 176 339 b 174 383 174 343 172 360 b 183 450 175 418 175 425 b 281 610 204 508 240 568 b 403 694 325 656 367 685 b 454 689 428 700 438 700 b 493 581 483 671 493 643 b 451 383 494 521 483 471 b 253 11 403 250 318 92 b 146 -79 221 -29 178 -64 b 107 -81 132 -85 117 -86 b 96 -64 104 -78 99 -69 b 89 -18 90 -53 89 -47 b 113 86 89 19 93 35 b 163 192 126 122 143 153 z m 399 799 b 444 842 421 799 425 801 b 460 869 451 857 458 869 b 471 842 460 869 465 857 b 493 789 481 811 489 793 b 506 788 496 788 501 786 b 504 842 517 789 517 790 b 493 901 500 863 494 889 b 468 932 492 928 488 932 b 444 925 456 932 451 931 b 369 810 432 913 369 818 b 399 799 369 801 378 799 z "},"":{"ha":419,"x_min":0,"x_max":0,"o":"m 136 276 l 118 246 b 29 29 72 169 36 81 b 39 -54 26 0 29 -35 b 103 -106 50 -81 72 -97 b 207 -83 143 -115 168 -110 b 419 210 278 -37 335 43 b 510 424 463 296 482 339 b 543 603 538 504 544 547 b 532 658 542 636 542 638 b 407 728 510 704 465 728 b 228 633 347 728 292 699 b 146 515 194 600 168 563 b 115 394 122 464 115 439 b 129 297 115 351 118 326 z m 163 192 l 176 214 l 201 190 b 297 126 239 153 276 128 b 304 143 324 125 326 132 b 214 236 288 150 233 207 l 201 254 l 232 311 b 264 372 250 342 264 369 b 229 388 263 379 246 388 b 204 375 218 388 215 385 b 185 350 199 368 189 357 b 175 342 181 343 176 339 b 174 383 174 343 172 360 b 183 450 175 418 175 425 b 281 610 204 508 240 568 b 403 694 325 656 367 685 b 454 689 428 700 438 700 b 493 581 483 671 493 643 b 451 383 494 521 483 471 b 253 11 403 250 318 92 b 146 -79 221 -29 178 -64 b 107 -81 132 -85 117 -86 b 96 -64 104 -78 99 -69 b 89 -18 90 -53 89 -47 b 113 86 89 19 93 35 b 163 192 126 122 143 153 z m 436 847 b 414 851 426 853 425 854 b 389 824 401 847 392 836 b 404 797 388 811 392 803 b 429 797 415 793 418 793 b 449 831 440 803 449 818 b 436 847 449 836 446 840 z m 474 844 b 461 800 460 836 453 810 b 501 797 465 796 492 794 b 517 829 507 800 517 819 b 474 844 517 844 492 853 z "},"":{"ha":419,"x_min":0,"x_max":0,"o":"m 136 276 l 118 246 b 29 29 72 169 36 81 b 39 -54 26 0 29 -35 b 103 -106 50 -81 72 -97 b 207 -83 143 -115 168 -110 b 419 210 278 -37 335 43 b 510 424 463 296 482 339 b 543 603 538 504 544 547 b 532 658 542 636 542 638 b 407 728 510 704 465 728 b 228 633 347 728 292 699 b 146 515 194 600 168 563 b 115 394 122 464 115 439 b 129 297 115 351 118 326 z m 163 192 l 176 214 l 201 190 b 297 126 239 153 276 128 b 304 143 324 125 326 132 b 214 236 288 150 233 207 l 201 254 l 232 311 b 264 372 250 342 264 369 b 229 388 263 379 246 388 b 204 375 218 388 215 385 b 185 350 199 368 189 357 b 175 342 181 343 176 339 b 174 383 174 343 172 360 b 183 450 175 418 175 425 b 281 610 204 508 240 568 b 403 694 325 656 367 685 b 454 689 428 700 438 700 b 493 581 483 671 493 643 b 451 383 494 521 483 471 b 253 11 403 250 318 92 b 146 -79 221 -29 178 -64 b 107 -81 132 -85 117 -86 b 96 -64 104 -78 99 -69 b 89 -18 90 -53 89 -47 b 113 86 89 19 93 35 b 163 192 126 122 143 153 z m 463 935 b 400 949 453 947 418 954 b 425 851 385 944 393 913 b 464 807 443 817 447 811 b 493 811 474 804 489 807 b 488 844 494 813 493 824 b 472 903 482 861 476 888 b 463 935 469 918 465 932 z "},"":{"ha":419,"x_min":0,"x_max":0,"o":"m 136 276 l 118 246 b 29 29 72 169 36 81 b 39 -54 26 0 29 -35 b 103 -106 50 -81 72 -97 b 207 -83 143 -115 168 -110 b 419 210 278 -37 335 43 b 510 424 463 296 482 339 b 543 603 538 504 544 547 b 532 658 542 636 542 638 b 407 728 510 704 465 728 b 228 633 347 728 292 699 b 146 515 194 600 168 563 b 115 394 122 464 115 439 b 129 297 115 351 118 326 z m 163 192 l 176 214 l 201 190 b 297 126 239 153 276 128 b 304 143 324 125 326 132 b 214 236 288 150 233 207 l 201 254 l 232 311 b 264 372 250 342 264 369 b 229 388 263 379 246 388 b 204 375 218 388 215 385 b 185 350 199 368 189 357 b 175 342 181 343 176 339 b 174 383 174 343 172 360 b 183 450 175 418 175 425 b 281 610 204 508 240 568 b 403 694 325 656 367 685 b 454 689 428 700 438 700 b 493 581 483 671 493 643 b 451 383 494 521 483 471 b 253 11 403 250 318 92 b 146 -79 221 -29 178 -64 b 107 -81 132 -85 117 -86 b 96 -64 104 -78 99 -69 b 89 -18 90 -53 89 -47 b 113 86 89 19 93 35 b 163 192 126 122 143 153 z m 444 951 b 390 842 435 943 397 868 b 399 810 385 821 386 815 b 433 818 411 804 431 808 b 467 878 435 821 450 849 b 501 940 485 908 501 936 b 444 951 507 961 467 969 z m 532 951 b 478 842 522 943 485 868 b 486 810 472 821 474 815 b 521 818 499 804 518 808 b 554 878 522 821 538 849 b 589 940 572 908 589 936 b 532 951 594 961 554 969 z "},"":{"ha":419,"x_min":0,"x_max":0,"o":"m 136 276 l 118 246 b 29 29 72 169 36 81 b 39 -54 26 0 29 -35 b 103 -106 50 -81 72 -97 b 207 -83 143 -115 168 -110 b 419 210 278 -37 335 43 b 510 424 463 296 482 339 b 543 603 538 504 544 547 b 532 658 542 636 542 638 b 407 728 510 704 465 728 b 228 633 347 728 292 699 b 146 515 194 600 168 563 b 115 394 122 464 115 439 b 129 297 115 351 118 326 z m 163 192 l 176 214 l 201 190 b 297 126 239 153 276 128 b 304 143 324 125 326 132 b 214 236 288 150 233 207 l 201 254 l 232 311 b 264 372 250 342 264 369 b 229 388 263 379 246 388 b 204 375 218 388 215 385 b 185 350 199 368 189 357 b 175 342 181 343 176 339 b 174 383 174 343 172 360 b 183 450 175 418 175 425 b 281 610 204 508 240 568 b 403 694 325 656 367 685 b 454 689 428 700 438 700 b 493 581 483 671 493 643 b 451 383 494 521 483 471 b 253 11 403 250 318 92 b 146 -79 221 -29 178 -64 b 107 -81 132 -85 117 -86 b 96 -64 104 -78 99 -69 b 89 -18 90 -53 89 -47 b 113 86 89 19 93 35 b 163 192 126 122 143 153 z m 524 806 b 578 813 551 808 576 811 b 572 829 585 818 583 824 b 503 833 565 833 557 835 b 363 813 417 833 363 825 b 383 796 363 808 375 799 b 446 797 397 792 417 792 b 524 806 461 799 496 803 z "},"":{"ha":419,"x_min":0,"x_max":0,"o":"m 136 276 l 118 246 b 29 29 72 169 36 81 b 39 -54 26 0 29 -35 b 103 -106 50 -81 72 -97 b 207 -83 143 -115 168 -110 b 419 210 278 -37 335 43 b 510 424 463 296 482 339 b 543 603 538 504 544 547 b 532 658 542 636 542 638 b 407 728 510 704 465 728 b 228 633 347 728 292 699 b 146 515 194 600 168 563 b 115 394 122 464 115 439 b 129 297 115 351 118 326 z m 163 192 l 176 214 l 201 190 b 297 126 239 153 276 128 b 304 143 324 125 326 132 b 214 236 288 150 233 207 l 201 254 l 232 311 b 264 372 250 342 264 369 b 229 388 263 379 246 388 b 204 375 218 388 215 385 b 185 350 199 368 189 357 b 175 342 181 343 176 339 b 174 383 174 343 172 360 b 183 450 175 418 175 425 b 281 610 204 508 240 568 b 403 694 325 656 367 685 b 454 689 428 700 438 700 b 493 581 483 671 493 643 b 451 383 494 521 483 471 b 253 11 403 250 318 92 b 146 -79 221 -29 178 -64 b 107 -81 132 -85 117 -86 b 96 -64 104 -78 99 -69 b 89 -18 90 -53 89 -47 b 113 86 89 19 93 35 b 163 192 126 122 143 153 z m 390 808 b 407 824 397 808 400 811 b 432 835 421 847 422 847 b 479 799 446 818 463 806 b 547 810 507 790 532 793 b 557 860 557 819 563 850 b 535 861 551 867 540 868 b 529 844 532 858 529 853 b 518 818 529 831 525 819 b 506 828 514 817 510 821 b 410 867 486 858 435 881 b 381 829 400 863 388 847 b 390 808 374 815 376 808 z "},"":{"ha":606,"x_min":0,"x_max":0,"o":"m 56 -132 b 83 -128 69 -139 81 -136 b 217 129 93 -107 214 131 b 235 90 218 129 226 113 b 376 -122 290 -50 326 -103 b 444 -128 397 -131 426 -132 b 547 -36 479 -119 519 -83 b 599 63 576 13 600 58 b 589 65 597 65 593 67 b 535 -6 581 65 578 63 b 414 -108 488 -78 451 -108 b 385 -96 400 -108 397 -107 b 331 13 368 -82 354 -56 b 278 142 306 79 292 113 b 269 163 272 151 269 161 b 304 168 269 163 285 165 b 468 215 368 175 439 196 b 632 396 518 247 594 332 b 686 614 672 465 694 557 b 613 696 678 663 657 686 b 556 689 589 701 578 699 b 419 554 517 671 475 628 b 254 275 381 501 326 411 b 218 219 229 229 224 219 b 213 222 215 221 213 221 b 246 289 211 222 226 253 b 344 544 299 397 326 469 b 307 710 363 625 350 682 b 204 718 278 731 235 733 b 124 621 174 704 140 663 b 128 483 100 560 103 501 b 189 471 144 472 176 465 b 186 490 197 474 196 485 b 171 538 176 497 171 511 b 222 665 171 585 189 632 b 260 694 239 685 253 694 b 279 653 265 694 276 671 b 219 407 288 608 263 510 b 108 182 204 371 158 276 b 35 13 67 100 43 44 b 31 -97 29 -15 26 -82 b 56 -132 35 -114 44 -128 z m 396 461 b 515 617 428 513 471 571 b 604 671 542 646 592 675 b 613 558 618 665 622 606 b 460 286 593 463 539 367 b 315 200 411 235 382 218 b 250 192 275 190 253 188 b 396 461 247 197 353 393 z m 107 13 b 158 121 117 35 139 85 b 196 185 189 182 193 189 b 200 176 199 182 200 178 b 153 79 200 174 179 131 b 96 -37 128 29 101 -24 b 107 13 74 -83 82 -49 z m 564 922 b 510 813 554 914 517 839 b 518 781 504 792 506 786 b 553 789 531 775 550 779 b 586 849 554 792 569 819 b 621 911 604 879 621 907 b 564 922 626 932 586 940 z "},"":{"ha":606,"x_min":0,"x_max":0,"o":"m 56 -132 b 83 -128 69 -139 81 -136 b 217 129 93 -107 214 131 b 235 90 218 129 226 113 b 376 -122 290 -50 326 -103 b 444 -128 397 -131 426 -132 b 547 -36 479 -119 519 -83 b 599 63 576 13 600 58 b 589 65 597 65 593 67 b 535 -6 581 65 578 63 b 414 -108 488 -78 451 -108 b 385 -96 400 -108 397 -107 b 331 13 368 -82 354 -56 b 278 142 306 79 292 113 b 269 163 272 151 269 161 b 304 168 269 163 285 165 b 468 215 368 175 439 196 b 632 396 518 247 594 332 b 686 614 672 465 694 557 b 613 696 678 663 657 686 b 556 689 589 701 578 699 b 419 554 517 671 475 628 b 254 275 381 501 326 411 b 218 219 229 229 224 219 b 213 222 215 221 213 221 b 246 289 211 222 226 253 b 344 544 299 397 326 469 b 307 710 363 625 350 682 b 204 718 278 731 235 733 b 124 621 174 704 140 663 b 128 483 100 560 103 501 b 189 471 144 472 176 465 b 186 490 197 474 196 485 b 171 538 176 497 171 511 b 222 665 171 585 189 632 b 260 694 239 685 253 694 b 279 653 265 694 276 671 b 219 407 288 608 263 510 b 108 182 204 371 158 276 b 35 13 67 100 43 44 b 31 -97 29 -15 26 -82 b 56 -132 35 -114 44 -128 z m 396 461 b 515 617 428 513 471 571 b 604 671 542 646 592 675 b 613 558 618 665 622 606 b 460 286 593 463 539 367 b 315 200 411 235 382 218 b 250 192 275 190 253 188 b 396 461 247 197 353 393 z m 107 13 b 158 121 117 35 139 85 b 196 185 189 182 193 189 b 200 176 199 182 200 178 b 153 79 200 174 179 131 b 96 -37 128 29 101 -24 b 107 13 74 -83 82 -49 z m 518 781 b 553 779 526 775 546 775 b 581 825 556 782 567 801 b 617 892 592 847 608 878 b 632 921 626 907 632 919 b 614 924 632 926 621 928 b 583 883 611 921 597 903 b 553 879 557 843 560 843 b 542 904 550 889 546 900 b 515 911 536 911 533 911 b 488 903 496 911 494 911 b 482 881 482 896 481 893 b 518 781 486 843 506 790 z "},"":{"ha":606,"x_min":0,"x_max":0,"o":"m 56 -132 b 83 -128 69 -139 81 -136 b 217 129 93 -107 214 131 b 235 90 218 129 226 113 b 376 -122 290 -50 326 -103 b 444 -128 397 -131 426 -132 b 547 -36 479 -119 519 -83 b 599 63 576 13 600 58 b 589 65 597 65 593 67 b 535 -6 581 65 578 63 b 414 -108 488 -78 451 -108 b 385 -96 400 -108 397 -107 b 331 13 368 -82 354 -56 b 278 142 306 79 292 113 b 269 163 272 151 269 161 b 304 168 269 163 285 165 b 468 215 368 175 439 196 b 632 396 518 247 594 332 b 686 614 672 465 694 557 b 613 696 678 663 657 686 b 556 689 589 701 578 699 b 419 554 517 671 475 628 b 254 275 381 501 326 411 b 218 219 229 229 224 219 b 213 222 215 221 213 221 b 246 289 211 222 226 253 b 344 544 299 397 326 469 b 307 710 363 625 350 682 b 204 718 278 731 235 733 b 124 621 174 704 140 663 b 128 483 100 560 103 501 b 189 471 144 472 176 465 b 186 490 197 474 196 485 b 171 538 176 497 171 511 b 222 665 171 585 189 632 b 260 694 239 685 253 694 b 279 653 265 694 276 671 b 219 407 288 608 263 510 b 108 182 204 371 158 276 b 35 13 67 100 43 44 b 31 -97 29 -15 26 -82 b 56 -132 35 -114 44 -128 z m 396 461 b 515 617 428 513 471 571 b 604 671 542 646 592 675 b 613 558 618 665 622 606 b 460 286 593 463 539 367 b 315 200 411 235 382 218 b 250 192 275 190 253 188 b 396 461 247 197 353 393 z m 107 13 b 158 121 117 35 139 85 b 196 185 189 182 193 189 b 200 176 199 182 200 178 b 153 79 200 174 179 131 b 96 -37 128 29 101 -24 b 107 13 74 -83 82 -49 z m 196 -126 b 183 -151 188 -128 188 -128 b 169 -185 179 -172 178 -176 b 156 -194 165 -189 158 -194 b 158 -203 153 -196 153 -197 b 207 -199 167 -211 183 -211 b 232 -176 225 -190 228 -187 b 231 -139 239 -158 239 -147 b 196 -126 224 -131 207 -125 z "},"":{"ha":403,"x_min":0,"x_max":0,"o":"m 101 -107 b 204 -106 133 -111 181 -111 b 331 -33 251 -96 290 -75 b 369 15 351 -12 360 -1 b 318 218 396 71 390 97 b 257 367 276 289 264 321 b 314 514 254 403 275 460 b 513 688 358 578 453 660 b 539 674 535 697 539 696 b 513 593 539 656 532 635 b 431 479 489 546 465 513 b 406 444 407 454 403 449 b 446 450 411 438 431 440 b 563 600 479 471 517 518 b 596 685 594 657 597 664 b 586 710 594 697 593 701 b 486 728 568 728 524 738 b 290 600 432 715 354 664 b 181 389 224 533 181 451 b 254 213 182 339 199 300 b 319 63 313 121 321 100 b 272 -24 317 33 301 6 b 135 -85 226 -69 192 -85 b 75 -68 99 -85 89 -82 b 94 4 60 -51 67 -26 b 189 74 108 21 151 53 b 197 92 203 82 206 88 b 117 63 186 96 163 88 b 29 -43 69 36 33 -6 b 38 -72 28 -56 29 -58 b 101 -107 49 -89 75 -103 z m 581 950 b 526 840 571 942 533 867 b 535 808 521 819 522 814 b 569 817 547 803 567 807 b 603 876 571 819 586 847 b 638 939 621 907 638 935 b 581 950 643 960 603 968 z "},"":{"ha":403,"x_min":0,"x_max":0,"o":"m 101 -107 b 204 -106 133 -111 181 -111 b 331 -33 251 -96 290 -75 b 369 15 351 -12 360 -1 b 318 218 396 71 390 97 b 257 367 276 289 264 321 b 314 514 254 403 275 460 b 513 688 358 578 453 660 b 539 674 535 697 539 696 b 513 593 539 656 532 635 b 431 479 489 546 465 513 b 406 444 407 454 403 449 b 446 450 411 438 431 440 b 563 600 479 471 517 518 b 596 685 594 657 597 664 b 586 710 594 697 593 701 b 486 728 568 728 524 738 b 290 600 432 715 354 664 b 181 389 224 533 181 451 b 254 213 182 339 199 300 b 319 63 313 121 321 100 b 272 -24 317 33 301 6 b 135 -85 226 -69 192 -85 b 75 -68 99 -85 89 -82 b 94 4 60 -51 67 -26 b 189 74 108 21 151 53 b 197 92 203 82 206 88 b 117 63 186 96 163 88 b 29 -43 69 36 33 -6 b 38 -72 28 -56 29 -58 b 101 -107 49 -89 75 -103 z m 535 808 b 569 807 543 803 563 803 b 597 853 572 810 583 829 b 633 919 608 875 625 906 b 649 949 643 935 649 947 b 631 951 649 954 638 956 b 600 911 628 949 614 931 b 569 907 574 871 576 871 b 558 932 567 917 563 928 b 532 939 553 939 550 939 b 504 931 513 939 511 939 b 499 908 499 924 497 921 b 535 808 503 871 522 818 z "},"":{"ha":403,"x_min":0,"x_max":0,"o":"m 57 -244 b 117 -242 69 -251 99 -250 b 168 -160 150 -226 178 -185 b 136 -142 165 -150 149 -142 b 133 -124 126 -142 126 -139 b 138 -110 135 -119 138 -114 b 204 -106 163 -110 189 -108 b 331 -33 251 -96 290 -75 b 369 15 351 -12 360 -1 b 318 218 396 71 390 97 b 257 367 276 289 264 321 b 314 514 254 403 275 460 b 513 688 358 578 453 660 b 539 674 535 697 539 696 b 513 593 539 656 532 635 b 431 479 489 546 465 513 b 406 444 407 454 403 449 b 446 450 411 438 431 440 b 563 600 479 471 517 518 b 596 685 594 657 597 664 b 586 710 594 697 593 701 b 486 728 568 728 524 738 b 290 600 432 715 354 664 b 181 389 224 533 181 451 b 254 213 182 339 199 300 b 319 63 313 121 321 100 b 272 -24 317 33 301 6 b 135 -85 226 -69 192 -85 b 75 -68 99 -85 89 -82 b 94 4 60 -51 67 -26 b 189 74 108 21 151 53 b 197 92 203 82 206 88 b 117 63 186 96 163 88 b 29 -43 69 36 33 -6 b 38 -72 28 -56 29 -58 b 96 -106 47 -87 71 -101 b 93 -114 94 -108 93 -110 l 86 -139 b 82 -156 83 -144 82 -153 b 110 -165 82 -161 97 -168 b 119 -172 119 -164 119 -164 b 78 -229 119 -193 93 -231 b 72 -194 65 -228 61 -206 b 53 -181 82 -183 71 -175 b 35 -211 42 -183 35 -196 b 57 -244 35 -226 43 -237 z "},"":{"ha":403,"x_min":0,"x_max":0,"o":"m 101 -107 b 204 -106 133 -111 181 -111 b 331 -33 251 -96 290 -75 b 369 15 351 -12 360 -1 b 318 218 396 71 390 97 b 257 367 276 289 264 321 b 314 514 254 403 275 460 b 513 688 358 578 453 660 b 539 674 535 697 539 696 b 513 593 539 656 532 635 b 431 479 489 546 465 513 b 406 444 407 454 403 449 b 446 450 411 438 431 440 b 563 600 479 471 517 518 b 596 685 594 657 597 664 b 586 710 594 697 593 701 b 486 728 568 728 524 738 b 290 600 432 715 354 664 b 181 389 224 533 181 451 b 254 213 182 339 199 300 b 319 63 313 121 321 100 b 272 -24 317 33 301 6 b 135 -85 226 -69 192 -85 b 75 -68 99 -85 89 -82 b 94 4 60 -51 67 -26 b 189 74 108 21 151 53 b 197 92 203 82 206 88 b 117 63 186 96 163 88 b 29 -43 69 36 33 -6 b 38 -72 28 -56 29 -58 b 101 -107 49 -89 75 -103 z m 499 804 b 544 847 521 804 525 807 b 560 875 551 863 558 875 b 571 847 560 875 565 863 b 593 794 581 817 589 799 b 606 793 596 793 601 792 b 604 847 617 794 617 796 b 593 907 600 868 594 894 b 568 938 592 933 588 938 b 544 931 556 938 551 936 b 469 815 532 918 469 824 b 499 804 469 807 478 804 z "},"":{"ha":403,"x_min":0,"x_max":0,"o":"m 101 -107 b 204 -106 133 -111 181 -111 b 331 -33 251 -96 290 -75 b 369 15 351 -12 360 -1 b 318 218 396 71 390 97 b 257 367 276 289 264 321 b 314 514 254 403 275 460 b 513 688 358 578 453 660 b 539 674 535 697 539 696 b 513 593 539 656 532 635 b 431 479 489 546 465 513 b 406 444 407 454 403 449 b 446 450 411 438 431 440 b 563 600 479 471 517 518 b 596 685 594 657 597 664 b 586 710 594 697 593 701 b 486 728 568 728 524 738 b 290 600 432 715 354 664 b 181 389 224 533 181 451 b 254 213 182 339 199 300 b 319 63 313 121 321 100 b 272 -24 317 33 301 6 b 135 -85 226 -69 192 -85 b 75 -68 99 -85 89 -82 b 94 4 60 -51 67 -26 b 189 74 108 21 151 53 b 197 92 203 82 206 88 b 117 63 186 96 163 88 b 29 -43 69 36 33 -6 b 38 -72 28 -56 29 -58 b 101 -107 49 -89 75 -103 z m 131 -126 b 118 -151 122 -128 122 -128 b 104 -185 114 -172 113 -176 b 90 -194 100 -189 93 -194 b 93 -203 88 -196 88 -197 b 142 -199 101 -211 118 -211 b 167 -176 160 -190 163 -187 b 165 -139 174 -158 174 -147 b 131 -126 158 -131 142 -125 z "},"":{"ha":282,"x_min":0,"x_max":0,"o":"m 57 -89 b 157 -58 82 -99 113 -89 b 253 117 203 -29 206 -22 b 350 381 290 228 329 331 b 444 568 378 447 421 532 b 524 651 468 603 504 642 b 626 672 543 661 590 669 b 719 697 661 674 693 683 b 775 746 736 704 768 733 b 739 808 792 774 772 808 b 724 793 728 808 724 806 b 722 781 724 789 724 785 b 715 764 719 778 718 771 b 574 701 706 725 642 697 b 426 722 544 704 468 714 b 279 726 393 728 318 731 b 157 669 206 718 172 703 b 156 650 151 658 150 657 b 185 635 160 643 175 635 b 206 651 188 635 196 643 b 238 676 215 663 229 672 b 457 686 276 694 375 699 l 501 679 l 485 672 b 190 128 381 636 283 456 b 128 -31 158 17 150 -7 b 69 -69 111 -47 83 -67 b 54 -64 63 -71 60 -69 b 28 -60 44 -56 28 -53 b 57 -89 28 -68 44 -85 z m 456 882 b 490 881 464 876 483 876 b 518 926 493 883 504 903 b 554 993 529 949 546 979 b 569 1022 564 1008 569 1021 b 551 1025 569 1028 558 1029 b 521 985 549 1022 535 1004 b 490 981 494 944 497 944 b 479 1006 488 990 483 1001 b 453 1013 474 1013 471 1013 b 425 1004 433 1013 432 1013 b 419 982 419 997 418 994 b 456 882 424 944 443 892 z "},"":{"ha":282,"x_min":0,"x_max":0,"o":"m 57 -89 b 157 -58 82 -99 113 -89 b 253 117 203 -29 206 -22 b 350 381 290 228 329 331 b 444 568 378 447 421 532 b 524 651 468 603 504 642 b 626 672 543 661 590 669 b 719 697 661 674 693 683 b 775 746 736 704 768 733 b 739 808 792 774 772 808 b 724 793 728 808 724 806 b 722 781 724 789 724 785 b 715 764 719 778 718 771 b 574 701 706 725 642 697 b 426 722 544 704 468 714 b 279 726 393 728 318 731 b 157 669 206 718 172 703 b 156 650 151 658 150 657 b 185 635 160 643 175 635 b 206 651 188 635 196 643 b 238 676 215 663 229 672 b 457 686 276 694 375 699 l 501 679 l 485 672 b 190 128 381 636 283 456 b 128 -31 158 17 150 -7 b 69 -69 111 -47 83 -67 b 54 -64 63 -71 60 -69 b 28 -60 44 -56 28 -53 b 57 -89 28 -68 44 -85 z m 53 -117 b 40 -142 44 -118 44 -118 b 26 -175 36 -162 35 -167 b 13 -185 22 -179 15 -185 b 15 -193 10 -186 10 -187 b 64 -189 24 -201 40 -201 b 89 -167 82 -181 85 -178 b 88 -129 96 -149 96 -137 b 53 -117 81 -121 64 -115 z "},"":{"ha":457,"x_min":0,"x_max":0,"o":"m 414 -85 b 401 -75 413 -82 408 -78 b 382 -4 383 -67 381 -57 b 390 76 382 39 382 46 b 617 540 417 175 496 338 b 686 699 696 674 701 686 b 647 703 676 706 656 708 b 558 585 636 696 603 651 b 453 407 513 515 488 472 b 314 210 429 361 410 333 b 154 10 261 142 178 36 b 104 -37 133 -14 113 -33 b 93 -31 99 -42 97 -40 b 115 113 83 -1 92 53 b 244 347 142 181 174 238 b 358 561 311 450 338 501 b 331 711 383 638 375 685 b 213 715 297 731 244 732 b 136 618 192 704 150 649 b 118 508 119 575 110 521 b 176 490 128 494 158 485 l 186 493 l 186 522 b 207 614 186 558 190 581 b 261 686 219 640 247 676 b 281 692 265 689 274 692 b 304 657 296 692 303 682 b 283 563 307 633 300 606 b 144 318 260 507 236 464 b 36 90 93 238 53 151 b 31 -1 29 61 26 19 b 99 -67 39 -40 64 -64 b 192 10 128 -68 133 -64 b 344 207 247 81 307 156 b 374 244 360 228 372 244 b 365 221 375 246 371 236 b 343 158 360 207 349 178 b 339 -46 313 68 311 8 b 371 -82 350 -68 356 -75 b 414 -85 390 -92 415 -93 z m 532 944 b 478 835 522 936 485 861 b 486 803 472 814 474 808 b 521 811 499 797 518 801 b 554 871 522 814 538 842 b 589 933 572 901 589 929 b 532 944 594 954 554 963 z "},"":{"ha":457,"x_min":0,"x_max":0,"o":"m 414 -85 b 401 -75 413 -82 408 -78 b 382 -4 383 -67 381 -57 b 390 76 382 39 382 46 b 617 540 417 175 496 338 b 686 699 696 674 701 686 b 647 703 676 706 656 708 b 558 585 636 696 603 651 b 453 407 513 515 488 472 b 314 210 429 361 410 333 b 154 10 261 142 178 36 b 104 -37 133 -14 113 -33 b 93 -31 99 -42 97 -40 b 115 113 83 -1 92 53 b 244 347 142 181 174 238 b 358 561 311 450 338 501 b 331 711 383 638 375 685 b 213 715 297 731 244 732 b 136 618 192 704 150 649 b 118 508 119 575 110 521 b 176 490 128 494 158 485 l 186 493 l 186 522 b 207 614 186 558 190 581 b 261 686 219 640 247 676 b 281 692 265 689 274 692 b 304 657 296 692 303 682 b 283 563 307 633 300 606 b 144 318 260 507 236 464 b 36 90 93 238 53 151 b 31 -1 29 61 26 19 b 99 -67 39 -40 64 -64 b 192 10 128 -68 133 -64 b 344 207 247 81 307 156 b 374 244 360 228 372 244 b 365 221 375 246 371 236 b 343 158 360 207 349 178 b 339 -46 313 68 311 8 b 371 -82 350 -68 356 -75 b 414 -85 390 -92 415 -93 z m 578 901 b 546 853 565 879 554 861 b 511 839 528 836 521 832 b 478 903 497 850 489 867 b 478 906 478 904 478 904 b 436 854 417 911 397 932 b 510 808 457 821 481 806 b 565 829 528 810 553 819 b 578 901 579 843 651 917 z "},"":{"ha":457,"x_min":0,"x_max":0,"o":"m 414 -85 b 401 -75 413 -82 408 -78 b 382 -4 383 -67 381 -57 b 390 76 382 39 382 46 b 617 540 417 175 496 338 b 686 699 696 674 701 686 b 647 703 676 706 656 708 b 558 585 636 696 603 651 b 453 407 513 515 488 472 b 314 210 429 361 410 333 b 154 10 261 142 178 36 b 104 -37 133 -14 113 -33 b 93 -31 99 -42 97 -40 b 115 113 83 -1 92 53 b 244 347 142 181 174 238 b 358 561 311 450 338 501 b 331 711 383 638 375 685 b 213 715 297 731 244 732 b 136 618 192 704 150 649 b 118 508 119 575 110 521 b 176 490 128 494 158 485 l 186 493 l 186 522 b 207 614 186 558 190 581 b 261 686 219 640 247 676 b 281 692 265 689 274 692 b 304 657 296 692 303 682 b 283 563 307 633 300 606 b 144 318 260 507 236 464 b 36 90 93 238 53 151 b 31 -1 29 61 26 19 b 99 -67 39 -40 64 -64 b 192 10 128 -68 133 -64 b 344 207 247 81 307 156 b 374 244 360 228 372 244 b 365 221 375 246 371 236 b 343 158 360 207 349 178 b 339 -46 313 68 311 8 b 371 -82 350 -68 356 -75 b 414 -85 390 -92 415 -93 z m 450 799 b 496 842 472 799 476 801 b 511 869 503 857 510 869 b 522 842 511 869 517 857 b 544 789 532 811 540 793 b 557 788 547 788 553 786 b 556 842 568 789 568 790 b 544 901 551 863 546 889 b 519 932 543 928 539 932 b 496 925 507 932 503 931 b 421 810 483 913 421 818 b 450 799 421 801 429 799 z "}}}
